<svg class="custom-logo style-svg replaced-svg svg-replaced-0" id="svg-replaced-0" fill="none" viewBox="0 0 256 39" height="39" width="256" aria-label="Site logo" xmlns="http://www.w3.org/2000/svg">
<path fill="#000" d="M250.386 28.2004C249.294 28.2004 248.237 28.0346 247.215 27.7031C246.207 27.3577 245.412 26.9156 244.832 26.3768L245.599 24.7605C246.151 25.2578 246.856 25.6654 247.712 25.9831C248.583 26.287 249.474 26.439 250.386 26.439C251.587 26.439 252.485 26.2387 253.079 25.8381C253.674 25.4236 253.971 24.8779 253.971 24.201C253.971 23.7037 253.805 23.303 253.473 22.9991C253.155 22.6814 252.755 22.4396 252.271 22.2738C251.802 22.1081 251.132 21.9216 250.261 21.7143C249.17 21.4519 248.286 21.1894 247.609 20.9269C246.946 20.6644 246.372 20.2638 245.889 19.725C245.419 19.1724 245.184 18.4333 245.184 17.5077C245.184 16.7341 245.385 16.0364 245.785 15.4148C246.2 14.7931 246.821 14.2958 247.65 13.9228C248.479 13.5498 249.508 13.3633 250.738 13.3633C251.594 13.3633 252.437 13.4738 253.266 13.6948C254.095 13.9159 254.806 14.2336 255.4 14.6481L254.717 16.3058C254.109 15.919 253.459 15.6289 252.769 15.4355C252.078 15.2283 251.401 15.1247 250.738 15.1247C249.564 15.1247 248.679 15.3388 248.085 15.7671C247.505 16.1953 247.215 16.7479 247.215 17.4248C247.215 17.9222 247.381 18.3297 247.712 18.6475C248.044 18.9514 248.452 19.1931 248.935 19.3727C249.432 19.5385 250.102 19.7181 250.945 19.9115C252.036 20.174 252.914 20.4365 253.577 20.699C254.24 20.9614 254.806 21.3621 255.276 21.9008C255.76 22.4396 256.001 23.1649 256.001 24.0767C256.001 24.8365 255.794 25.5341 255.38 26.1696C254.965 26.7913 254.337 27.2886 253.494 27.6616C252.651 28.0208 251.615 28.2004 250.386 28.2004Z"></path>
<path fill="#000" d="M228.612 28.0349L225.483 23.5796C225.096 23.6072 224.792 23.621 224.571 23.621H220.986V28.0349H218.914V13.5293H224.571C226.45 13.5293 227.928 13.9783 229.006 14.8762C230.083 15.7742 230.622 17.0106 230.622 18.5855C230.622 19.7045 230.346 20.6577 229.793 21.4452C229.241 22.2326 228.453 22.806 227.431 23.1651L230.871 28.0349H228.612ZM224.509 21.8596C225.821 21.8596 226.823 21.5764 227.514 21.01C228.205 20.4436 228.55 19.6354 228.55 18.5855C228.55 17.5356 228.205 16.7343 227.514 16.1817C226.823 15.6153 225.821 15.3321 224.509 15.3321H220.986V21.8596H224.509Z"></path>
<path fill="#000" d="M203.367 26.232V28.0349H192.84V13.5293H203.077V15.3321H194.912V19.7874H202.186V21.5488H194.912V26.232H203.367Z"></path>
<path fill="#000" d="M176.311 13.5293V28.0349H174.611L165.908 17.2179V28.0349H163.836V13.5293H165.535L174.238 24.3463V13.5293H176.311Z"></path>
<path fill="#000" d="M142.364 15.3331H137.391V13.5303H149.389V15.3331H144.415V28.0358H142.364V15.3331Z"></path>
<path fill="#000" d="M122.136 28.0349L119.006 23.5796C118.62 23.6072 118.316 23.621 118.095 23.621H114.51V28.0349H112.438V13.5293H118.095C119.973 13.5293 121.452 13.9783 122.529 14.8762C123.607 15.7742 124.146 17.0106 124.146 18.5855C124.146 19.7045 123.869 20.6577 123.317 21.4452C122.764 22.2326 121.977 22.806 120.954 23.1651L124.394 28.0349H122.136ZM118.033 21.8596C119.345 21.8596 120.346 21.5764 121.037 21.01C121.728 20.4436 122.073 19.6354 122.073 18.5855C122.073 17.5356 121.728 16.7343 121.037 16.1817C120.346 15.6153 119.345 15.3321 118.033 15.3321H114.51V21.8596H118.033Z"></path>
<path fill="#000" d="M94.3137 24.4094H86.605L85.0094 28.0358H82.875L89.4439 13.5303H91.4955L98.0851 28.0358H95.9093L94.3137 24.4094ZM93.5884 22.7517L90.4593 15.6439L87.3303 22.7517H93.5884Z"></path>
<path fill="#000" d="M64.5165 13.5303C66.3954 13.5303 67.8735 13.9793 68.9511 14.8772C70.0287 15.7752 70.5674 17.0116 70.5674 18.5865C70.5674 20.1614 70.0287 21.3978 68.9511 22.2958C67.8735 23.1937 66.3954 23.6427 64.5165 23.6427H60.9316V28.0358H58.8594V13.5303H64.5165ZM64.4544 21.8399C65.7668 21.8399 66.7684 21.5636 67.4591 21.011C68.1498 20.4446 68.4952 19.6364 68.4952 18.5865C68.4952 17.5366 68.1498 16.7353 67.4591 16.1827C66.7684 15.6163 65.7668 15.3331 64.4544 15.3331H60.9316V21.8399H64.4544Z"></path>
<g clip-path="url(#clip0_14450_2918)">
<path fill="#000" d="M18.2383 13.1847C20.4938 13.1847 19.998 15.3264 19.998 15.3264L21.9122 15.363C22.2576 12.571 19.9817 11.5753 19.9817 11.5753C19.9817 11.5753 16.8646 10.5431 15.1049 12.6482C13.3452 14.7534 15.3325 17.391 15.3325 17.391L15.6739 17.7689C14.6985 18.2647 12.6502 19.6343 12.8859 22.3247C13.1907 25.8442 15.7917 26.6489 15.7917 26.6489C15.7917 26.6489 19.5022 28.1038 22.1804 25.0029L24.2449 27.2219L25.582 25.8442C25.582 25.8442 17.206 16.5863 16.7833 16.1271C16.3607 15.6678 15.9787 13.1806 18.2383 13.1806V13.1847ZM21.0425 23.739L21.1319 23.8934C19.3762 25.9255 16.9418 24.9745 16.9418 24.9745C16.9418 24.9745 15.2349 24.4462 15.0358 22.1378C14.8814 20.3374 16.2713 19.4433 16.8971 19.1304L21.0425 23.739Z"></path>
<path fill="#000" d="M23.2875 19.9138C24.1531 19.9138 24.8562 19.2107 24.8562 18.3451C24.8562 17.4794 24.1531 16.7764 23.2875 16.7764C22.4218 16.7764 21.7188 17.4794 21.7188 18.3451C21.7188 19.2107 22.4218 19.9138 23.2875 19.9138Z"></path>
<path fill="#000" d="M19.1985 0C8.59545 0 0 8.59545 0 19.1985C0 29.8016 8.59545 38.3971 19.1985 38.3971C29.8016 38.3971 38.3971 29.8016 38.3971 19.1985C38.3971 8.59545 29.8016 0 19.1985 0ZM19.1985 35.727C10.0707 35.727 2.67008 28.3264 2.67008 19.1985C2.67008 10.0707 10.0707 2.67008 19.1985 2.67008C28.3264 2.67008 35.727 10.0707 35.727 19.1985C35.727 28.3264 28.3264 35.727 19.1985 35.727Z"></path>
</g>
<defs>
<clipPath id="clip0_14450_2918">
<rect fill="#000" height="38.3971" width="38.3971"></rect>
</clipPath>
</defs>
</svg>