<?xml version="1.0" encoding="UTF-8" standalone="no"?> <svg xmlns="http://www.w3.org/2000/svg" xmlns:xlink="http://www.w3.org/1999/xlink" xmlns:serif="http://www.serif.com/" width="100%" height="100%" viewBox="0 0 234 59" xml:space="preserve" style="fill-rule:evenodd;clip-rule:evenodd;stroke-linejoin:round;stroke-miterlimit:2;"><g><g><g><g><path d="M234,29.696l0,-2.588l-10.269,0l0,15.811l10.269,0l0,-2.595l-7.479,0l0,-4.318l5.448,0l0.95,-2.588l-6.398,0l0,-3.722l7.479,0Z" style="fill:#000;fill-rule:nonzero;"></path><path d="M55.062,29.696l5.333,0l0,13.223l2.782,0l0,-13.223l5.44,0l0,-2.588l-13.555,0l0,2.588Z" style="fill:#000;fill-rule:nonzero;"></path><path d="M82.84,33.418l-8.321,0l0,-6.31l-2.765,0l0,15.811l2.765,0l0,-6.913l8.321,0l0,6.913l2.79,0l0,-15.811l-2.79,0l0,6.31Z" style="fill:#000;fill-rule:nonzero;"></path><path d="M104.626,42.919l10.896,0l0,-2.595l-8.106,0l0,-4.318l6.34,0l1.147,-2.588l-7.487,0l0,-3.722l8.106,0l0,-2.588l-10.896,0l0,15.811Z" style="fill:#000;fill-rule:nonzero;"></path><path d="M139.355,27.002c-2.848,0 -4.78,0.31 -4.78,0.31l0,15.42l0.504,0.049c0.891,0.09 2.65,0.253 4.416,0.253c6.307,0 9.122,-4.196 9.122,-8.351c0.008,-3.82 -2.856,-7.681 -9.262,-7.681m0.355,13.509c-1.024,0 -1.849,-0.032 -2.361,-0.089l0,-10.816c0.57,-0.057 1.502,-0.09 2.154,-0.09c3.996,0 6.192,1.837 6.192,5.184c0,3.632 -2.237,5.811 -5.985,5.811" style="fill:#000;fill-rule:nonzero;"></path><path d="M161.446,37.197l-9.007,-10.415l-1.114,0l0,16.146l2.782,0l0,-10.449l8.651,10.44l1.453,0l0,-15.803l-2.765,0l0,10.081Z" style="fill:#000;fill-rule:nonzero;"></path><path d="M167.852,42.919l10.5,0l0,-2.595l-7.71,0l0,-4.318l5.737,0l1.131,-2.588l-6.868,0l0,-3.722l7.71,0l0,-2.588l-10.5,0l0,15.811Z" style="fill:#000;fill-rule:nonzero;"></path><path d="M181.481,42.919l10.5,0l0,-2.595l-7.718,0l0,-4.318l5.737,0l1.139,-2.588l-6.876,0l0,-3.722l7.718,0l0,-2.588l-10.5,0l0,15.811Z" style="fill:#000;fill-rule:nonzero;"></path><path d="M199.551,27.002c-2.74,0 -4.532,0.31 -4.532,0.31l0,15.42c0,0 1.849,0.302 4.681,0.302c6.299,0 9.122,-4.196 9.122,-8.351c0,-3.82 -2.865,-7.681 -9.271,-7.681m0.355,13.509c-0.949,0 -1.609,-0.024 -2.121,-0.089l0,-10.816c0.52,-0.057 1.23,-0.09 1.915,-0.09c3.995,0 6.191,1.837 6.191,5.184c0,3.632 -2.237,5.811 -5.985,5.811" style="fill:#000;fill-rule:nonzero;"></path><path d="M214.237,27.108l-2.79,0l0,15.811l9.419,0l0.933,-2.587l-7.562,0l0,-13.224Z" style="fill:#000;fill-rule:nonzero;"></path><path d="M125.577,26.839l-1.007,0l-7.083,16.08l2.955,0l4.607,-11.166l4.846,11.166l3.021,0l-7.339,-16.08Z" style="fill:#000;fill-rule:nonzero;"></path><path d="M101.084,31.712c0,-2.996 -2.344,-4.808 -6.422,-4.71c-4.144,0.106 -5.589,0.319 -5.589,0.319l0,15.598l2.782,0l0,-13.239c0.636,-0.049 2.369,-0.082 3.054,-0.082c2.196,0 3.261,0.726 3.261,2.22c0,1.739 -1.329,2.694 -3.74,2.694c-0.14,0 -1.147,-0.025 -1.147,-0.025l5.647,8.432l3.335,0l-4.64,-6.57c2.072,-0.768 3.459,-2.596 3.459,-4.637" style="fill:#000;fill-rule:nonzero;"></path></g><g><path d="M77.607,6.277c-4.615,0 -8.231,3.665 -8.231,8.342c0,4.669 3.55,8.326 8.082,8.326c4.615,0 8.23,-3.657 8.23,-8.326c0.009,-4.677 -3.541,-8.342 -8.081,-8.342m-0.058,14.105c-3.038,0 -5.234,-2.424 -5.234,-5.754c0,-3.331 2.204,-5.755 5.234,-5.755c2.972,0 5.217,2.473 5.217,5.755c0,3.281 -2.245,5.754 -5.217,5.754" style="fill:#000;fill-rule:nonzero;"></path><path d="M90.98,6.522l-2.79,0l0,16.187l9.699,0l1.148,-2.588l-8.057,0l0,-13.599Z" style="fill:#000;fill-rule:nonzero;"></path><path d="M59.156,10.35c1.04,-0.971 2.411,-1.477 3.946,-1.477c1.338,0 2.576,0.416 3.583,1.208l0.182,0.139l1.386,-2.457l-0.156,-0.098c-0.933,-0.588 -1.982,-1.004 -3.096,-1.216c-1.214,-0.237 -2.485,-0.229 -3.698,0c-2.378,0.457 -4.4,1.746 -5.688,3.648c-0.916,1.347 -1.404,2.906 -1.404,4.522c0,1.69 0.512,3.314 1.478,4.686c1.618,2.285 4.351,3.64 7.314,3.64c1.8,0 3.525,-0.473 4.995,-1.379l0.156,-0.098l-1.362,-2.4l-0.181,0.139c-0.991,0.767 -2.213,1.167 -3.525,1.167c-1.453,0 -2.766,-0.457 -3.781,-1.33c-1.379,-1.176 -2.171,-2.792 -2.171,-4.425c0.008,-2.097 1.271,-3.575 2.022,-4.269" style="fill:#000;fill-rule:nonzero;"></path><rect x="152.604" y="6.522" width="2.765" height="16.178" style="fill:#000;"></rect><path d="M165.747,6.261l-0.999,0l-7.339,16.448l2.963,0l4.838,-11.175l4.804,11.052l0.05,0.123l3.013,0l-7.33,-16.448Z" style="fill:#000;fill-rule:nonzero;"></path><path d="M110.619,16.701c0,2.4 -1.148,3.632 -3.418,3.681l-0.437,0l-0.388,0c-2.295,-0.041 -3.401,-1.24 -3.401,-3.673l0,-10.187l-2.766,0l0,10.22c0,3.779 2.749,6.203 6.555,6.203c3.797,0 6.645,-2.424 6.645,-6.203l0,-10.22l-2.782,0l0,10.179l-0.008,0Z" style="fill:#000;fill-rule:nonzero;"></path><path d="M147.775,14.309c1.214,-0.751 1.8,-1.894 1.8,-3.461c0,-2.204 -1.816,-4.424 -5.861,-4.424c-3.963,0 -6.794,0.286 -6.819,0.294l-0.173,0.016l0,15.803l0.181,0.017c0.033,0 3.756,0.285 6.959,0.285c4.012,0 6.109,-2.4 6.109,-4.767c-0.008,-1.722 -0.759,-3.012 -2.196,-3.763m-3.69,5.992c-0.429,0 -2.741,-0.025 -3.839,-0.074c-0.099,-0.008 -0.239,-0.008 -0.388,-0.016c-0.115,-0.008 -0.247,-0.008 -0.355,-0.016l0,-4.539c0.141,0 0.322,0 0.496,-0.008l0.247,0c1.016,-0.016 3.113,-0.025 3.435,-0.025c2.352,0 3.425,1.176 3.425,2.261c-0.008,1.494 -1.164,2.417 -3.021,2.417m-0.454,-7.053c-0.388,0 -2.386,-0.008 -3.393,-0.024l-0.338,0c-0.141,0 -0.289,0 -0.405,-0.009l0,-4.187c0.108,-0.008 0.256,-0.008 0.372,-0.016c0.14,-0.009 0.272,-0.009 0.371,-0.017c1.065,-0.049 3.22,-0.073 3.608,-0.073c1.312,0 2.864,0.375 2.864,2.138c0.017,1.396 -1.114,2.188 -3.079,2.188" style="fill:#000;fill-rule:nonzero;"></path><path d="M125.074,18.905l-7.306,-12.383l-1.395,0l0.016,16.187l2.815,0l0.008,-7.902l5.259,7.893l1.238,0l5.184,-8.391l0.042,8.4l2.806,0l0.033,-16.187l-1.411,0l-7.289,12.383Z" style="fill:#000;fill-rule:nonzero;"></path></g></g><g><rect x="56.317" y="51.09" width="1.09" height="7.804" style="fill:#000;fill-rule:nonzero;"></rect><path d="M66.734,58.894l-0.858,0l-0.033,-0.041l-4.747,-5.959l0,6l-1.065,0l0,-7.804l0.974,0l4.656,5.861l0,-5.861l1.065,0l0,7.804l0.008,0Z" style="fill:#000;fill-rule:nonzero;"></path><path d="M72.736,58.951l-0.916,0l-0.033,-0.065l-3.36,-7.787l1.213,0l2.65,6.342l2.658,-6.342l1.181,0l-3.393,7.852Z" style="fill:#000;fill-rule:nonzero;"></path><path d="M83.633,58.894l-5.82,0l0,-7.804l5.762,0l0,1.004l-4.672,0l0,2.359l4.177,0l0,1.004l-4.177,0l0,2.425l4.73,0l0,1.012Z" style="fill:#000;fill-rule:nonzero;"></path><path d="M88.734,59c-1.23,0 -2.245,-0.392 -3.203,-1.241l-0.082,-0.073l0.685,-0.8l0.091,0.081c0.825,0.743 1.568,1.045 2.551,1.045c0.941,0 1.593,-0.481 1.593,-1.175l0,-0.025c0,-0.791 -0.644,-1.069 -1.899,-1.33c-1.601,-0.343 -2.658,-0.865 -2.658,-2.294l0,-0.024c0,-1.266 1.106,-2.18 2.633,-2.18c1.09,0 1.916,0.286 2.766,0.955l0.083,0.066l-0.644,0.84l-0.091,-0.073c-0.677,-0.547 -1.354,-0.8 -2.138,-0.8c-0.892,0 -1.519,0.457 -1.519,1.11l0,0.025c0,0.62 0.305,1.004 1.989,1.363c1.808,0.392 2.584,1.061 2.584,2.253l0,0.024c-0.016,1.331 -1.131,2.253 -2.741,2.253Z" style="fill:#000;fill-rule:nonzero;"></path><path d="M96.461,58.894l-1.098,0l0,-6.783l-2.567,0l0,-1.012l6.241,0l0,1.012l-2.568,0l0,6.783l-0.008,0Z" style="fill:#000;fill-rule:nonzero;"></path><path d="M108.761,58.894l-1.089,0l0,-5.885l-2.617,3.803l-0.165,0l-2.617,-3.795l0,5.877l-1.065,0l0,-7.804l1.048,0l2.733,4.049l2.732,-4.049l1.049,0l0,7.804l-0.009,0Z" style="fill:#000;fill-rule:nonzero;"></path><path d="M116.992,58.894l-5.82,0l0,-7.804l5.762,0l0,1.004l-4.672,0l0,2.359l4.177,0l0,1.004l-4.177,0l0,2.425l4.73,0l0,1.012Z" style="fill:#000;fill-rule:nonzero;"></path><path d="M125.767,58.894l-0.859,0l-0.033,-0.041l-4.746,-5.959l0,6l-1.065,0l0,-7.804l0.974,0l4.656,5.861l0,-5.861l1.065,0l0,7.804l0.008,0Z" style="fill:#000;fill-rule:nonzero;"></path><path d="M131.306,58.894l-1.098,0l0,-6.783l-2.567,0l0,-1.012l6.241,0l0,1.012l-2.568,0l0,6.783l-0.008,0Z" style="fill:#000;fill-rule:nonzero;"></path><path d="M138.282,59c-1.23,0 -2.246,-0.392 -3.203,-1.241l-0.083,-0.073l0.685,-0.8l0.091,0.081c0.826,0.743 1.569,1.045 2.551,1.045c0.941,0 1.593,-0.481 1.593,-1.175l0,-0.025c0,-0.791 -0.644,-1.069 -1.898,-1.33c-1.602,-0.343 -2.659,-0.865 -2.659,-2.294l0,-0.024c0,-1.266 1.107,-2.18 2.634,-2.18c1.089,0 1.915,0.286 2.765,0.955l0.083,0.066l-0.644,0.84l-0.091,-0.073c-0.677,-0.547 -1.354,-0.8 -2.138,-0.8c-0.892,0 -1.519,0.457 -1.519,1.11l0,0.025c0,0.62 0.306,1.004 1.99,1.363c1.807,0.392 2.583,1.061 2.583,2.253l0,0.024c-0.016,1.331 -1.139,2.253 -2.74,2.253Z" style="fill:#000;fill-rule:nonzero;"></path></g></g><g><path d="M35.852,31.59l-7.017,6.954l2.914,10.906l7.017,-6.955l-2.914,-10.905Z" style="fill:#000;fill-rule:nonzero;"></path><path d="M49.977,31.386l-6.563,-24.864l-18.294,18.138l2.37,8.832l10.764,-10.677l4.268,15.95l7.455,-7.379Z" style="fill:#000;fill-rule:nonzero;"></path><path d="M11.144,21.027l7.042,-7.036l-11.268,-2.931l-6.918,7.069l11.144,2.898Z" style="fill:#000;fill-rule:nonzero;"></path><path d="M28.835,38.544l-13.976,-3.632l-3.715,-13.885l-11.144,-2.898l6.621,24.79l0.008,0l25.12,6.531l-2.914,-10.906Z" style="fill:#000;fill-rule:nonzero;"></path><path d="M16.254,22.358l2.361,8.832l8.875,2.302l-2.37,-8.832l-8.866,-2.302Z" style="fill:#000;fill-rule:nonzero;"></path><path d="M43.414,6.522l-25.121,-6.522l-7.454,7.379l16.246,4.22l-10.831,10.759l8.875,2.302l18.285,-18.138Z" style="fill:#000;fill-rule:nonzero;"></path></g></g></svg> 