<svg width="98" height="66" viewBox="0 0 98 66" fill="000" xmlns="http://www.w3.org/2000/svg"><g clip-path="url(#clip0_132_309)"><path d="M12.892 64.176h4.29v.915h-5.357v-7.383h5.205v.915h-4.16v5.553h.022zm-.087-3.288h3.79v.893h-3.79v-.893zm7.448 4.202v-7.382h.871l3.31 5.575h-.457l3.267-5.575h.871v7.383h-1.002v-5.793h.24l-2.918 4.9h-.48l-2.94-4.9h.262v5.793h-1.024zm11.521 0v-7.382h2.874c.654 0 1.198.109 1.656.305.457.196.805.5 1.045.893.24.392.37.85.37 1.372 0 .523-.13 1.002-.37 1.372-.24.392-.588.675-1.045.893-.458.218-1.002.305-1.656.305H32.34l.48-.501v2.722h-1.046v.022zm1.045-2.634l-.479-.523h2.265c.675 0 1.176-.152 1.524-.436.349-.283.523-.697.523-1.22 0-.522-.174-.936-.523-1.219-.348-.283-.849-.435-1.524-.435H32.34l.48-.523v4.356zm11.433 2.722c-.566 0-1.088-.087-1.568-.283a3.706 3.706 0 01-1.24-.806 3.806 3.806 0 01-.828-1.198 3.78 3.78 0 01-.305-1.502c0-.545.087-1.046.305-1.503a3.8 3.8 0 01.827-1.198c.349-.348.762-.61 1.241-.806.48-.196 1.002-.283 1.568-.283.567 0 1.09.087 1.547.283.479.196.893.458 1.241.784.348.349.632.74.828 1.198.196.457.283.958.283 1.503 0 .544-.087 1.045-.283 1.502a3.48 3.48 0 01-.828 1.198c-.348.349-.762.61-1.241.784a4.064 4.064 0 01-1.547.283v.044zm0-.937c.414 0 .784-.065 1.133-.217a2.87 2.87 0 00.915-.588 2.83 2.83 0 00.61-.893c.152-.349.217-.719.217-1.133 0-.413-.065-.784-.218-1.132a2.602 2.602 0 00-.61-.893 2.541 2.541 0 00-.914-.588 3.176 3.176 0 00-1.133-.218c-.413 0-.805.066-1.132.218-.348.13-.653.348-.915.588a3.096 3.096 0 00-.61.893 2.764 2.764 0 00-.217 1.132c0 .414.065.784.218 1.133.152.348.348.653.61.893.26.26.566.457.914.588a2.77 2.77 0 001.132.217zm8.494.849l-2.461-7.382h1.089l2.265 6.817h-.545l2.352-6.817h.98l2.309 6.817h-.523l2.287-6.817H61.5l-2.46 7.383h-1.111l-2.156-6.316h.283L53.9 65.091h-1.154zm12.609-.914h4.29v.915h-5.357v-7.383h5.205v.915h-4.16v5.553h.022zm-.087-3.288h3.79v.893h-3.79v-.893zm7.448 4.202v-7.382h2.875c.653 0 1.198.109 1.655.305.457.196.806.5 1.045.893.24.392.37.85.37 1.372 0 .523-.13 1.002-.37 1.372-.24.392-.588.675-1.045.87-.457.197-1.002.306-1.655.306h-2.309l.48-.48v2.723h-1.046v.022zm1.045-2.634l-.479-.523h2.265c.675 0 1.176-.152 1.525-.436.348-.283.522-.697.522-1.22 0-.522-.174-.936-.522-1.219-.349-.283-.85-.435-1.525-.435h-2.265l.48-.523v4.356zm3.877 2.635l-1.873-2.679h1.132l1.895 2.679h-1.154zM27.527 22.559h-9.19v28.92h9.016c10.431 0 16.094-6.271 16.094-14.743 0-8.471-5.27-14.177-15.92-14.177zm.044 24.957h-4.617V26.544h4.617c7.448 0 11.02 4.378 11.02 10.258 0 5.88-2.984 10.714-11.02 10.714zm38.568-.479c-1.045.566-2.722.958-4.878.958-6.62 0-10.693-4.573-10.693-11.063 0-6.01 3.55-10.736 11.063-10.736 3.158 0 5.924 1.045 8.036 2.156l.044-4.421c-1.895-.784-4.704-1.612-8.385-1.612-9.43 0-15.702 6.36-15.702 15.092 0 8.733 5.663 14.526 14.483 14.526 4.508 0 8.34-1.306 10.649-2.548V37.106h-4.595v9.953l-.022-.022zM0 51.458h15.484v-3.942H4.617v-8.863h9.386V34.71H4.617V26.5h10.867v-3.942H0v28.92-.021zm73.565-28.9v3.943h10.89v8.21h-9.387v3.942h9.386v8.863H73.565v3.942H89.05v-28.9H73.565z" fill="#000"/><path d="M51.722.911a3.987 3.987 0 00-3.985 3.986 3.987 3.987 0 007.971 0c0-2.2-1.786-3.986-3.986-3.986zm-7.186 15.963c-.85-3.462-3.115-6.533-6.664-6.533-.24 0-.501 0-.74.066v8.536H51.94v-8.537a4.078 4.078 0 00-.74-.065c-3.289 0-5.706 2.7-6.664 6.534zM41.312 4.876c0-2.2-1.785-3.985-3.985-3.985a3.987 3.987 0 00-3.985 3.985 3.986 3.986 0 007.97 0z" fill="#000"/><path d="M95.692 22.559c-1.285 0-2.287.936-2.287 2.243 0 1.306.98 2.243 2.287 2.243 1.306 0 2.308-.937 2.308-2.243 0-1.307-1.002-2.243-2.308-2.243zm0 4.246c-1.176 0-2.026-.87-2.026-2.025 0-1.154.85-2.004 2.026-2.004 1.176 0 2.047.893 2.047 2.004 0 1.176-.871 2.003-2.047 2.003v.022zm.87-2.417c0-.349-.282-.697-.674-.697h-.937v2.2h.327v-.784h.5l.501.784h.349l-.544-.85c.283-.065.479-.348.479-.653zm-1.284.414v-.828h.588c.196 0 .392.153.392.414 0 .24-.13.414-.37.414h-.61z" fill="#000"/></g><defs><clipPath id="clip0_132_309"><path fill="#fff" transform="translate(0 .912)" d="M0 0h98v64.266H0z"/></clipPath></defs></svg>