<svg xmlns="http://www.w3.org/2000/svg" width="153" height="55" viewBox="0 0 153 55" fill="none"><path d="M127.336 28.5799L130.196 12.5188L137.835 29.8033L145.702 12.5331L148.263 28.5799H152.374L147.367 0L137.92 20.6561L128.787 0L123.197 28.5657L127.336 28.5799ZM100.449 1.99163V19.1054C100.449 21.9079 101.317 24.2126 103.067 26.0192C105.016 28.0393 107.42 29.0494 110.279 29.0494C113.139 29.0494 115.543 28.0393 117.506 26.0192C119.242 24.2126 120.124 21.8937 120.124 19.1054V1.99163H116.112V17.9958C116.112 20.3146 115.742 21.9791 114.988 23.0033C113.879 24.5255 112.3 25.2937 110.265 25.2937C108.245 25.2937 106.68 24.5255 105.571 23.0033C104.831 21.9506 104.447 20.2862 104.447 17.9958V1.99163H100.449ZM84.8293 5.77573H86.2519C89.9506 5.77573 91.8 7.1272 91.8 9.85858C91.8 12.7607 89.8937 14.2117 86.1096 14.2117H84.8293V5.77573ZM94.0761 14.6527C95.1573 13.3013 95.6979 11.6795 95.6979 9.80167C95.6979 7.38326 94.8301 5.44853 93.123 3.98326C91.5582 2.66025 89.0259 2.00586 85.5121 2.00586H80.8176V28.5799H84.8293V17.6971H85.5548L93.1515 28.5799H98.0594L89.8368 17.2561C91.5724 16.872 93.0092 16.0042 94.0761 14.6527ZM69.3372 1.4795C64.9699 1.4795 61.3992 3.10126 58.6536 6.34477C56.4201 8.99079 55.2962 12.0067 55.2962 15.3925C55.2962 19.1623 56.6335 22.3916 59.3079 25.0661C61.9966 27.7121 65.2402 29.0494 69.0243 29.0494C71.5423 29.0494 73.9607 28.4092 76.251 27.1004V22.2636C75.5966 22.8184 74.9707 23.2879 74.3874 23.672C73.79 24.0703 73.2209 24.369 72.6803 24.5967C71.6987 25.0519 70.4895 25.2937 69.0812 25.2937C66.3498 25.2937 64.0452 24.3406 62.1674 22.4201C60.2895 20.4996 59.3506 18.1523 59.3506 15.364C59.3506 12.5473 60.2895 10.1573 62.1674 8.20837C64.031 6.24519 66.3356 5.2636 69.0669 5.2636C71.5423 5.2636 73.9464 6.23096 76.2653 8.17992V3.42845C74.0318 2.13389 71.7272 1.4795 69.3372 1.4795ZM42.4502 1.99163V28.5657H54.272V24.7958H46.4619V1.99163H42.4502ZM17.3983 1.99163V19.1054C17.3983 21.9079 18.2661 24.2126 20.0159 26.0192C21.9649 28.0393 24.369 29.0494 27.2284 29.0494C30.0879 29.0494 32.492 28.0393 34.4552 26.0192C36.205 24.2126 37.0728 21.8937 37.0728 19.1054V1.99163H33.0611V17.9958C33.0611 20.3146 32.6912 21.9791 31.9372 23.0033C30.8276 24.5255 29.2485 25.2937 27.2142 25.2937C25.1941 25.2937 23.6293 24.5255 22.5197 23.0033C21.7799 21.9506 21.3958 20.2862 21.3958 17.9958V1.99163H17.3983ZM13.2728 1.99163H0V28.5657H4.01172V15.9188H12.9456V12.149H4.01172V5.77573H13.2728V1.99163Z" fill="#000"></path><path d="M153 37.9122V34.3984H0V37.9122H75.5113L67.5874 54.0445H84.9573L77.2895 37.9122H153Z" fill="#000"></path></svg>