<?xml version="1.0" encoding="utf-8"?>
<!-- Generator: Adobe Illustrator 26.3.1, SVG Export Plug-In . SVG Version: 6.00 Build 0)  -->
<svg version="1.1" xmlns="http://www.w3.org/2000/svg" xmlns:xlink="http://www.w3.org/1999/xlink" x="0px" y="0px"
	 viewBox="0 0 271.9 108.3" style="enable-background:new 0 0 271.9 108.3;" xml:space="preserve">
<style type="text/css">
	.st0{fill:#000;}
	.st1{fill:#000;}
</style>
<g id="Layer_1">
	<path class="st0" d="M208.1,24.4L208.1,24.4c-1.7-5.6-4.9-10.5-9.1-13.8c-5-4.1-11.7-5.8-17.7-4.8c-4.7,0.8-9.4,3.3-14,7.5
		c-8.1,7.4-13.3,17.8-14.3,28.7c-1.8-7.7,0.4-15.4,2.7-20.6c2.7-6.2,6.2-11,10.4-14.1c5.1-3.8,11.3-5.1,16.7-3.6
		c2.4,0.7,4.9,1.3,5.3,0.2c0-0.1,0-0.2,0-0.3c-0.3-0.7-3.4-2-4.8-2.5c-1.8-0.6-3.6-1-5.5-1.1c-3.8-0.2-7.4,0.6-10.8,2.5
		c-5.8,3.2-11.2,9.7-14.5,17.3c-1.1,2.5-1.9,5.1-2.4,7.7c-2,10.1,0.1,20.8,5.7,29.4c3.9,6,11,12.1,19.3,12.1c0.3,0,0.7,0,1,0
		c6.3-0.4,11.8-4.2,16.8-8.2c6.2-5.1,13-11.4,15.5-19.8c0.5-1.6,0.8-3.2,1-4.9C209.7,32.3,209.3,28.3,208.1,24.4z M180.4,64.5
		c-0.2,0.1-0.5,0.2-0.7,0.3c-3.5,1.3-7.6,0.9-11.1-0.3c-1.1-0.4-2.1-0.8-3.1-1.4c-0.4-0.3-0.9-0.6-1.3-0.9c-0.2-0.2-0.4-0.3-0.5-0.5
		c-0.1-0.1-0.3-0.5-0.4-0.5c0.9,0.2,1.8,0.6,2.7,1c2.6,1.1,5.4,1.9,8.3,2.1c2.3,0.2,4.6,0,6.9-0.1C181,64.2,180.6,64.4,180.4,64.5z
		 M181.3,64.2L181.3,64.2L181.3,64.2L181.3,64.2z M199.8,38.5c-0.1,0.6-0.3,1.1-0.4,1.7c-1.4,4.8-3.7,9.5-6.9,13.9
		c-0.4,0.6-0.9,1.2-1.5,1.8c-1.1,1-2.6,1.5-3.9,2c-1,0.3-2,0.7-3,1c-7.8,2.3-16.8,0.7-23.4-4.1c-0.8-0.6-1.8-1.4-2.5-2.4
		c-1-1.4-1.3-3.2-1.5-4.7c-0.6-5.2,0-10.5,1.8-15.3c-0.1,0.5-0.1,1.1-0.1,1.6l0,0.4c0,0.4,0,0.8-0.1,1.2c0,0.4,0,0.8,0,1.2
		c0,0.4,0,0.8,0,1.2c0,0.4,0,0.8,0.1,1.2c0,0.4,0.1,0.8,0.1,1.2c0,0.4,0.1,0.8,0.1,1.2c0.1,0.4,0.1,0.8,0.2,1.2
		c0.1,0.4,0.1,0.8,0.2,1.2c0.1,0.4,0.2,0.8,0.3,1.2c0.1,0.4,0.2,0.8,0.3,1.2c0.1,0.4,0.2,0.8,0.4,1.1c0.1,0.4,0.3,0.7,0.4,1.1
		c0.1,0.4,0.3,0.7,0.5,1.1c0.2,0.3,0.3,0.7,0.5,1.1c0.2,0.3,0.4,0.7,0.6,1c0.2,0.3,0.4,0.7,0.6,1c0.2,0.3,0.4,0.7,0.7,1
		c0.2,0.3,0.5,0.6,0.7,0.9c0.2,0.3,0.5,0.6,0.8,0.9c0.3,0.3,0.6,0.6,0.8,0.8c0.1,0.1,0.2,0.2,0.4,0.3c0.2,0.1,0.4,0.1,0.7,0.2
		c0.2,0,0.5,0,0.7,0c0.2,0,0.4-0.2,0.6-0.3l0.1,0c0.1-0.1,0.2-0.2,0.3-0.4c0-0.1,0-0.3-0.1-0.4c-0.1-0.2-0.2-0.4-0.3-0.6
		c-0.1-0.2-0.3-0.3-0.4-0.5c-0.2-0.3-0.5-0.7-0.7-1.1c-0.2-0.4-0.5-0.7-0.7-1.1c-0.2-0.4-0.4-0.7-0.6-1.1c-0.2-0.4-0.4-0.8-0.6-1.1
		c-0.2-0.4-0.4-0.8-0.5-1.2c-0.2-0.4-0.3-0.8-0.5-1.2c-0.2-0.4-0.3-0.8-0.4-1.2c-0.1-0.4-0.3-0.8-0.4-1.2c-0.1-0.4-0.2-0.8-0.3-1.2
		c-0.1-0.4-0.2-0.8-0.3-1.2c-0.1-0.4-0.2-0.8-0.2-1.3c-0.1-0.4-0.1-0.8-0.2-1.3c-0.1-0.4-0.1-0.8-0.1-1.3c0-0.4-0.1-0.8-0.1-1.3
		c0-0.4,0-0.8,0-1.3c0-0.4,0-0.9,0-1.3c0-0.4,0-0.8,0.1-1.3c0-0.4,0.1-0.8,0.1-1.3c0-0.2,0.1-0.5,0.1-0.7c1-6.2,4-12.2,8.6-16.8
		c4.4-4.5,13-7.7,19.5-5.3c4.2,1.5,7.5,5.6,9.2,11.3C201.1,26.7,201.2,32.6,199.8,38.5z M206.6,33.6c0,0.8-0.1,1.6-0.2,2.3
		c-0.7,4.8-2.9,9.3-6.1,12.7c2.9-7.1,4.1-13.4,3.7-19.2c0-0.4-0.1-0.7-0.1-1.1c-0.1-1.1-0.1-2.2-0.3-3.3c-0.2-1.2-0.5-2.5-0.8-3.5
		l-0.1-0.4c-0.2-0.6-0.4-1.5-0.7-2.2c-0.1-0.2-0.4-1.2-0.7-1.8c0,0,0.1,0.1,0.1,0.1c0.2,0.1,0.7,0.6,0.8,0.7
		c1.1,1.4,1.7,2.7,2.3,4.2C206.1,26.3,206.8,29.9,206.6,33.6z"/>
	<g>
		<path class="st0" d="M32.7,22.6c-3.4-4.4-8.1-6.9-13.4-6.9C6.8,15.7,0,26.7,0,37.1c0,15.2,10.2,22.1,19.7,22.1
			c5,0,9.7-2.4,13.1-6.5v10.9c0,9.9-3.1,14-10.8,14c-7,0-11.3-4.1-11.3-10.6v-0.6H1.8l0,0.6C2,78.1,9.9,85.6,21.6,85.6
			c17.7,0,20-12.9,20-24.2V16.9h-8.9V22.6z M33.1,37.4c0,6.9-3.8,13.8-12.3,13.8c-7.8,0-12-7-12-13.8c0-6.8,4.1-13.6,12-13.6
			C29.3,23.7,33.1,30.8,33.1,37.4z"/>
		<path class="st0" d="M84.1,43.8c-2.7,4.5-5.7,7.4-11.4,7.4c-7,0-11-6-11.3-11.9h30.3v-1.8c0-13.4-7.4-21.8-19.2-21.8
			c-12.3,0-20,8.4-20,22c0,12.7,8.3,21.5,20.2,21.5c8.1,0,15.2-4.2,19-11.2l0.3-0.5l-7.5-4.3L84.1,43.8z M61.9,32.3
			c1.2-5.2,5.3-8.7,10.5-8.7c5.3,0,9.1,3.2,10.2,8.7H61.9z"/>
		<path class="st0" d="M124.7,15.7c-4.7,0-9,2-11.5,5.4v-4.2h-8.9v41h8.9V39c0-7.2,0-15.3,9.2-15.3c6.9,0,8.1,3.5,8.1,10.8v23.4h8.9
			V33.6C139.4,25.9,137.9,15.7,124.7,15.7z"/>
		<path class="st0" d="M250.2,16.9v5.5c-3.4-4.4-8.1-6.7-13.3-6.7c-12.6,0-19.4,11-19.4,21.4c0,15.2,10.2,22.1,19.7,22.1
			c5,0,9.7-2.4,13.1-6.5v5.2h8.9v-41H250.2z M250.6,37.4c0,6.9-3.8,13.8-12.3,13.8c-7.8,0-11.9-7-11.9-13.8
			c0-6.8,4.1-13.6,11.9-13.6C246.7,23.7,250.6,30.8,250.6,37.4z"/>
	</g>
	<g>
		<path class="st1" d="M75.3,75.7v16l0.1,0.1c1.3-1.8,3-2.7,5.2-2.7c5.1,0,6.2,3.7,6.2,7.9v10.9h-3.1V97.5c0-3-0.2-5.6-3.9-5.6
			c-4.3,0-4.6,4-4.6,7.2v8.7h-3.1V75.7H75.3z"/>
		<path class="st1" d="M95.9,99.4c0,3.4,2.5,6.1,6,6.1c2.6,0,4.4-1.6,5.6-3.8l2.6,1.5c-1.8,3.3-4.7,5.1-8.4,5.1c-5.4,0-9-4.2-9-9.4
			c0-5.4,3.2-9.9,8.9-9.9c5.9,0,9,4.9,8.7,10.3H95.9z M107,96.7c-0.4-2.6-2.6-4.8-5.4-4.8c-2.7,0-5.2,2.1-5.6,4.8H107z"/>
		<path class="st1" d="M132.9,107.8h-3.1v-2.5h-0.1c-1.6,2-3.7,3-6.3,3c-5.4,0-8.8-4.6-8.8-9.6c0-5.2,3.3-9.7,8.8-9.7
			c2.5,0,4.7,1.2,6.3,3.1h0.1v-2.6h3.1V107.8z M117.8,98.5c0,3.6,2.1,7,6,7c4,0,6.1-3.2,6.1-6.9c0-3.7-2.3-6.6-6.2-6.6
			C120.2,91.9,117.8,95.1,117.8,98.5z"/>
		<path class="st1" d="M143.3,107.8h-3.1V75.7h3.1V107.8z"/>
		<path class="st1" d="M154,107.8h-3.1V92.4H149v-2.9h1.9V83h3.1v6.6h3.3v2.9H154V107.8z"/>
		<path class="st1" d="M164.8,75.7v16l0.1,0.1c1.3-1.8,3-2.7,5.2-2.7c5.1,0,6.2,3.7,6.2,7.9v10.9h-3.1V97.5c0-3-0.2-5.6-3.9-5.6
			c-4.3,0-4.6,4-4.6,7.2v8.7h-3.1V75.7H164.8z"/>
		<path class="st1" d="M197.5,95L197.5,95c-1.5-1.8-3.3-3.1-5.8-3.1c-3.8,0-6.5,3.1-6.5,6.8c0,3.6,2.5,6.8,6.3,6.8
			c2.6,0,4.4-1.2,6-3.2h0.1v4.2c-1.8,1.2-3.6,1.9-5.8,1.9c-5.5,0-9.7-4.1-9.7-9.7c0-5.5,4.4-9.7,9.8-9.7c2,0,4,0.7,5.6,1.8V95z"/>
		<path class="st1" d="M220.8,107.8h-3.1v-2.5h-0.1c-1.6,2-3.7,3-6.3,3c-5.4,0-8.8-4.6-8.8-9.6c0-5.2,3.3-9.7,8.8-9.7
			c2.5,0,4.7,1.2,6.3,3.1h0.1v-2.6h3.1V107.8z M205.7,98.5c0,3.6,2.1,7,6,7c4,0,6.1-3.2,6.1-6.9c0-3.7-2.3-6.6-6.2-6.6
			C208.1,91.9,205.7,95.1,205.7,98.5z"/>
		<path class="st1" d="M231.1,91.5L231.1,91.5c1.2-1.4,2.1-2.5,4.1-2.5c1.1,0,1.9,0.3,2.8,0.9l-1.5,2.8c-0.6-0.4-1.1-0.8-1.9-0.8
			c-3.4,0-3.6,4.4-3.6,6.8v9.1H228V89.5h3.1V91.5z"/>
		<path class="st1" d="M244.4,99.4c0,3.4,2.5,6.1,6,6.1c2.6,0,4.4-1.6,5.6-3.8l2.6,1.5c-1.8,3.3-4.7,5.1-8.4,5.1c-5.4,0-9-4.2-9-9.4
			c0-5.4,3.2-9.9,8.9-9.9c5.9,0,9,4.9,8.7,10.3H244.4z M255.5,96.7c-0.4-2.6-2.6-4.8-5.4-4.8c-2.7,0-5.2,2.1-5.6,4.8H255.5z"/>
	</g>
</g>
<g id="Layer_2">
	<g>
		<path class="st1" d="M262.2,93.9c0-2.7,2.1-4.9,4.9-4.9c2.7,0,4.9,2.2,4.9,4.9c0,2.7-2.2,4.9-4.9,4.9
			C264.3,98.8,262.2,96.6,262.2,93.9z M270.8,93.9c0-2.2-1.6-3.7-3.7-3.7c-2.1,0-3.7,1.5-3.7,3.7c0,2.2,1.6,3.7,3.7,3.7
			C269.1,97.6,270.8,96.1,270.8,93.9z M269.4,96.4h-1.2l-1.1-2.1h-0.8v2.1h-1.1v-5h2.5c1.2,0,2,0.2,2,1.5c0,0.9-0.5,1.3-1.4,1.4
			L269.4,96.4z M267.6,93.5c0.6,0,0.9-0.1,0.9-0.8c0-0.5-0.6-0.5-1.1-0.5h-1.1v1.3H267.6z"/>
	</g>
</g>
</svg>
