<?xml version="1.0" encoding="utf-8"?>
<!-- Generator: Adobe Illustrator 19.2.1, SVG Export Plug-In . SVG Version: 6.00 Build 0)  -->
<svg version="1.1" id="layer" xmlns="http://www.w3.org/2000/svg" xmlns:xlink="http://www.w3.org/1999/xlink" x="0px" y="0px"
	 viewBox="0 0 652 652" style="enable-background:new 0 0 652 652;" xml:space="preserve">
<style type="text/css">
	.st0{fill-rule:evenodd;clip-rule:evenodd;fill:#000;}
</style>
<g>
	<path class="st0" d="M594.6,296c-54.1,1.8-54.6,59-54.6,59c-0.9,20.1,9.7,33.4,34.4,33.2c28.6-0.2,46.2-12.9,46.2-12.9l-7.6,21.1
		c-21.7,14.5-45.8,13.1-50.1,12.8c-57.6-3.5-53.8-52.3-53.8-52.3c2.7-76.4,72.6-81.4,85.3-81.6c9.6-0.1,18.6,1.3,26,2.8l-7.5,18.8
		C604.4,295.6,600,295.8,594.6,296 M489.1,400.4l-32.5,10.1l3.3-15.6h-0.2c-3.9,4-17.4,14.4-38.6,14.4
		c-22.1-0.1-36.2-13.4-36.5-29.4c-1.2-58.5,88.1-53.7,88.1-53.7s2.6-8.4,2.8-14.9c0.3-11.4-11.9-13-22.9-12.5
		c-27,1.2-49.2,15.1-49.2,15.1l8.1-21.3c27.5-16.7,48.6-16.2,48.6-16.2c55.5-1,45.5,42.2,44.2,48.6
		C502.3,335.3,489.1,400.4,489.1,400.4 M411.7,372.6c0,0-0.9,15.3,19.3,15.3c17.2,0,26.9-9.6,30.5-15.3c3.5-5.6,6.5-14.2,8-26.9
		C469.5,345.7,413.2,342.8,411.7,372.6 M385,310.6h-27.5l-10.4,52.7c-2.8,13.2-5.3,27.6,10.8,27.6c11.8,0,22-6.5,22-6.5l-6.2,15.7
		c-4.1,3.3-13.8,8.8-29.6,9c-37.5,0.4-31.9-28.3-30.7-34.4c1-5.4,12.5-63.2,12.5-63.2H303l8.1-20.7h18.8l3.2-15.3
		c11.4-7.9,23.5-11.5,29.3-12.8c5.2-1.1,4,3.8,4,3.8l-5,23.6H393L385,310.6z M208.9,350.7c-2.3,19,4.9,36.5,32,37.3
		c28.6,0.8,48.6-12.6,48.6-12.6l-7.7,21.1c0,0-21.5,15.3-52.2,12.4c-57.5-5.3-53-53.3-49.9-68c14.8-68.4,71.3-65.6,71.3-65.6
		c13.6,0,36.7,3.4,44.2,28.4c6,19.8-0.7,47-0.7,47H208.9z M250.3,298.8c-27.1,0.1-36.8,31.7-36.8,31.7h56.1
		C270.3,323.6,274.8,298.8,250.3,298.8 M114.3,309h62.1l-15.2,77c-14.6,16.1-37.5,24.7-65.6,24.4c-66.5-0.7-75.4-53.5-75-73.8
		c0.7-32.3,14-59.7,37.2-78.8c20.3-16.6,46-25.5,76.5-25.5c13.2,0,20.4,0.7,30.7,1.8l-9.3,23.6c-6.9-0.5-12.1-0.8-17.7-0.8
		c-10.8,0-21,0.8-34.1,5.1C86.6,268,56,289.9,55.3,335c-0.9,58.9,60.7,50.3,76,38.3c0.5-2.5,8.8-43.1,8.8-43.1l0.2-1h-33.9
		L114.3,309z"/>
</g>
</svg>
