<svg class="custom-logo style-svg replaced-svg svg-replaced-0" id="svg-replaced-0" fill="none" viewBox="0 0 109 59" height="59" width="109" xmlns="http://www.w3.org/2000/svg">
<path fill="#000" d="M15.2879 9.02398C17.3039 9.02398 19.0959 9.47198 20.6639 10.368C22.2319 11.232 23.4479 12.528 24.3119 14.256C25.2079 15.952 25.6559 18 25.6559 20.4V36H18.9359V21.312C18.9359 19.2 18.4079 17.584 17.3519 16.464C16.2959 15.312 14.8559 14.736 13.0319 14.736C11.1759 14.736 9.70389 15.312 8.61589 16.464C7.55989 17.584 7.03189 19.2 7.03189 21.312V36H0.311888V0.47998H7.03189V12.72C7.89589 11.568 9.04789 10.672 10.4879 10.032C11.9279 9.35998 13.5279 9.02398 15.2879 9.02398Z"></path>
<path fill="#000" d="M28.5839 22.608C28.5839 19.92 29.1119 17.536 30.1679 15.456C31.2559 13.376 32.7119 11.776 34.5359 10.656C36.3919 9.53598 38.4559 8.97598 40.7279 8.97598C42.7119 8.97598 44.4399 9.37598 45.9119 10.176C47.4159 10.976 48.6159 11.984 49.5119 13.2V9.40798H56.2799V36H49.5119V32.112C48.6479 33.36 47.4479 34.4 45.9119 35.232C44.4079 36.032 42.6639 36.432 40.6799 36.432C38.4399 36.432 36.3919 35.856 34.5359 34.704C32.7119 33.552 31.2559 31.936 30.1679 29.856C29.1119 27.744 28.5839 25.328 28.5839 22.608ZM49.5119 22.704C49.5119 21.072 49.1919 19.68 48.5519 18.528C47.9119 17.344 47.0479 16.448 45.9599 15.84C44.8719 15.2 43.7039 14.88 42.4559 14.88C41.2079 14.88 40.0559 15.184 38.9999 15.792C37.9439 16.4 37.0799 17.296 36.4079 18.48C35.7679 19.632 35.4479 21.008 35.4479 22.608C35.4479 24.208 35.7679 25.616 36.4079 26.832C37.0799 28.016 37.9439 28.928 38.9999 29.568C40.0879 30.208 41.2399 30.528 42.4559 30.528C43.7039 30.528 44.8719 30.224 45.9599 29.616C47.0479 28.976 47.9119 28.08 48.5519 26.928C49.1919 25.744 49.5119 24.336 49.5119 22.704Z"></path>
<path fill="#000" d="M68.0319 0.47998V36H61.3119V0.47998H68.0319Z"></path>
<path fill="#000" d="M84.1199 36.432C81.5599 36.432 79.2559 35.872 77.2079 34.752C75.1599 33.6 73.5439 31.984 72.3599 29.904C71.2079 27.824 70.6319 25.424 70.6319 22.704C70.6319 19.984 71.2239 17.584 72.4079 15.504C73.6239 13.424 75.2719 11.824 77.3519 10.704C79.4319 9.55198 81.7519 8.97598 84.3119 8.97598C86.8719 8.97598 89.1919 9.55198 91.2719 10.704C93.3519 11.824 94.9839 13.424 96.1679 15.504C97.3839 17.584 97.9919 19.984 97.9919 22.704C97.9919 25.424 97.3679 27.824 96.1199 29.904C94.9039 31.984 93.2399 33.6 91.1279 34.752C89.0479 35.872 86.7119 36.432 84.1199 36.432ZM84.1199 30.576C85.3359 30.576 86.4719 30.288 87.5279 29.712C88.6159 29.104 89.4799 28.208 90.1199 27.024C90.7599 25.84 91.0799 24.4 91.0799 22.704C91.0799 20.176 90.4079 18.24 89.0639 16.896C87.7519 15.52 86.1359 14.832 84.2159 14.832C82.2959 14.832 80.6799 15.52 79.3679 16.896C78.0879 18.24 77.4479 20.176 77.4479 22.704C77.4479 25.232 78.0719 27.184 79.3199 28.56C80.5999 29.904 82.1999 30.576 84.1199 30.576Z"></path>
<path fill="#000" d="M104.288 36.336C103.072 36.336 102.064 35.968 101.264 35.232C100.496 34.464 100.112 33.52 100.112 32.4C100.112 31.28 100.496 30.352 101.264 29.616C102.064 28.848 103.072 28.464 104.288 28.464C105.472 28.464 106.448 28.848 107.216 29.616C107.984 30.352 108.368 31.28 108.368 32.4C108.368 33.52 107.984 34.464 107.216 35.232C106.448 35.968 105.472 36.336 104.288 36.336Z"></path>
<path fill="#000" d="M5.44488 50.346C5.95621 50.4413 6.37654 50.697 6.70588 51.113C7.03521 51.529 7.19988 52.0056 7.19988 52.543C7.19988 53.0283 7.07854 53.4573 6.83588 53.83C6.60188 54.194 6.25954 54.48 5.80888 54.688C5.35821 54.896 4.82521 55 4.20988 55H0.296875V45.926H4.04088C4.65621 45.926 5.18488 46.0256 5.62688 46.225C6.07754 46.4243 6.41554 46.7016 6.64088 47.057C6.87488 47.4123 6.99188 47.8153 6.99188 48.266C6.99188 48.7946 6.84888 49.2366 6.56287 49.592C6.28554 49.9473 5.91288 50.1986 5.44488 50.346ZM2.11688 49.67H3.78088C4.21421 49.67 4.54788 49.5746 4.78188 49.384C5.01588 49.1846 5.13287 48.903 5.13287 48.539C5.13287 48.175 5.01588 47.8933 4.78188 47.694C4.54788 47.4946 4.21421 47.395 3.78088 47.395H2.11688V49.67ZM3.94988 53.518C4.39188 53.518 4.73421 53.414 4.97688 53.206C5.22821 52.998 5.35388 52.7033 5.35388 52.322C5.35388 51.932 5.22388 51.6286 4.96388 51.412C4.70388 51.1866 4.35288 51.074 3.91087 51.074H2.11688V53.518H3.94988Z"></path>
<path fill="#000" d="M15.5404 47.798L11.0814 58.406H9.14439L10.7044 54.818L7.81839 47.798H9.85939L11.7184 52.829L13.6034 47.798H15.5404Z"></path>
<path fill="#000" d="M22.5089 55.091C21.6595 55.091 20.8795 54.8916 20.1689 54.493C19.4582 54.0943 18.8949 53.544 18.4789 52.842C18.0629 52.1313 17.8549 51.3296 17.8549 50.437C17.8549 49.553 18.0629 48.76 18.4789 48.058C18.8949 47.3473 19.4582 46.7926 20.1689 46.394C20.8795 45.9953 21.6595 45.796 22.5089 45.796C23.3669 45.796 24.1469 45.9953 24.8489 46.394C25.5595 46.7926 26.1185 47.3473 26.5259 48.058C26.9419 48.76 27.1499 49.553 27.1499 50.437C27.1499 51.3296 26.9419 52.1313 26.5259 52.842C26.1185 53.544 25.5595 54.0943 24.8489 54.493C24.1382 54.8916 23.3582 55.091 22.5089 55.091ZM22.5089 53.466C23.0549 53.466 23.5359 53.3446 23.9519 53.102C24.3679 52.8506 24.6929 52.4953 24.9269 52.036C25.1609 51.5766 25.2779 51.0436 25.2779 50.437C25.2779 49.8303 25.1609 49.3016 24.9269 48.851C24.6929 48.3916 24.3679 48.0406 23.9519 47.798C23.5359 47.5553 23.0549 47.434 22.5089 47.434C21.9629 47.434 21.4775 47.5553 21.0529 47.798C20.6369 48.0406 20.3119 48.3916 20.0779 48.851C19.8439 49.3016 19.7269 49.8303 19.7269 50.437C19.7269 51.0436 19.8439 51.5766 20.0779 52.036C20.3119 52.4953 20.6369 52.8506 21.0529 53.102C21.4775 53.3446 21.9629 53.466 22.5089 53.466Z"></path>
<path fill="#000" d="M29.6739 48.916C29.9079 48.5346 30.2112 48.2356 30.5839 48.019C30.9652 47.8023 31.3986 47.694 31.8839 47.694V49.605H31.4029C30.8309 49.605 30.3976 49.7393 30.1029 50.008C29.8169 50.2766 29.6739 50.7446 29.6739 51.412V55H27.8539V47.798H29.6739V48.916Z"></path>
<path fill="#000" d="M41.0529 47.694C41.5989 47.694 42.0842 47.8153 42.5089 48.058C42.9336 48.292 43.2629 48.643 43.4969 49.111C43.7396 49.5703 43.8609 50.125 43.8609 50.775V55H42.0409V51.022C42.0409 50.45 41.8979 50.0123 41.6119 49.709C41.3259 49.397 40.9359 49.241 40.4419 49.241C39.9392 49.241 39.5406 49.397 39.2459 49.709C38.9599 50.0123 38.8169 50.45 38.8169 51.022V55H36.9969V45.38H38.8169V48.695C39.0509 48.383 39.3629 48.1403 39.7529 47.967C40.1429 47.785 40.5762 47.694 41.0529 47.694Z"></path>
<path fill="#000" d="M51.6366 51.243C51.6366 51.503 51.6193 51.737 51.5846 51.945H46.3196C46.3629 52.465 46.5449 52.8723 46.8656 53.167C47.1863 53.4616 47.5806 53.609 48.0486 53.609C48.7246 53.609 49.2056 53.3186 49.4916 52.738H51.4546C51.2466 53.4313 50.8479 54.0033 50.2586 54.454C49.6693 54.896 48.9456 55.117 48.0876 55.117C47.3943 55.117 46.7703 54.9653 46.2156 54.662C45.6696 54.35 45.2406 53.9123 44.9286 53.349C44.6253 52.7856 44.4736 52.1356 44.4736 51.399C44.4736 50.6536 44.6253 49.9993 44.9286 49.436C45.2319 48.8726 45.6566 48.4393 46.2026 48.136C46.7486 47.8326 47.3769 47.681 48.0876 47.681C48.7723 47.681 49.3833 47.8283 49.9206 48.123C50.4666 48.4176 50.8869 48.838 51.1816 49.384C51.4849 49.9213 51.6366 50.541 51.6366 51.243ZM49.7516 50.723C49.7429 50.255 49.5739 49.8823 49.2446 49.605C48.9153 49.319 48.5123 49.176 48.0356 49.176C47.5849 49.176 47.2036 49.3146 46.8916 49.592C46.5883 49.8606 46.4019 50.2376 46.3326 50.723H49.7516Z"></path>
<path fill="#000" d="M56.306 47.694C57.164 47.694 57.8574 47.967 58.3861 48.513C58.9147 49.0503 59.1791 49.8043 59.1791 50.775V55H57.3591V51.022C57.3591 50.45 57.216 50.0123 56.93 49.709C56.644 49.397 56.2541 49.241 55.7601 49.241C55.2574 49.241 54.8587 49.397 54.5641 49.709C54.2781 50.0123 54.1351 50.45 54.1351 51.022V55H52.3151V47.798H54.1351V48.695C54.3777 48.383 54.6854 48.1403 55.0581 47.967C55.4394 47.785 55.8554 47.694 56.306 47.694Z"></path>
<path fill="#000" d="M66.9548 51.243C66.9548 51.503 66.9374 51.737 66.9028 51.945H61.6378C61.6811 52.465 61.8631 52.8723 62.1838 53.167C62.5044 53.4616 62.8988 53.609 63.3668 53.609C64.0428 53.609 64.5238 53.3186 64.8098 52.738H66.7728C66.5648 53.4313 66.1661 54.0033 65.5768 54.454C64.9874 54.896 64.2638 55.117 63.4058 55.117C62.7124 55.117 62.0884 54.9653 61.5338 54.662C60.9878 54.35 60.5588 53.9123 60.2468 53.349C59.9434 52.7856 59.7918 52.1356 59.7918 51.399C59.7918 50.6536 59.9434 49.9993 60.2468 49.436C60.5501 48.8726 60.9748 48.4393 61.5208 48.136C62.0668 47.8326 62.6951 47.681 63.4058 47.681C64.0904 47.681 64.7014 47.8283 65.2388 48.123C65.7848 48.4176 66.2051 48.838 66.4998 49.384C66.8031 49.9213 66.9548 50.541 66.9548 51.243ZM65.0698 50.723C65.0611 50.255 64.8921 49.8823 64.5628 49.605C64.2334 49.319 63.8304 49.176 63.3538 49.176C62.9031 49.176 62.5218 49.3146 62.2098 49.592C61.9064 49.8606 61.7201 50.2376 61.6508 50.723H65.0698Z"></path>
<path fill="#000" d="M68.4392 55.091C68.1099 55.091 67.8369 54.9913 67.6202 54.792C67.4122 54.584 67.3082 54.3283 67.3082 54.025C67.3082 53.7216 67.4122 53.4703 67.6202 53.271C67.8369 53.063 68.1099 52.959 68.4392 52.959C68.7599 52.959 69.0242 53.063 69.2322 53.271C69.4402 53.4703 69.5442 53.7216 69.5442 54.025C69.5442 54.3283 69.4402 54.584 69.2322 54.792C69.0242 54.9913 68.7599 55.091 68.4392 55.091Z"></path>
<path fill="#000" d="M35.3001 46H33.5001V47.6999H32.4V49.3999H33.5001V55H35.3001V49.3999H36.4V47.6999H35.3001V46Z"></path>
</svg>