<svg width="286" height="60" viewBox="0 0 286 60" fill="#000" xmlns="http://www.w3.org/2000/svg"><g clip-path="url(#clip0)"><path d="M28.6405 55.7132C26.4789 55.7132 24.7227 53.9721 24.7227 51.8292C24.7227 49.6864 26.4789 47.9453 28.6405 47.9453C30.802 47.9453 32.5583 49.6864 32.5583 51.8292C32.6258 53.9721 30.802 55.7132 28.6405 55.7132Z" fill="#000"></path><path d="M52.3493 42.456C52.3493 44.5989 50.593 46.34 48.4315 46.34C46.2699 46.34 44.5137 44.5989 44.5137 42.456C44.5137 40.3132 46.2699 38.5721 48.4315 38.5721C50.593 38.5052 52.3493 40.3132 52.3493 42.456Z" fill="#000"></path><path d="M53.4979 25.3128C51.3363 25.3128 49.5801 23.5717 49.5801 21.4288C49.5801 19.286 51.3363 17.5449 53.4979 17.5449C55.6594 17.5449 57.4157 19.286 57.4157 21.4288C57.4157 23.5717 55.6594 25.3128 53.4979 25.3128Z" fill="#000"></path><path d="M8.64632 46.0042C6.48477 46.0042 4.72852 44.2631 4.72852 42.1203C4.72852 39.9774 6.48477 38.2363 8.64632 38.2363C10.8079 38.2363 12.5641 39.9774 12.5641 42.1203C12.6317 44.2631 10.8754 46.0042 8.64632 46.0042Z" fill="#000"></path><path d="M3.91781 24.9768C1.75626 24.9768 0 23.2358 0 21.0929C0 18.9501 1.75626 17.209 3.91781 17.209C6.07936 17.209 7.83562 18.9501 7.83562 21.0929C7.83562 23.2358 6.07936 24.9768 3.91781 24.9768Z" fill="#000"></path><path d="M17.9686 7.76786C15.807 7.76786 14.0508 6.02679 14.0508 3.88393C14.0508 1.74107 15.807 0 17.9686 0C20.1301 0 21.8864 1.74107 21.8864 3.88393C21.8864 6.02679 20.1301 7.76786 17.9686 7.76786Z" fill="#000"></path><path d="M39.7186 7.90262C37.557 7.90262 35.8008 6.16155 35.8008 4.01869C35.8008 1.87584 37.557 0.134766 39.7186 0.134766C41.8801 0.134766 43.6364 1.87584 43.6364 4.01869C43.6364 6.16155 41.8801 7.90262 39.7186 7.90262Z" fill="#000"></path><path d="M90.3804 42.3889C90.1777 41.5854 89.84 40.8488 89.4347 40.1791C89.0294 39.5095 88.6241 38.9068 88.0837 38.4381C87.5433 37.9693 86.9354 37.5675 86.2599 37.2997C85.5844 37.0318 84.8414 36.8979 83.9633 36.8979C82.8825 36.8979 81.9368 37.0988 81.1938 37.5006C80.4507 37.9023 79.7753 38.505 79.3024 39.2416C78.8296 39.9782 78.4918 40.7818 78.2217 41.7193C78.019 42.6568 77.8839 43.6613 77.8839 44.7327C77.8839 45.8041 78.019 46.8086 78.2892 47.7461C78.5594 48.6836 78.9647 49.5541 79.5726 50.2907C80.113 51.0273 80.856 51.5631 81.6666 52.0318C82.4772 52.4336 83.4904 52.7014 84.5712 52.7014C86.1924 52.7014 87.6109 52.2997 88.8268 51.4961C90.0426 50.6925 91.0559 49.5541 92.0015 48.1479L92.677 48.6836C92.0691 49.5541 91.4611 50.3577 90.8532 51.0273C90.2453 51.697 89.5698 52.2997 88.8943 52.7684C88.2188 53.2372 87.4082 53.572 86.5977 53.8398C85.7871 54.1077 84.8414 54.2416 83.7606 54.2416C82.5448 54.2416 81.464 54.0407 80.3832 53.572C79.3024 53.1032 78.3568 52.5006 77.6137 51.697C76.8031 50.8934 76.1952 49.9559 75.7224 48.8175C75.2495 47.6791 75.0469 46.4738 75.0469 45.1345C75.0469 43.7952 75.2495 42.5898 75.7224 41.4515C76.1952 40.3131 76.8031 39.3756 77.6137 38.572C78.4243 37.7684 79.37 37.1657 80.3832 36.697C81.464 36.2282 82.5448 36.0273 83.7606 36.0273C84.4361 36.0273 85.044 36.0943 85.5844 36.1613C86.1248 36.2282 86.6652 36.2952 87.2056 36.4291C87.746 36.4961 88.2188 36.63 88.6917 36.697C89.1645 36.764 89.6373 36.8309 90.1102 36.8309C90.1102 37.2327 90.1102 37.6345 90.1777 38.1032C90.1777 38.572 90.2453 39.1077 90.3128 39.6434C90.3804 40.1791 90.4479 40.6479 90.4479 41.1836C90.5155 41.6523 90.583 42.1211 90.583 42.4559H90.3804V42.3889Z" fill="000"></path><path d="M93.9605 45.8717C94.0956 45.3359 94.2982 44.8672 94.5684 44.5993C94.8386 44.2645 95.1088 43.9967 95.4466 43.8627C95.7843 43.7288 96.1896 43.5949 96.5949 43.5279C97.0002 43.4609 97.473 43.4609 97.9458 43.4609C98.4187 43.4609 98.8915 43.5279 99.2968 43.5949C99.7697 43.6618 100.175 43.8627 100.513 44.0636C100.85 44.2645 101.188 44.5993 101.391 45.0011C101.593 45.4029 101.729 45.8717 101.729 46.4074V51.2958C101.729 51.6306 101.796 51.8984 101.999 52.1663C102.201 52.4342 102.472 52.5681 102.809 52.5681C103.147 52.5681 103.485 52.4342 103.755 52.2333C104.025 52.0324 104.295 51.8315 104.566 51.6306L104.836 51.8984C104.633 52.0993 104.43 52.3002 104.228 52.5011C103.958 52.769 103.755 52.9699 103.485 53.1708C103.215 53.3717 102.944 53.5725 102.674 53.7065C102.404 53.8404 102.134 53.9074 101.864 53.9074C101.661 53.9074 101.526 53.8404 101.323 53.7065C101.121 53.5725 100.918 53.4386 100.783 53.3047C100.58 53.1708 100.445 52.9699 100.242 52.8359C100.107 52.6351 99.9723 52.5011 99.8372 52.3672C99.2968 52.769 98.6213 53.1038 97.9458 53.4386C97.2704 53.7734 96.5273 53.9074 95.8518 53.9074C95.4465 53.9074 95.1088 53.8404 94.7711 53.7065C94.4333 53.5725 94.0956 53.4386 93.8254 53.1708C93.5552 52.9699 93.3526 52.702 93.2175 52.3672C93.0824 52.0324 92.9473 51.6975 92.9473 51.2958C92.9473 50.5592 93.1499 50.0234 93.5552 49.5547C93.9605 49.1529 94.5009 48.8181 95.1088 48.5502C95.7843 48.3493 96.4598 48.1484 97.3379 48.0815C98.1485 48.0145 98.9591 47.9475 99.8372 47.9475V45.9386C99.8372 45.269 99.6346 44.8002 99.2293 44.4654C98.824 44.1306 98.2836 43.9297 97.6757 43.9297C97.2028 43.9297 96.8651 44.1306 96.5949 44.5993C96.3247 45.0681 96.1896 45.6038 96.1896 46.1395L93.9605 45.8717ZM99.7021 49.0859C99.0942 48.952 98.5538 48.8181 97.9458 48.8181C97.6081 48.8181 97.2704 48.885 96.9326 48.952C96.5949 49.019 96.3247 49.1529 96.0545 49.3538C95.7843 49.5547 95.5816 49.7556 95.379 50.0234C95.2439 50.2913 95.1088 50.6261 95.1088 51.0279C95.1088 51.6306 95.3115 52.0324 95.7167 52.3002C96.122 52.5681 96.5949 52.702 97.1353 52.702C97.6757 52.702 98.216 52.5681 98.6889 52.3672C99.1617 52.1663 99.4995 51.9654 99.7021 51.7645V49.0859Z" fill="000"></path><path d="M108.822 57.5898C108.822 57.9916 108.822 58.3265 108.889 58.5943C108.957 58.8622 109.092 59.0631 109.295 59.197C109.497 59.3309 109.835 59.4648 110.308 59.5318C110.713 59.5988 111.321 59.6657 112.132 59.6657V60.0006C111.456 59.9336 110.848 59.9336 110.173 59.9336C109.497 59.9336 108.889 59.9336 108.214 59.9336C107.606 59.9336 106.998 59.9336 106.39 59.9336C105.782 59.9336 105.174 60.0006 104.566 60.0006V59.6657C104.972 59.5988 105.242 59.5988 105.512 59.5318C105.782 59.4648 105.985 59.3979 106.188 59.264C106.39 59.13 106.525 58.9291 106.593 58.7282C106.66 58.4604 106.728 58.1925 106.728 57.7907V46.2729C106.728 45.5363 106.593 45.0675 106.255 44.7997C105.985 44.5318 105.445 44.3979 104.702 44.3309V44.0631L108.754 43.6613V44.7997C109.362 44.3309 109.97 43.9961 110.578 43.7952C111.119 43.5943 111.794 43.5273 112.605 43.5273C113.415 43.5273 114.091 43.6613 114.699 43.9291C115.307 44.197 115.847 44.5318 116.32 45.0675C116.725 45.5363 117.063 46.072 117.333 46.7416C117.603 47.4113 117.671 48.0809 117.671 48.8845C117.671 49.6881 117.536 50.4247 117.198 51.0273C116.86 51.697 116.455 52.2327 115.982 52.6345C115.442 53.1032 114.834 53.4381 114.158 53.7059C113.483 53.9738 112.74 54.0407 111.997 54.0407C111.456 54.0407 110.916 53.9738 110.376 53.8398C109.835 53.7059 109.362 53.505 108.889 53.1702V57.5898H108.822ZM108.822 51.2282C109.025 51.764 109.43 52.2327 110.038 52.6345C110.646 53.0363 111.321 53.2372 112.132 53.2372C113.213 53.2372 114.023 52.8354 114.564 52.0318C115.104 51.2282 115.374 50.1568 115.374 48.8845C115.374 48.3488 115.307 47.8131 115.171 47.2773C115.036 46.7416 114.834 46.2729 114.564 45.8711C114.293 45.4693 113.956 45.1345 113.55 44.8666C113.145 44.5988 112.672 44.4648 112.132 44.4648C111.321 44.4648 110.646 44.5988 110.038 44.9336C109.43 45.2014 109.025 45.6032 108.822 46.072V51.2282Z" fill="000"></path><path d="M121.249 47.0086C121.249 46.6069 121.249 46.2051 121.182 45.8703C121.182 45.5354 121.046 45.2676 120.911 45.0667C120.776 44.8658 120.574 44.6649 120.303 44.531C120.033 44.397 119.695 44.2631 119.223 44.2631V43.8613L123.276 43.5935V51.3613C123.276 51.8301 123.343 52.1649 123.411 52.4328C123.478 52.7006 123.613 52.9015 123.748 53.0354C123.883 53.1694 124.154 53.2363 124.424 53.3033C124.694 53.3703 125.032 53.3703 125.437 53.4372V53.772C124.829 53.7051 124.221 53.7051 123.546 53.7051C122.938 53.7051 122.262 53.7051 121.654 53.7051C121.249 53.7051 120.844 53.7051 120.439 53.7051C120.033 53.7051 119.628 53.772 119.223 53.772V53.4372C119.56 53.4372 119.898 53.3703 120.101 53.3033C120.371 53.2363 120.574 53.1694 120.709 53.0354C120.844 52.9015 120.979 52.7006 121.046 52.4328C121.114 52.1649 121.182 51.8301 121.182 51.3613V47.0086H121.249ZM121.992 35.8926C122.397 35.8926 122.735 36.0265 123.005 36.2944C123.276 36.5622 123.411 36.897 123.411 37.2988C123.411 37.7006 123.276 38.0354 123.005 38.3033C122.735 38.5712 122.397 38.7051 121.992 38.7051C121.587 38.7051 121.249 38.5712 120.979 38.3033C120.709 38.0354 120.574 37.7006 120.574 37.2988C120.574 36.897 120.709 36.5622 120.979 36.2944C121.249 36.0265 121.587 35.8926 121.992 35.8926Z" fill="000"></path><path d="M125.844 44.7333V44.3315C126.384 44.3315 126.925 44.1975 127.33 43.9297C127.735 43.6618 128.073 43.327 128.411 42.9252C128.681 42.5234 128.951 42.0547 129.154 41.5859C129.356 41.1172 129.559 40.6484 129.694 40.1797H130.099V43.9967H133.747V44.8002H130.099V50.9609C130.099 51.1618 130.099 51.4297 130.167 51.6306C130.167 51.8315 130.234 52.0324 130.302 52.2333C130.369 52.4342 130.505 52.5681 130.64 52.635C130.775 52.769 130.977 52.769 131.248 52.769C131.788 52.769 132.193 52.635 132.599 52.4342C132.936 52.2333 133.274 51.8984 133.679 51.5636L133.95 51.8315C133.679 52.0993 133.342 52.3672 133.071 52.635C132.801 52.9029 132.463 53.1708 132.193 53.3717C131.856 53.5725 131.518 53.7734 131.18 53.9074C130.842 54.0413 130.437 54.1083 129.964 54.1083C129.221 54.1083 128.748 53.9074 128.478 53.4386C128.208 52.9699 128.073 52.4342 128.073 51.8315V44.7333H125.844Z" fill="000"></path><path d="M135.773 45.8717C135.908 45.3359 136.111 44.8672 136.381 44.5993C136.651 44.2645 136.921 43.9967 137.259 43.8627C137.597 43.7288 138.002 43.5949 138.407 43.5279C138.813 43.4609 139.285 43.4609 139.758 43.4609C140.231 43.4609 140.704 43.5279 141.109 43.5949C141.582 43.6618 141.987 43.8627 142.325 44.0636C142.663 44.2645 143.001 44.5993 143.203 45.0011C143.406 45.4029 143.541 45.8717 143.541 46.4074V51.2958C143.541 51.6306 143.609 51.8984 143.811 52.1663C144.014 52.4342 144.284 52.5681 144.622 52.5681C144.96 52.5681 145.297 52.4342 145.567 52.2333C145.838 52.0324 146.108 51.8315 146.378 51.6306L146.648 51.8984C146.446 52.0993 146.243 52.3002 146.04 52.5011C145.77 52.769 145.567 52.9699 145.297 53.1708C145.027 53.3717 144.757 53.5725 144.487 53.7065C144.217 53.8404 143.946 53.9074 143.676 53.9074C143.473 53.9074 143.338 53.8404 143.136 53.7065C142.933 53.5725 142.73 53.4386 142.595 53.3047C142.393 53.1708 142.258 52.9699 142.055 52.8359C141.92 52.6351 141.785 52.5011 141.65 52.3672C141.109 52.769 140.434 53.1038 139.758 53.4386C139.083 53.7734 138.34 53.9074 137.664 53.9074C137.259 53.9074 136.921 53.8404 136.584 53.7065C136.246 53.5725 135.908 53.4386 135.638 53.1708C135.368 52.9699 135.165 52.702 135.03 52.3672C134.895 52.0324 134.76 51.6975 134.76 51.2958C134.76 50.5592 134.962 50.0234 135.368 49.5547C135.773 49.1529 136.313 48.8181 136.921 48.5502C137.597 48.3493 138.272 48.1484 139.15 48.0815C139.961 48.0145 140.772 47.9475 141.65 47.9475V45.9386C141.65 45.269 141.447 44.8002 141.042 44.4654C140.636 44.1306 140.096 43.9297 139.488 43.9297C139.015 43.9297 138.678 44.1306 138.407 44.5993C138.137 45.0681 138.002 45.6038 138.002 46.1395L135.773 45.8717ZM141.515 49.0859C140.907 48.952 140.366 48.8181 139.758 48.8181C139.421 48.8181 139.083 48.885 138.745 48.952C138.407 49.019 138.137 49.1529 137.867 49.3538C137.597 49.5547 137.394 49.7556 137.192 50.0234C137.056 50.2913 136.921 50.6261 136.921 51.0279C136.921 51.6306 137.124 52.0324 137.529 52.3002C137.935 52.5681 138.407 52.702 138.948 52.702C139.488 52.702 140.029 52.5681 140.501 52.3672C140.974 52.1663 141.312 51.9654 141.515 51.7645V49.0859Z" fill="000"></path><path d="M146.58 53.3708C147.053 53.3039 147.391 53.2369 147.661 53.1699C147.931 53.103 148.134 52.9021 148.269 52.7681C148.404 52.5672 148.471 52.2994 148.539 51.9646C148.607 51.6297 148.607 51.228 148.607 50.6922V37.5003C148.607 36.8306 148.471 36.3619 148.269 36.094C148.066 35.8262 147.526 35.6922 146.783 35.6922V35.3574L150.701 34.8887V50.7592C150.701 51.2949 150.701 51.6967 150.768 52.0315C150.836 52.3664 150.903 52.6342 151.038 52.8351C151.173 53.036 151.376 53.1699 151.646 53.2369C151.916 53.3039 152.322 53.3708 152.795 53.4378V53.7726C152.254 53.7056 151.781 53.7056 151.241 53.7056C150.701 53.7056 150.16 53.7056 149.62 53.7056C149.079 53.7056 148.607 53.7056 148.134 53.7056C147.661 53.7056 147.188 53.7726 146.648 53.7726V53.3708H146.58Z" fill="000"></path><path d="M98.3511 19.4869V7.8351C98.3511 3.81724 98.6213 2.87974 101.864 2.61189V2.07617H101.796C100.378 2.14314 98.7564 2.2101 97.2027 2.2101C95.2438 2.2101 93.3525 2.14314 91.4611 2.07617H91.3936V2.54492C94.7035 2.81278 95.0412 3.68331 95.0412 7.76814V12.0539H82.0044V7.8351C82.0044 3.81724 82.2746 2.87974 85.5169 2.61189V2.07617H85.4493C84.0308 2.14314 82.4096 2.2101 80.856 2.2101C78.8971 2.2101 76.8707 2.14314 75.1144 2.07617H75.0469V2.54492C78.3567 2.81278 78.6945 3.68331 78.6945 7.76814V19.4199C78.6945 23.4378 78.3567 24.3753 75.1144 24.6431V25.1119H75.182C76.8707 25.0449 78.5594 24.978 80.2481 24.978C82.0044 24.978 83.6931 25.0449 85.5169 25.1119H85.652V24.6431C82.2746 24.3753 82.0044 23.5047 82.0044 19.4199V13.1253H95.0412V19.4199C95.0412 23.4378 94.7035 24.3753 91.4611 24.6431V25.1119H91.5287C93.2174 25.0449 94.9061 24.978 96.5948 24.978C98.3511 24.978 100.04 25.0449 101.864 25.1119H101.999V24.6431C98.6888 24.4422 98.3511 23.5047 98.3511 19.4869Z" fill="000"></path><path d="M147.796 3.75139C146.243 2.613 144.216 1.94336 142.392 1.94336C141.311 1.94336 140.163 2.01032 139.082 2.14425C138.002 2.21122 136.853 2.34514 135.773 2.34514C134.219 2.34514 132.665 2.27818 131.112 2.21122H131.044V2.67997C134.354 2.94782 134.692 3.81836 134.692 7.90318V19.555C134.692 23.3719 134.557 24.5103 130.977 24.7782V25.2469H131.449C133.138 25.18 134.692 25.113 136.313 25.113C138.137 25.113 139.893 25.18 141.582 25.2469H141.649V24.7782C138.339 24.5103 138.002 23.6398 138.002 19.555V14.3318C139.488 14.8675 141.109 14.9344 142.325 14.9344C144.351 14.9344 146.378 14.4657 147.796 13.5951C149.62 12.5237 150.566 10.9166 150.566 8.84068C150.566 6.83175 149.552 5.02372 147.796 3.75139ZM146.918 8.90764C146.918 11.7201 144.689 13.7291 141.514 13.7291C140.096 13.7291 138.947 13.4612 138.002 12.9925V3.48354C138.812 3.14872 139.893 2.94782 141.176 2.94782C144.621 2.94782 146.918 5.35854 146.918 8.90764Z" fill="000"></path><path d="M174.681 2.14258H174.545C172.654 2.20954 170.898 2.27651 169.074 2.27651H160.766C158.807 2.27651 156.848 2.20954 154.889 2.14258L154.416 9.0399L154.956 9.17383C156.713 3.61579 158.334 3.34794 163.13 3.34794V19.5533C163.13 23.5712 162.792 24.5087 159.55 24.7765V25.2453H159.617C161.306 25.1783 162.995 25.1113 164.683 25.1113C166.44 25.1113 168.128 25.1783 169.952 25.2453H170.087V24.7765C166.71 24.5087 166.44 23.6381 166.44 19.5533V3.28097C171.303 3.28097 172.924 3.54883 174.748 9.10686L175.288 8.97294L174.681 2.14258Z" fill="000"></path><path d="M195.822 21.5633L188.459 1.54102C188.189 1.60798 187.986 1.74191 187.784 1.80887C187.041 2.14369 186.365 2.41155 185.42 2.54548H185.352V2.61244C185.555 3.01423 185.757 3.48298 185.757 3.75084C185.757 3.95173 185.622 4.21959 185.555 4.48744L179.408 19.4874C179.34 19.6883 179.273 19.8223 179.205 20.0232C178.327 22.233 177.516 24.1749 174.814 24.7107V25.1794H175.422C176.706 25.1124 177.787 25.0455 179.002 25.0455C180.421 25.0455 181.839 25.1124 183.258 25.1794H183.326V24.7107C182.988 24.6437 180.016 24.108 180.016 22.166C180.016 21.8982 180.083 21.6973 180.218 21.3624C180.218 21.2955 180.286 21.2285 180.286 21.2285L182.583 14.9339H189.878L192.174 21.3624C192.174 21.4294 192.242 21.5633 192.31 21.6303C192.377 21.8982 192.512 22.166 192.512 22.4339C192.512 23.5723 191.229 24.4428 189.067 24.7107V25.1794H189.135C189.405 25.1794 189.743 25.1794 189.945 25.1124C191.094 25.0455 192.107 24.9785 194.201 24.9785C196.092 24.9785 197.848 25.0455 199.672 25.1124H199.807V24.6437C197.713 24.4428 196.565 23.5723 195.822 21.5633ZM189.54 13.7955H182.988L186.365 5.02316L189.54 13.7955Z" fill="000"></path><path d="M221.695 15.469C220.141 15.469 218.993 15.4021 217.574 15.3351C217.304 15.3351 216.966 15.3351 216.628 15.2681H216.561V15.7369C218.993 15.8039 220.141 16.6074 220.141 18.2146V22.7681C218.114 24.2414 215.548 24.4422 213.791 24.4422C208.86 24.4422 205.28 19.8887 205.28 13.661C205.28 8.37081 208.523 2.74581 213.791 2.74581C218.385 2.74581 220.479 6.16099 222.235 9.7101H222.708V9.64314C222.438 8.03599 221.83 4.35296 221.83 2.81278C221.627 2.74581 221.492 2.74581 221.289 2.67885C219.533 2.2101 217.371 1.60742 213.926 1.60742C210.819 1.60742 207.644 2.87974 205.28 5.08956C202.713 7.43331 201.295 10.5137 201.295 13.728C201.295 17.344 202.646 20.4914 205.28 22.7012C207.577 24.7101 210.752 25.8485 213.926 25.8485C216.899 25.8485 220.208 24.7771 223.383 23.7056V18.8172C223.383 16.6744 224.734 16.1387 226.761 16.0047V15.536H226.693C225.275 15.4021 223.451 15.469 221.695 15.469Z" fill="000"></path><path d="M252.226 4.7553C249.862 2.67941 246.552 1.54102 242.972 1.54102C239.392 1.54102 236.082 2.67941 233.717 4.7553C231.218 6.96512 229.867 10.0455 229.867 13.6616C229.867 17.2776 231.218 20.358 233.717 22.5678C236.082 24.6437 239.392 25.7821 242.972 25.7821C246.552 25.7821 249.862 24.6437 252.226 22.5678C254.725 20.358 256.076 17.2776 256.076 13.6616C256.076 10.0455 254.725 6.96512 252.226 4.7553ZM242.972 24.4428C236.892 24.4428 233.717 19.0187 233.717 13.6616C233.717 8.30441 236.892 2.8803 242.972 2.8803C249.051 2.8803 252.226 8.30441 252.226 13.6616C252.293 19.0187 249.051 24.4428 242.972 24.4428Z" fill="000"></path><path d="M286 2.07617C284.582 2.14314 282.961 2.2101 281.407 2.2101C279.786 2.2101 278.097 2.14314 276.476 2.07617H276.409V2.54492C280.124 2.87974 280.799 5.62528 280.799 11.5851V15.6699C280.799 16.3396 280.799 17.0762 280.799 17.7458C280.799 18.4155 280.799 19.0851 280.799 19.8217C279.11 17.5449 275.26 12.8574 271.815 8.70564C269.316 5.69224 267.154 3.1476 266.411 2.07617H266.276C265.263 2.14314 264.317 2.2101 263.372 2.2101C261.683 2.2101 260.467 2.14314 259.116 2.07617C258.913 2.07617 258.711 2.07617 258.441 2.07617H258.373V2.54492C259.927 2.94671 261.953 3.54939 263.574 4.82171L263.169 20.8262C263.101 23.9735 261.615 24.1744 258.441 24.5762H258.373V25.0449H258.441C259.724 24.978 261.143 24.911 262.426 24.911C264.723 24.911 267.087 24.978 269.383 25.0449H269.451V24.5762C265.128 24.1074 264.723 23.4378 264.723 15.1342V9.04046C264.723 7.8351 264.79 6.62974 264.79 5.55832C268.843 9.91099 275.665 17.2101 280.867 25.3797H282.218V6.8976C282.218 4.0851 283.163 3.01367 286.068 2.61189L286 2.07617Z" fill="000"></path><path d="M125.843 18.7497C125.235 20.9595 124.289 22.2319 123.073 23.0354C121.384 23.772 119.493 24.0399 117.196 24.0399C115.981 24.0399 114.157 23.772 113.346 23.5712V12.8569H115.575C119.358 12.8569 120.776 13.5265 121.587 17.4774H122.06V17.4104C122.06 16.5399 122.06 15.7363 121.992 14.8658C121.992 14.0622 121.925 13.1917 121.925 12.3212C121.925 11.5176 121.925 10.647 121.992 9.84347C121.992 9.0399 122.06 8.16936 122.06 7.29883V7.36579H121.587C121.182 10.5131 119.561 11.7854 115.981 11.7854C115.508 11.7854 115.035 11.7854 114.63 11.8524C114.224 11.8524 113.751 11.9194 113.279 11.9194V3.21401C114.967 3.08008 116.521 3.01311 118.21 3.01311C121.452 3.01311 124.627 3.68276 125.91 8.43722V8.50419L126.451 8.37026C126.451 7.90151 126.383 7.43276 126.315 6.96401C126.248 6.29436 126.18 5.69169 126.18 5.08901C126.18 4.21847 126.18 3.28097 126.248 2.20954V2.14258H126.045C122.803 2.20954 119.493 2.27651 116.251 2.27651C112.536 2.27651 110.306 2.20954 107.74 2.14258C107.334 2.14258 106.862 2.14258 106.456 2.14258H106.389V2.61133C109.834 2.87919 109.969 4.01758 109.969 7.83454V19.4863C109.969 23.3033 109.834 24.4417 106.456 24.7095V25.1783H106.591C107.942 25.1113 109.226 25.0444 110.577 25.0444H119.898C121.925 25.0444 123.951 25.1113 125.91 25.1783C125.978 25.1783 125.978 25.1783 126.045 25.1783H126.248V25.1113C126.18 24.0399 126.18 23.1024 126.18 22.2319C126.18 21.8301 126.18 21.4283 126.248 21.0265C126.248 20.7586 126.315 20.5578 126.315 20.2899C126.383 19.8211 126.383 19.4194 126.451 18.8837L125.843 18.7497Z" fill="000"></path></g><defs><clipPath id="clip0"><rect width="286" height="60" fill="000"></rect></clipPath></defs></svg>