<?xml version="1.0" encoding="UTF-8"?> <svg xmlns="http://www.w3.org/2000/svg" xmlns:xlink="http://www.w3.org/1999/xlink" id="Layer_1" x="0px" y="0px" style="enable-background:new 0 0 311.9 155.2;" xml:space="preserve" viewBox="8.4 4.7 288 111.2"> <style type="text/css"> .st0{fill:#000;} .st1{fill:#000;} </style> <g> <path class="st0" d="M245.8,44.8c-3.3,0-6,2.7-6,6c0,3.3,2.7,6,6,6h13.1c1.9,0,4.5-0.4,5.9-2.4c1.6-2.2,0.7-3.6,1.2-9.8 c-2.6,0.2-5.6,0.2-7.1,0.2S245.8,44.8,245.8,44.8z"></path> <path class="st0" d="M245.8,24.8c-3.3,0-6,2.7-6,6s2.7,6,6,6h30.1c1.9,0,4.5-0.4,5.9-2.4c1.6-2.2,0.7-3.6,1.2-9.8 c-2.6,0.2-5.6,0.2-7.1,0.2C274.4,24.8,245.8,24.8,245.8,24.8z"></path> <path class="st0" d="M289.3,4.9c-1.5,0-43.5,0-43.5,0c-3.3,0-6,2.7-6,6s2.7,6,6,6h43.5c1.9,0,4.5-0.4,5.9-2.4 c1.6-2.2,0.7-3.6,1.2-9.8C293.8,4.9,290.8,4.9,289.3,4.9z"></path> </g> <path class="st1" d="M246.4,64.7h-0.6c-3.3,0-6,2.7-6,6c0,3.3,2.7,6,6,6h0.3c0.2,0,0.4,0,0.6,0c0,0,0,0,0,0c1.5-0.2,3.3-0.8,4.4-2.4 c1.6-2.2,0.7-3.6,1.2-9.8C250.3,64.7,248,64.7,246.4,64.7C246.4,64.7,246.4,64.7,246.4,64.7z"></path> <path class="st1" d="M47.5,39.9c6.8,0,9.6-5.3,10.2-8.1l-0.3-0.2c-1.1,1.6-2.9,2.7-5.9,2.7c-4.3,0-7.1-2.8-7.1-8.6c0-0.3,0-0.7,0-1 h12.5c0-4.7-3.8-8-9-8s-11.2,4.1-11.2,12.1C36.7,34.5,40.2,39.9,47.5,39.9z M47.6,17.9c1.9,0,2.4,2.9,2.6,5.5l-5.8,0.7 C44.7,20.3,45.9,17.9,47.6,17.9z M60.7,71.2c-4.3,0-7.1-2.8-7.1-8.6c0-0.3,0-0.7,0-1h12.5c0-4.7-3.8-8-9-8s-11.2,4.1-11.2,12.1 c0,5.7,3.6,11.1,10.8,11.1c6.8,0,9.6-5.3,10.2-8.1l-0.3-0.2C65.5,70,63.7,71.2,60.7,71.2z M56.9,54.7c1.9,0,2.4,2.9,2.6,5.5 l-5.8,0.7C53.9,57.2,55.1,54.7,56.9,54.7z M98.6,39.9c6.8,0,9.6-5.3,10.2-8.1l-0.3-0.2c-1.1,1.6-2.9,2.7-5.9,2.7 c-4.3,0-7.1-2.8-7.1-8.6c0-0.3,0-0.7,0-1h12.5c0-4.7-3.8-8-9-8s-11.2,4.1-11.2,12.1C87.8,34.5,91.4,39.9,98.6,39.9z M98.8,17.9 c1.9,0,2.4,2.9,2.6,5.5l-5.8,0.7C95.9,20.3,97.1,17.9,98.8,17.9z M146.2,71.2c-4.3,0-7.1-2.8-7.1-8.6c0-0.3,0-0.7,0-1h12.5 c0-4.7-3.8-8-9-8c-5.2,0-11.2,4.1-11.2,12.1c0,5.7,3.6,11.1,10.8,11.1c6.8,0,9.6-5.3,10.2-8.1l-0.3-0.2 C151,70,149.3,71.2,146.2,71.2z M142.4,54.7c1.9,0,2.4,2.9,2.6,5.5l-5.8,0.7C139.5,57.2,140.7,54.7,142.4,54.7z M186.6,34.3 c-4.3,0-7.1-2.8-7.1-8.6c0-0.3,0-0.7,0-1h12.5c0-4.7-3.8-8-9-8c-5.2,0-11.2,4.1-11.2,12.1c0,5.7,3.6,11.1,10.8,11.1 c6.8,0,9.6-5.3,10.2-8.1l-0.3-0.2C191.4,33.2,189.7,34.3,186.6,34.3z M182.8,17.9c1.9,0,2.4,2.9,2.6,5.5l-5.8,0.7 C179.9,20.3,181.1,17.9,182.8,17.9z M29.2,45.4h16.2V46c-2.8,0.4-3.9,1.6-3.9,5.7V70c0,4,1.1,5.3,3.9,5.7v0.6H29.2v-0.6 c2.6-0.4,3.5-1.4,3.5-5.7v-8.8l-11.5,0V70c0,4.3,0.9,5.3,3.5,5.7v0.6H8.4v-0.6c2.8-0.4,3.9-1.7,3.9-5.7V51.7c0-4.1-1.1-5.3-3.9-5.7 v-0.6h16.3V46c-2.6,0.4-3.5,1.4-3.5,5.7v7.8h11.5v-7.8c0-4.3-0.9-5.3-3.5-5.7V45.4z M132.8,23.2c0-1.6,1.3-2.9,2.9-2.9 c1.6,0,2.9,1.3,2.9,2.9c0,1.6-1.3,2.9-2.9,2.9C134,26.1,132.8,24.8,132.8,23.2z M122.9,39.5h-13.2v-0.6c1.9-0.3,2.6-1.2,2.6-4V23.1 c0-2-1-2.9-2.2-3.1v-0.5l9.8-2.8l0.1,0.1v18.3c0,2.5,1.1,3.6,2.9,3.8V39.5z M168.1,35.5c1.2,0,2.7-0.3,3.3-0.5v0.4 c-1.1,2-4.4,4.5-8.3,4.5c-3.6,0-6.7-1.4-6.7-6.4v-14h-2.5v-0.8l9.6-7.3l0.6,0.3v6.5h6.9l-0.4,1.3h-6.5v12 C164.1,34.3,165.5,35.5,168.1,35.5z M171.3,69c0,6.3-5.6,7.8-9.2,7.8c-4.7-0.1-7.5-1.3-7.5-1.3l-0.2-7h0.5c0.9,3.2,4.3,7.6,7.5,7.6 c1.9,0,3-1.1,3-2.6c0-2.1-2.3-3.3-4.9-4.8c-2.9-1.7-5.8-3.6-5.8-7.7c0-4.9,5-7.1,8.6-7.2c3.9-0.1,6.8,0.9,6.8,0.9l0.2,6.6h-0.5 c-0.9-3.1-3.4-6.7-6.6-6.7c-1.3,0-2.7,0.7-2.7,2.4c0,2.3,2.5,3.5,4.8,4.9C168.5,63.6,171.3,65.7,171.3,69z M150.7,34.5v-11 c0-4.2-2.1-6.8-7.5-6.8c-2.6,0-5.6,0.9-7.5,2.1v0.6c4.4,0,7.3,1.1,7.3,4.6v3.3c-2.9,0.7-8.4,2.1-9.4,2.4c-1,0.3-2.5,2.1-2.5,4.7 c0,3,1.9,5.5,5.6,5.5c3.4,0,5.9-2.6,6.5-3.9c0.5,2.6,2.1,3.9,4.9,3.9c3.1,0,5-1.8,5.6-3.4v-0.3c0,0-0.6,0.5-1.2,0.5 C151.2,36.6,150.7,36,150.7,34.5z M141.2,36.4c-1.5,0-2.5-0.7-2.5-3.8c0-2.2,0.9-3.2,1.6-3.6c0.9-0.6,2.3-1,2.7-1.1v6.3 c0,0.4,0,0.8,0.1,1.2C142.8,35.7,142,36.4,141.2,36.4z M218.8,34.3V11.8c0-2,0.1-4.8,0.1-6.8l-0.1-0.1l-10,2.9v0.4 c0.2,0.1,0.7,0.4,0.9,0.6c1,0.8,1.4,1.9,1.4,3.9v4.6c0,0-2.8-1.1-6.9,0c-4.9,1.4-9.7,5.9-9.7,12.3c0,6,3.8,10.4,8.9,10.4 c3,0,5.9-2.1,7.4-4.2l0.3,0.1v4l0.1,0.1l10.4-1.4v-0.4c0,0-0.5-0.1-1.5-0.4C219.3,37.5,218.8,36.6,218.8,34.3z M211.1,34.3 c0,0-1,0.9-3.5,0.6c-1.9-0.2-3.7-1.5-4.5-4.3c-0.3-1.1-0.4-2.4-0.4-4c0-4.3,1.4-8.6,4.1-8.8c2.5-0.2,4.3,2,4.3,7.4V34.3z M69,39.9 c3,0,5.9-2.1,7.4-4.2l0.3,0.1v4l0.1,0.1l10.4-1.4v-0.4c0,0-0.5-0.1-1.5-0.4c-0.9-0.2-1.4-1.1-1.4-3.4V11.8c0-2,0.1-4.8,0.1-6.8 l-0.1-0.1l-10,2.9v0.4c0.2,0.1,0.7,0.4,0.9,0.6c1,0.8,1.4,1.9,1.4,3.9v4.6c0,0-2.8-1.1-6.9,0c-4.9,1.4-9.7,5.9-9.7,12.3 C60,35.5,63.8,39.9,69,39.9z M72.3,17.9c2.5-0.2,4.3,2,4.3,7.4v9.1c0,0-1,0.9-3.5,0.6c-1.9-0.2-3.7-1.5-4.5-4.3 c-0.3-1.1-0.4-2.4-0.4-4C68.2,22.3,69.5,18,72.3,17.9z M121.4,20.1l-0.4-0.4c0,0,0.3-0.3,0.6-0.6c1.8-1.8,3.3-2.4,4.7-2.4 c2.3,0,4.2,1.9,4.2,4.2s-1.9,4.2-4.2,4.2c-2,0-3.6-1.6-3.6-3.6c0-0.8,0.2-1.5,0.6-2C122.3,19.3,121.4,20.1,121.4,20.1z M81.2,75.8 v0.6H68.1v-0.6c1.9-0.3,2.6-1.2,2.6-4V60c0-2-1-2.9-2.2-3.1v-0.5l9.8-2.8l0.1,0.1V72C78.3,74.4,79.4,75.5,81.2,75.8z M88.8,57.8 c0,2.3-1.9,4.2-4.2,4.2c-2,0-3.6-1.6-3.6-3.6c0-0.8,0.2-1.5,0.6-2c-1-0.3-1.9,0.6-1.9,0.6l-0.4-0.4c0,0,0.3-0.3,0.6-0.6 c1.8-1.8,3.3-2.4,4.7-2.4C86.9,53.6,88.8,55.4,88.8,57.8z M130.6,75.8v0.6h-12.5v-0.6c1.7-0.3,2.3-1.2,2.3-3.6V61.6 c0-2.6-0.8-3.6-3.1-3.6c-1.8,0-3,1-3.3,1.2c0,0.3,0,0.7,0,1v12.1c0,2.4,0.5,3.3,2.2,3.6v0.6h-12.2v-0.6c1.7-0.3,2.3-1.2,2.3-3.6 V61.6c0-2.6-0.8-3.6-3.1-3.6c-2.1,0-3.2,1.2-3.2,1.2V72c0,2.5,0.4,3.6,2.3,3.8v0.6H89.9v-0.6c1.9-0.3,2.6-1.2,2.6-4V60 c0-2-1-2.9-2.2-3.1v-0.5l9.8-2.8l0.1,0.1v4.1l0.3,0.1c1.7-2,4.9-4.3,8.4-4.3c3.6,0,4.9,1.9,5.3,4.7c1.6-2.2,4.9-4.7,8.8-4.7 c4.3,0,5.4,2.8,5.4,6.6h0v11.7C128.1,74.6,128.8,75.4,130.6,75.8z M25.9,39.5H8.4v-0.6c2.8-0.4,3.9-1.7,3.9-5.7V14.8 c0-4.1-1.1-5.3-3.9-5.7V8.5l27.6,0l0.4,11.1H36c-1.2-5.9-6.2-10.4-12.3-10.5c0,0,0,0,0,0h-2.5v0v14H25c3.2-0.9,4.7-2.9,5.7-6.7h0.5 v14.7h-0.5c-1-3.7-2.5-5.7-5.5-6.7h-4v8.7c0,4.3,1.9,5.3,4.7,5.7V39.5z"></path> <g> <path class="st0" d="M12.1,96.1h4.3v15.5h7.9v4H12.1V96.1z"></path> <path class="st0" d="M28.1,95.6c1.3,0,2.4,1.1,2.4,2.4c0,1.3-1.1,2.4-2.4,2.4c-1.3,0-2.4-1.1-2.4-2.4 C25.7,96.7,26.7,95.6,28.1,95.6z M26,102.2h4.1v13.4H26V102.2z"></path> <path class="st0" d="M32.8,102.2h4v1.8h0.1c0.5-1,1.9-2.1,3.9-2.1c1.9,0,3.4,0.8,4.1,2.4c1-1.7,2.3-2.4,4.2-2.4 c3.6,0,4.7,2.6,4.7,5.8v7.9h-4.1v-7.8c0-1.2-0.5-2.3-1.8-2.3c-1.9,0-2.5,1.3-2.5,3v7.1h-4.1v-7.1c0-1,0.1-3-1.8-3 c-2.1,0-2.5,1.7-2.5,3.4v6.7h-4.1V102.2z"></path> <path class="st0" d="M58.6,95.6c1.3,0,2.4,1.1,2.4,2.4c0,1.3-1.1,2.4-2.4,2.4c-1.3,0-2.4-1.1-2.4-2.4 C56.2,96.7,57.3,95.6,58.6,95.6z M56.5,102.2h4.1v13.4h-4.1V102.2z"></path> <path class="st0" d="M72.5,105.5h-3.6v4.5c0,1.4,0.2,2.5,2,2.5c0.4,0,1.3-0.1,1.7-0.4v3.4c-0.9,0.3-1.9,0.4-2.9,0.4 c-2.7,0-4.9-1.1-4.9-4v-6.3h-2.6v-3.3h2.6v-4h4.1v4h3.6V105.5z"></path> <path class="st0" d="M86.9,113.3c-1.3,1.7-3.5,2.6-5.6,2.6c-4.1,0-7.4-2.7-7.4-7c0-4.3,3.3-7,7.4-7c3.8,0,6.3,2.7,6.3,7v1.3H78 c0.3,1.6,1.5,2.6,3.1,2.6c1.3,0,2.3-0.7,2.9-1.6L86.9,113.3z M83.5,107.4c0-1.4-1-2.5-2.5-2.5c-1.8,0-2.8,1.2-2.9,2.5H83.5z"></path> <path class="st0" d="M103.8,115.6h-3.8v-1.8H100c-0.6,1-2.2,2.1-4.1,2.1c-4,0-6.6-2.9-6.6-6.9c0-3.7,2.3-7.1,6.1-7.1 c1.7,0,3.3,0.5,4.2,1.8h0.1v-8.8h4.1V115.6z M96.8,105.5c-2.1,0-3.3,1.4-3.3,3.4s1.2,3.4,3.3,3.4c2.1,0,3.3-1.4,3.3-3.4 S98.8,105.5,96.8,105.5z"></path> </g> </svg> 