<svg class="wp-image-5969 style-svg replaced-svg svg-replaced-0" id="" xmlns="http://www.w3.org/2000/svg" fill="none" viewBox="0 0 331 57" height="57" width="331">
<path fill="#000" d="M49.5039 24.9784C51.2953 24.9784 52.415 26.6585 52.415 28.4507C52.415 32.1471 47.0407 34.1632 41.1065 35.2834C41.1065 40.4358 41.6663 47.1565 41.6663 51.0769C41.6663 54.5492 39.9869 55.6693 37.2997 55.6693C33.7168 55.6693 32.5972 53.9891 32.5972 52.197C32.5972 47.2685 32.5972 42.004 32.4852 36.4035C29.7981 36.6275 26.887 36.7395 24.1998 36.7395C21.9605 36.7395 19.4973 36.6275 17.5939 36.5155C17.5939 40.0998 17.8178 49.1727 17.8178 51.0769C17.8178 54.1011 17.146 56.0053 13.7871 56.0053C10.9879 56.0053 8.30078 54.5492 8.30078 49.9568C8.30078 47.1565 8.52471 42.34 8.52471 35.6194C1.80681 34.2753 0.575195 32.7071 0.575195 30.3549C0.575195 28.6747 1.35895 26.2105 4.82986 26.2105C5.72558 26.2105 7.29309 26.3225 8.52471 26.6585C8.52471 14.7854 7.62899 7.95276 7.62899 4.36842C7.62899 1.68016 9.1965 0 11.8837 0C17.258 0 17.7058 2.80027 17.7058 11.8731C17.7058 18.8178 17.5939 24.1943 17.5939 27.5546C18.2657 27.6666 21.7366 27.7786 23.8639 27.7786C26.663 27.7786 29.5741 27.6666 32.2613 27.4426C32.1493 22.9622 32.0374 14.7854 32.0374 11.3131C32.0374 7.95276 32.3733 3.92037 36.6279 3.92037C40.6587 3.92037 42.1142 6.60863 42.1142 9.52091C42.1142 11.6491 41.2185 19.2658 41.2185 26.5465C44.1296 26.2105 47.4885 24.9784 49.5039 24.9784Z"></path>
<path fill="#000" d="M85.8803 55.4453C81.8495 55.4453 78.3786 52.421 77.259 49.7327C75.4675 52.0849 72.2205 55.1092 67.1821 55.1092C62.4796 55.1092 59.2326 53.6531 57.2172 51.3009C54.754 48.7246 52.4027 43.4601 52.4027 37.0755C52.4027 32.8191 53.5224 25.6504 57.4412 25.6504C60.1283 25.6504 62.0317 27.3306 62.0317 30.0189C62.0317 32.8191 61.024 35.0593 61.024 39.6518C61.024 42.7881 61.5839 47.0445 66.9582 47.0445C72.2205 47.0445 72.8923 43.9082 73.1163 40.7719C73.9 31.139 72.7804 24.6423 78.2666 24.6423C81.0658 24.6423 82.6333 26.4345 82.6333 29.0108C82.6333 31.587 82.0735 38.9797 82.0735 40.9959C82.0735 46.3724 83.641 47.3805 85.5444 47.3805C89.4632 47.3805 91.9264 42.7881 95.0614 42.7881C96.7409 42.7881 98.6443 44.0202 98.6443 45.9244C98.6443 51.1889 90.2469 55.4453 85.8803 55.4453Z"></path>
<path fill="#000" d="M129.659 55.4453C125.629 55.4453 122.158 52.421 121.038 49.7327C119.247 52.0849 116 55.1092 110.961 55.1092C106.259 55.1092 103.012 53.6531 100.996 51.3009C98.5331 48.7246 96.1818 43.4601 96.1818 37.0755C96.1818 32.8191 97.3015 25.6504 101.22 25.6504C103.907 25.6504 105.811 27.3306 105.811 30.0189C105.811 32.8191 104.803 35.0593 104.803 39.6518C104.803 42.7881 105.363 47.0445 110.737 47.0445C116 47.0445 116.671 43.9082 116.895 40.7719C117.679 31.139 116.559 24.6423 122.046 24.6423C124.845 24.6423 126.412 26.4345 126.412 29.0108C126.412 31.587 125.853 38.9797 125.853 40.9959C125.853 46.3724 127.42 47.3805 129.323 47.3805C133.242 47.3805 135.705 42.7881 138.84 42.7881C140.52 42.7881 142.423 44.0202 142.423 45.9244C142.423 51.1889 134.026 55.4453 129.659 55.4453Z"></path>
<path fill="#000" d="M197.847 42.7881C199.19 42.7881 201.206 44.0202 201.206 46.1484C201.206 51.6369 191.689 55.6693 187.21 55.6693C181.836 55.6693 178.253 52.981 178.253 47.6045C178.253 45.9244 178.701 42.7881 178.701 40.3238C178.701 37.8596 178.141 34.2753 175.23 34.2753C171.423 34.2753 169.184 38.7557 168.848 42.452C168.4 46.9325 168.512 54.2132 163.921 54.2132C160.227 54.2132 159.667 50.9648 159.667 48.5006C159.667 47.6045 160.003 44.6922 160.003 41.2199C160.003 38.0836 159.443 35.1713 157.316 35.1713C154.628 35.1713 151.829 38.9797 150.038 43.3481C149.814 46.1484 150.374 49.0607 150.374 52.309C150.374 54.4372 148.358 55.5573 146.007 55.5573C144.216 55.5573 142.424 54.6612 142.2 52.869C141.752 49.6207 141.081 38.8677 141.081 30.9149C141.081 29.0108 141.305 25.3144 145.671 25.3144C149.142 25.3144 150.038 27.7786 150.038 31.699C151.941 28.8987 155.3 25.0904 158.883 25.0904C162.69 25.0904 166.049 27.5546 167.168 31.811C169.408 28.5627 172.431 25.4264 177.917 25.4264C185.083 25.4264 186.874 31.811 186.874 35.8434C186.874 39.8758 186.091 42.34 186.091 44.2442C186.091 46.4844 186.874 47.3805 188.106 47.3805C190.905 47.3805 193.592 44.8043 194.936 43.7962C195.831 43.1241 196.615 42.7881 197.847 42.7881Z"></path>
<path fill="#000" d="M234.914 42.7881C237.041 42.7881 238.497 44.4682 238.497 45.9244C238.497 51.6369 229.427 55.6693 224.837 55.6693C220.358 55.6693 217.223 53.5411 216.215 51.5249C214.424 53.4291 210.393 55.2212 206.922 55.2212C201.548 55.2212 196.286 51.5249 196.286 44.4682C196.286 35.6194 204.347 25.0904 214.2 25.0904C216.887 25.0904 218.903 26.2105 220.358 27.4426C222.038 27.4426 225.173 27.7786 225.173 29.5708C225.173 34.4993 223.045 42.564 223.045 44.3562C223.045 45.9244 223.493 47.3805 225.397 47.3805C229.315 47.3805 231.779 42.7881 234.914 42.7881ZM208.266 46.2604C210.281 46.2604 213.192 44.6922 215.096 42.564C216.663 40.7719 216.663 37.1875 216.663 35.6194C216.663 34.4993 215.768 33.7152 214.76 33.7152C209.274 33.7152 204.907 38.4197 204.907 42.452C204.907 44.5802 205.915 46.1484 208.266 46.2604Z"></path>
<path fill="#000" d="M266.839 47.3805C269.414 47.3805 272.101 44.8043 273.445 43.7962C274.34 43.1241 275.124 42.7881 276.356 42.7881C277.699 42.7881 279.715 44.0202 279.715 46.1484C279.715 51.5249 270.422 55.6693 265.943 55.6693C261.017 55.6693 256.538 53.2051 256.538 46.5964C256.538 42.452 257.434 38.6437 257.434 36.0674C257.434 33.8272 256.874 32.3711 255.194 32.3711C251.724 32.3711 246.461 39.7638 244.11 45.7003C244.222 52.421 242.99 54.7732 239.183 54.7732C233.697 54.7732 234.817 45.2523 234.817 29.7948C234.817 27.2186 236.72 24.1943 239.631 24.1943C244.558 24.1943 243.55 26.0985 243.886 33.7152C247.021 28.5627 252.059 23.9703 256.762 23.9703C263.256 23.9703 265.607 28.4507 265.607 32.4831C265.607 37.6356 264.599 41.4439 264.599 44.8043C264.599 46.4844 265.607 47.3805 266.839 47.3805Z"></path>
<path fill="#000" d="M315.352 35.1713C317.144 35.1713 318.935 36.5155 318.935 38.6437C318.935 39.8758 318.375 41.2199 316.92 42.34C315.016 44.0202 311.322 46.3724 305.499 46.3724C305.723 52.309 301.581 56.4534 295.087 56.4534C288.593 56.4534 283.33 52.309 283.33 47.6045C283.33 47.1565 283.442 46.0364 283.554 45.7003C280.755 49.6207 277.956 51.8609 276.276 51.8609C273.477 51.8609 272.022 49.6207 272.022 47.9406C272.022 46.3724 272.582 45.4763 273.925 44.3562C280.083 39.3157 283.218 33.6032 288.817 24.7544C289.936 22.9622 290.944 21.7301 293.407 21.7301C297.774 21.7301 300.013 23.4102 300.013 25.2024C300.013 27.4426 299.453 28.4507 299.453 30.2429C299.453 32.4831 300.685 35.3954 302.924 38.8677C306.955 39.2037 308.858 38.8677 311.993 36.5155C313.337 35.5074 314.233 35.1713 315.352 35.1713ZM287.137 41.1079C289.488 39.6518 291.616 39.2037 294.863 38.8677C293.631 37.4116 292.735 33.9392 292.623 31.475C290.832 34.2753 288.817 38.1956 287.137 41.1079ZM294.751 49.8447C296.766 49.8447 298.11 48.7246 298.11 46.9325C298.11 46.1484 297.886 45.4763 297.55 45.0283C296.094 44.9163 290.272 44.5802 290.272 47.0445C290.272 48.9486 292.623 49.8447 294.751 49.8447Z"></path>
<ellipse fill="#000" ry="4.62733" rx="5.09006" cy="49.9762" cx="325.878"></ellipse>
</svg>