<?xml version="1.0" encoding="UTF-8"?> <!-- Generator: Adobe Illustrator 24.2.1, SVG Export Plug-In . SVG Version: 6.00 Build 0) --> <svg xmlns="http://www.w3.org/2000/svg" xmlns:xlink="http://www.w3.org/1999/xlink" x="0px" y="0px" viewBox="0 0 175.06 102.68" style="enable-background:new 0 0 175.06 102.68;" xml:space="preserve"> <style type="text/css"> .st0{fill:none;} .st1{fill:#000;} .st2{fill:#000;} </style> <g id="safe_area"> <g> <rect x="0.17" y="65.11" class="st0" width="23.7" height="5.13"></rect> <rect x="151.18" y="65.47" class="st0" width="23.7" height="5.13"></rect> <rect x="76.74" class="st0" width="5.13" height="23.7"></rect> <rect x="77.72" y="78.97" class="st0" width="5.13" height="23.7"></rect> </g> <rect class="st0" width="175.06" height="102.68"></rect> </g> <g id="artwork_1_"> <g> <path class="st1" d="M145.65,61.65c2.48-1.36,4.15-3.92,4.15-6.87c0-4.36-3.67-7.89-8.2-7.89h-9.41v23.7h5.13v-7.92h3.39l4.9,7.92 h5.58L145.65,61.65z M141.97,57.93h-4.65v-6.27h4.65c1.52,0,2.76,1.4,2.76,3.14C144.73,56.52,143.49,57.93,141.97,57.93z M112.23,70.6h15.85v-4.76h-10.72v-4.72h9.97v-4.76h-9.97v-4.72h10.72V46.9h-15.85V70.6z M91.92,51.65h6.27V70.6h5.13V51.65h6.27 V46.9H91.92V51.65z M83.88,70.6h5.13V46.9h-5.13V70.6z M72.32,46.9h-9.41v23.7h5.13v-7.92h4.28c4.53,0,8.2-3.53,8.2-7.89 C80.52,50.43,76.85,46.9,72.32,46.9z M72.69,57.93h-4.65v-6.27h4.65c1.52,0,2.76,1.4,2.76,3.14 C75.45,56.52,74.21,57.93,72.69,57.93z M53.38,60.86c0,2.74-2.12,4.98-4.74,4.98c-2.61,0-4.73-2.23-4.73-4.98V46.89h-5.14V61.1 c0,5.46,4.42,9.88,9.88,9.88s9.88-4.42,9.88-9.88V46.89h-5.14V60.86z M29.6,63.84c0,2.14-2.11,2.95-3.63,2.1l-2.1,4.3 c4.4,2.02,10.96,0.09,10.96-6.73V46.89H29.6V63.84z"></path> <path class="st2" d="M77.69,33.5c-0.31-0.14-0.75-0.52-1.38-0.68c-0.45-0.11-5.63-1.56-4.89-1.2c0.67,0.32,2.78,1.11,3.89,1.43 C80.72,34.61,78.17,33.73,77.69,33.5z M68.81,36.39c-0.72-0.41-0.95-0.27-1.45-0.32c-0.17-0.02-0.54-0.1-0.6-0.08 c-0.19,0.05,0.58,0.35,0.68,0.37c1.46,0.37,0.46,0.37,2.51,0.74c0.31,0.06,1.89,0.66,2.21,0.64c0.35-0.02-1.21-0.5-1.42-0.68 C70.37,36.72,69.33,36.69,68.81,36.39z M71,38.42c0.11,0.06,0.19,0.16,0.3,0.22c0.21,0.13,0.91,0.24,1.37,0.36 c1.97,0.54,1.65,0.67,3.56,0.9c0.27,0.03,0.47,0.09,0.51,0.08c0.35-0.1-7.42-2.48-7.43-2.48C69.16,37.59,70.45,38.05,71,38.42z M84.78,43.19c-0.48-0.21-0.87-0.46-0.87-0.46c-0.55-0.25-1.11-0.04-2.23-0.37c-0.01,0-4.35-1.44-3.64-0.99 c0.25,0.16-0.2-0.13,2.93,1.07c0.45,0.17-0.18,0.14,0.28,0.29c1.33,0.44,1.87,0.17,2.31,0.41C84.5,43.65,85.31,43.38,84.78,43.19z M62.54,43.19c1.18,0,1.15,0,1.22,0c-0.31-0.19-0.89-0.71-1.48-0.75C62.36,42.69,62.44,42.94,62.54,43.19z M65.49,41.1 c0.2-0.35,4.93,1.81,5.52,1.52c0.18-0.09-1.23-0.39-2.29-0.76c-3.74-1.33-5.75-2.08-7.05-2.56c0.06,0.7,0.16,1.38,0.32,2.04 c0.37,0.04,1.82,0.27,3.24,0.96c0.55,0.27,0.74,0.14,1.99,0.62c0.87,0.34,0.56,0.53,4.31,0.53c1.42-0.01-0.67-0.18-2.85-1.11 C67.36,41.78,65.41,41.23,65.49,41.1z M75.33,23.72c0.46,0.09,1.4,0.5,1.6,0.56c0.66,0.2,0.88-0.01,1.8,0.42 c0.96,0.45,2.03,0.67,3,1.1c1.09,0.49,2.31,1.46,2.1,1.54c-0.02,0-1.91-0.4-2.94-0.71c-3.48-1.04-3.35-1.3-5.54-1.96 c-1.2-0.36-1.8-0.46-1.78-0.35c-0.03,0.32,2.46,0.82,4.24,1.91c0.38,0.38,3.94,1.42,5.04,1.6c1.87,0.31,1.91,0.56,1.29,0.58 c-2.01,0.07-3.73-0.84-5.59-1.14c-0.6-0.1-1.28-0.24-1.34-0.09c-0.01,0.1,0.77,0.26,0.95,0.33c4.85,1.81,4.3,2.16,6.54,3.18 c1.59,0.73,1.93,1.38,1.66,1.25c-3.26-1.54-4.03-0.98-6.25-2.49c-2.84-1.93-2.41-1.38-4.71-1.94c-1.52-0.37-2.97-1.12-4.54-1.29 c-1.47-0.16,0.35-0.58,3.34-0.06c1.23,0.2,1.2,0.15,1.52,0.23c0.17,0.04,0.5,0.15,0.63,0.13c0.24-0.02-0.12-0.23-0.16-0.26 c-0.18-0.1-0.39-0.14-0.58-0.22c-3.33-1.38-3.91-0.82-3.8-1.18c0.06-0.19,1.3-0.07,1.54-0.16c0.19-0.07-0.35-0.25-0.44-0.31 c-0.15-0.07-0.17-0.2-0.33-0.29c-1.56,0.38-3.02,1.01-4.34,1.85c2.47,0.83,10.46,2.76,10.59,3.37c0.02,0.11-8.6-2.14-10.98-3.11 c-0.31,0.21-0.61,0.44-0.9,0.67c2.3,1.09,20.95,6.11,19.92,6.17c-2.46,0.16-7.58-2.09-12.29-2.92c-2.49-0.44-2.81-0.68,6.68,2.26 c2.88,0.9,6.64,2.45,6.44,2.7c-0.1,0.13-6.46-2.21-15.24-4.49c-1.19-0.31-2.33-0.8-3.51-1.16c-1.07-0.32-2.35-0.74-3.11-1.56 c-0.4,0.39-0.77,0.81-1.12,1.25c0.43,0.15,1.08,0.01,1.29,0.05c0.63,0.11,0.3,0.41,1.8,0.39C69.3,29.57,86,35.23,87,35.94 c0.26,0.18,1.01,0.78,1.15,1.01c0.24,0.4-0.38-0.09-8.71-2.5c-1.19-0.34-2.41-0.54-3.6-0.87c-1.17-0.32-2.29-0.77-3.46-1.09 c-0.62-0.17-1.27-0.22-1.87-0.42c-0.47-0.15-0.9-0.4-1.38-0.53c-4.82-1.34-4.63-1.31-4.63-1.24c-0.03,0.52,4.66,1.55,13.6,4.36 c0.93,0.29,1.82,0.69,2.72,0.98c3.07,1.01-2.79,0.01-4.86-0.6c-0.01,0-2.04-0.61-4.22-1.1c-1.93-0.43-1.71,0.2-4.98-1.02 c-0.81-0.3-1.72-0.57-3.02-0.24c-0.11,0.03-0.25,0.06-0.07,0.15c0.15,0.08,0.36,0.04,0.91,0.02c0.85-0.04,1.11,0.11,1.84,0.56 c1.17,0.71,1.83,0.6,3.41,0.95c2.5,0.56,3.35,1.55,8.86,3.37c1.88,0.64,4.51,1.4,6.95,2.58c-1.85,0.28-3.79-1.12-6.67-1.65 c-0.28-0.05-0.41-0.19-0.64-0.35c-0.34-0.24-0.95-0.33-0.97-0.35c-2.08-0.46-1.82-0.23-1.74-0.21c2.64,0.54,2.2,0.64,2.75,0.98 c0.55,0.35,0.88,0.11,2.82,1.02c0.21,0.09,0.18,0.22-0.08,0.23c-0.1,0-1.24-0.14-1.25-0.14c-0.47-0.05-1.47-0.11-2.57-0.67 c-0.12-0.06-3.54-1.63-3.68-1.44c-0.09,0.13,0.54,0.23,1.26,0.61c0.41,0.21,0.79,0.46,1.2,0.68c0.33,0.18,0.71,0.33,1.03,0.53 c3.27,2.07,2.69,0.51,4.65,1.88c0.65,0.45,1.64,0.48,2.9,1.13c1.5,0.78-0.11,0.62,4.82,0.62C93.12,33.5,85.63,23.24,75.33,23.72z M80.49,42.71c-1.04-0.35-1.37-0.53-2.73-0.96c-0.01,0-14.34-3.92-16.1-4.89c-0.01,0-0.05,0.66-0.05,1.22 c0,0.51,18.67,6.39,18.19,6.48c-0.52,0.09-1.16-0.21-1.78,0.05c1.05,1.01,1.78-0.24,3.17,0.7c0.24,0.16,1.14,0.07,0.68-0.13 c-2.41-1.05,0.35-0.24-5.44-2.3c-1.61-0.57-2-0.71-1.44-0.6c6.74,1.42,5.7,1.98,7.7,1.9c0.45-0.02,1.29-0.24,0.95-0.42 C83.31,43.59,81.41,43.02,80.49,42.71z"></path> <path class="st1" d="M65.43,73.01l-2.52,5.96h0.72l0.62-1.47h2.89l0.62,1.47h0.72l-2.52-5.96H65.43z M64.5,76.88l1.19-2.84 l1.19,2.84H64.5z M71.42,75.56C70.7,75.24,70.2,75,70.2,74.4c0-0.52,0.46-0.89,1.01-0.89c0.55,0,0.86,0.27,1.08,0.68l0.56-0.32 c-0.32-0.59-0.84-0.98-1.63-0.98c-0.97,0-1.69,0.64-1.69,1.52c0,0.94,0.67,1.31,1.57,1.72c0.83,0.38,1.32,0.62,1.32,1.33 c0,0.56-0.39,1.01-1.2,1.01c-0.67,0-1.23-0.37-1.5-1.08l-0.57,0.27c0.34,0.94,1.12,1.43,2.06,1.43c1.22,0,1.87-0.71,1.87-1.63 C73.09,76.45,72.52,76.04,71.42,75.56z M76.34,75.56c-0.72-0.32-1.22-0.56-1.22-1.15c0-0.52,0.46-0.89,1.01-0.89 c0.55,0,0.86,0.27,1.08,0.68l0.56-0.32c-0.32-0.59-0.84-0.98-1.63-0.98c-0.97,0-1.68,0.64-1.68,1.52c0,0.94,0.67,1.31,1.57,1.72 c0.83,0.38,1.32,0.62,1.32,1.33c0,0.56-0.39,1.01-1.2,1.01c-0.67,0-1.23-0.37-1.5-1.08l-0.57,0.27c0.34,0.94,1.12,1.43,2.06,1.43 c1.22,0,1.87-0.71,1.87-1.63C78,76.45,77.43,76.04,76.34,75.56z M80.08,76.13h2.54v-0.62h-2.54v-1.89h2.7v-0.62h-3.37v5.96h3.43 v-0.62h-2.76V76.13z M83.79,73.62h1.63v5.35h0.67v-5.35h1.63v-0.62h-3.92V73.62z M93.56,76.79l-2.28-3.78h-0.62v5.96h0.66v-4.64 l2.23,3.64l2.22-3.64v4.65h0.66v-5.96h-0.61L93.56,76.79z M100.27,73.01l-2.52,5.96h0.72l0.62-1.47h2.89l0.62,1.47h0.72 l-2.52-5.96H100.27z M99.33,76.88l1.19-2.84l1.19,2.84H99.33z M108.78,77.78l-3.6-4.77h-0.58v5.96h0.67v-4.82l3.64,4.82h0.54 v-5.96h-0.67V77.78z M113.27,73.01l-2.52,5.96h0.72l0.62-1.47h2.89l0.62,1.47h0.72l-2.52-5.96H113.27z M112.34,76.88l1.19-2.84 l1.19,2.84H112.34z M119.79,76.34h1.82v1.54c-0.43,0.38-0.99,0.6-1.63,0.6c-1.4,0-2.44-1.06-2.44-2.48c0-1.41,1.04-2.48,2.44-2.48 c0.65,0,1.21,0.23,1.64,0.62l0.42-0.46c-0.55-0.5-1.26-0.78-2.06-0.78c-1.72,0-3.11,1.31-3.11,3.1c0,1.79,1.39,3.1,3.11,3.1 c0.92,0,1.73-0.37,2.3-0.98v-2.39h-2.49V76.34z M124.46,76.13h2.54v-0.62h-2.54v-1.89h2.7v-0.62h-3.37v5.96h3.43v-0.62h-2.76 V76.13z M131.59,76.79l-2.28-3.78h-0.62v5.96h0.66v-4.64l2.23,3.64l2.22-3.64v4.65h0.66v-5.96h-0.61L131.59,76.79z M136.93,76.13 h2.54v-0.62h-2.54v-1.89h2.7v-0.62h-3.37v5.96h3.43v-0.62h-2.76V76.13z M145.35,77.78l-3.6-4.77h-0.58v5.96h0.67v-4.82l3.64,4.82 h0.54v-5.96h-0.67V77.78z M147.27,73.01v0.62h1.63v5.35h0.67v-5.35h1.63v-0.62H147.27z"></path> </g> </g> </svg> 