<svg class="custom-logo style-svg replaced-svg svg-replaced-0" id="svg-replaced-0" fill="none" viewBox="0 0 206 50" height="50" width="206" xmlns="http://www.w3.org/2000/svg">
<g clip-path="url(#clip0_6086_56916)">
<path fill="#321A51" d="M78.0515 35.8984H73.4339C73.3229 35.9079 73.2115 35.8862 73.1121 35.8359C73.0126 35.7856 72.929 35.7086 72.8706 35.6134L66.8181 27.1303L65.1666 29.0627V35.4492C65.1725 35.5141 65.1641 35.5795 65.142 35.6408C65.1199 35.7021 65.0846 35.7578 65.0387 35.8039C64.9927 35.85 64.9373 35.8854 64.8761 35.9076C64.815 35.9298 64.7498 35.9382 64.6851 35.9323H60.8042C60.7395 35.9382 60.6743 35.9298 60.6132 35.9076C60.552 35.8854 60.4966 35.85 60.4506 35.8039C60.4047 35.7578 60.3694 35.7021 60.3473 35.6408C60.3252 35.5795 60.3168 35.5141 60.3227 35.4492V14.454C60.3159 14.3889 60.3237 14.3231 60.3455 14.2613C60.3672 14.1996 60.4025 14.1436 60.4486 14.0973C60.4948 14.051 60.5507 14.0156 60.6122 13.9937C60.6737 13.9719 60.7393 13.9641 60.8042 13.9709H64.7092C64.7741 13.9641 64.8397 13.9719 64.9012 13.9937C64.9627 14.0156 65.0186 14.051 65.0647 14.0973C65.1109 14.1436 65.1461 14.1996 65.1679 14.2613C65.1897 14.3231 65.1975 14.3889 65.1907 14.454V22.5844L72.0231 14.2221C72.0906 14.1389 72.177 14.0731 72.275 14.0302C72.373 13.9874 72.4798 13.9687 72.5865 13.9757H77.4545C77.8589 13.9757 77.936 14.2559 77.7 14.5361L70.0345 23.4057L78.3308 35.3332C78.5523 35.6279 78.4271 35.8984 78.0515 35.8984Z"></path>
<path fill="#321A51" d="M99.3944 14.454V17.8018C99.4012 17.867 99.3934 17.9328 99.3716 17.9945C99.3498 18.0562 99.3146 18.1123 99.2684 18.1586C99.2223 18.2049 99.1664 18.2402 99.1049 18.2621C99.0434 18.284 98.9778 18.2918 98.9129 18.2849H94.2664V35.4443C94.2723 35.5093 94.2639 35.5747 94.2418 35.636C94.2197 35.6973 94.1845 35.753 94.1385 35.7991C94.0926 35.8452 94.0371 35.8806 93.976 35.9028C93.9148 35.925 93.8496 35.9334 93.7849 35.9274H89.8848C89.8201 35.9334 89.7548 35.925 89.6937 35.9028C89.6326 35.8806 89.5771 35.8452 89.5312 35.7991C89.4852 35.753 89.4499 35.6973 89.4278 35.636C89.4057 35.5747 89.3973 35.5093 89.4033 35.4443V18.2704H84.7568C84.6921 18.2764 84.6269 18.268 84.5658 18.2458C84.5046 18.2236 84.4491 18.1882 84.4032 18.1421C84.3572 18.096 84.322 18.0403 84.2998 17.979C84.2777 17.9177 84.2694 17.8523 84.2753 17.7873V14.4395C84.2694 14.3746 84.2777 14.3091 84.2998 14.2478C84.322 14.1865 84.3572 14.1309 84.4032 14.0848C84.4491 14.0386 84.5046 14.0033 84.5658 13.9811C84.6269 13.9589 84.6921 13.9505 84.7568 13.9564H98.8888C98.9569 13.945 99.0267 13.9499 99.0926 13.9708C99.1584 13.9916 99.2184 14.0277 99.2677 14.0762C99.317 14.1247 99.3541 14.1842 99.3762 14.2499C99.3982 14.3155 99.4044 14.3855 99.3944 14.454Z"></path>
<path fill="#321A51" d="M107.78 13.9854H111.68C111.745 13.9795 111.81 13.9879 111.871 14.0101C111.933 14.0323 111.988 14.0676 112.034 14.1137C112.08 14.1598 112.115 14.2155 112.137 14.2768C112.159 14.3381 112.168 14.4036 112.162 14.4685V35.4444C112.168 35.5093 112.159 35.5747 112.137 35.636C112.115 35.6973 112.08 35.753 112.034 35.7991C111.988 35.8452 111.933 35.8806 111.871 35.9028C111.81 35.925 111.745 35.9334 111.68 35.9274H107.78C107.716 35.9334 107.65 35.925 107.589 35.9028C107.528 35.8806 107.473 35.8452 107.427 35.7991C107.381 35.753 107.345 35.6973 107.323 35.636C107.301 35.5747 107.293 35.5093 107.299 35.4444V14.454C107.294 14.3901 107.304 14.3259 107.326 14.2659C107.349 14.206 107.385 14.1519 107.431 14.1072C107.477 14.0626 107.532 14.0285 107.592 14.0075C107.652 13.9864 107.717 13.9789 107.78 13.9854Z"></path>
<path fill="#321A51" d="M135.269 29.6377C135.269 34.0483 131.307 36.2705 127.594 36.2705C124.32 36.2705 121.388 34.6135 120.044 32.8309C119.966 32.738 119.925 32.6186 119.93 32.4967C119.936 32.3749 119.987 32.2596 120.073 32.1739L122.23 29.7585C122.266 29.7023 122.314 29.655 122.37 29.6203C122.427 29.5856 122.491 29.5644 122.557 29.5583C122.623 29.5523 122.689 29.5615 122.751 29.5853C122.813 29.6091 122.869 29.6469 122.914 29.6957C124.508 31.0097 125.909 31.6957 127.729 31.6957C129.227 31.6957 130.536 30.9131 130.536 29.5363C130.536 26.1256 120.646 27.2222 120.646 20.0532C120.646 16.0435 124.017 13.7295 127.604 13.7295C128.874 13.7282 130.131 13.9842 131.3 14.4823C132.47 14.9804 133.526 15.7102 134.407 16.628C134.462 16.6612 134.509 16.7067 134.543 16.761C134.577 16.8153 134.598 16.8768 134.604 16.9407C134.61 17.0046 134.601 17.069 134.578 17.1288C134.554 17.1886 134.518 17.2421 134.47 17.285L132.443 19.7585C132.418 19.8196 132.377 19.8735 132.326 19.9153C132.275 19.9571 132.214 19.9854 132.149 19.9979C132.084 20.0103 132.017 20.0064 131.954 19.9866C131.891 19.9667 131.834 19.9315 131.788 19.8841C130.228 18.7923 129.198 18.2899 127.763 18.2899C126.203 18.2899 125.389 19.1643 125.389 20.1353C125.379 23.5942 135.269 22 135.269 29.6377Z"></path>
<path fill="url(#paint0_linear_6086_56916)" d="M159.322 20.7682C159.322 22.4204 158.763 23.9469 157.55 25.6619L149.88 36.3189C149.851 36.3776 149.808 36.4283 149.755 36.4666C149.702 36.505 149.641 36.5297 149.576 36.5388C149.512 36.5478 149.446 36.5409 149.385 36.5186C149.323 36.4963 149.269 36.4592 149.225 36.4107L148.666 35.9276C148.612 35.8944 148.567 35.8497 148.532 35.7967C148.497 35.7436 148.475 35.6835 148.466 35.6207C148.457 35.558 148.463 35.494 148.481 35.4335C148.5 35.3729 148.532 35.3173 148.575 35.2706L154.213 27.4687C153.615 27.6328 152.998 27.7157 152.379 27.715C148.527 27.715 145.638 24.5991 145.638 20.7682C145.603 19.8463 145.754 18.9269 146.082 18.065C146.41 17.2031 146.908 16.4164 147.546 15.752C148.183 15.0875 148.948 14.559 149.794 14.198C150.641 13.837 151.551 13.6509 152.47 13.6509C153.39 13.6509 154.3 13.837 155.146 14.198C155.992 14.559 156.757 15.0875 157.395 15.752C158.033 16.4164 158.53 17.2031 158.858 18.065C159.186 18.9269 159.337 19.8463 159.303 20.7682H159.322ZM157.521 20.7682C157.521 17.6233 155.378 15.4107 152.489 15.4107C149.6 15.4107 147.472 17.6233 147.472 20.7682C147.472 23.8213 149.644 26.0339 152.504 26.0339C155.364 26.0339 157.521 23.8213 157.521 20.7682Z"></path>
<path fill="url(#paint1_linear_6086_56916)" d="M165.133 29.8648C165.161 28.5216 165.599 27.2193 166.387 26.1335C167.176 25.0478 168.278 24.2306 169.543 23.7923C168.607 23.3939 167.806 22.7313 167.237 21.8849C166.669 21.0385 166.358 20.0447 166.341 19.0242C166.341 16.2803 168.58 13.7102 171.932 13.7102C175.283 13.7102 177.522 16.2658 177.522 19.0242C177.507 20.0406 177.2 21.0312 176.638 21.877C176.076 22.7228 175.283 23.3879 174.354 23.7923C175.613 24.2372 176.707 25.0569 177.49 26.1419C178.273 27.2269 178.707 28.5256 178.735 29.8648C178.735 33.546 175.846 36.1933 171.932 36.1933C168.017 36.1933 165.133 33.546 165.133 29.8648ZM176.997 29.8358C176.997 26.8745 174.729 24.8793 171.932 24.8793C171.273 24.8556 170.616 24.9667 170.001 25.2059C169.386 25.4452 168.826 25.8074 168.356 26.2707C167.885 26.734 167.513 27.2885 167.263 27.9006C167.012 28.5127 166.889 29.1695 166.9 29.831C166.9 32.5411 168.951 34.5025 171.932 34.5025C174.912 34.5025 176.997 32.5798 176.997 29.831V29.8358ZM175.909 18.8696C175.846 16.9373 174.416 15.2513 171.932 15.2513C169.447 15.2513 168.022 16.9373 167.988 18.8696C167.976 19.3926 168.069 19.9128 168.263 20.3985C168.457 20.8842 168.747 21.3254 169.115 21.6953C169.484 22.0652 169.924 22.3562 170.408 22.5506C170.892 22.745 171.41 22.8387 171.932 22.8261C172.453 22.8339 172.971 22.7371 173.455 22.5414C173.939 22.3457 174.379 22.0551 174.749 21.6866C175.119 21.3181 175.413 20.8791 175.612 20.3954C175.811 19.9117 175.912 19.393 175.909 18.8696Z"></path>
<path fill="url(#paint2_linear_6086_56916)" d="M185.313 34.8841C185.316 34.6293 185.394 34.381 185.536 34.1703C185.679 33.9597 185.881 33.796 186.116 33.6998C186.351 33.6036 186.61 33.5792 186.859 33.6296C187.108 33.68 187.336 33.803 187.516 33.9832C187.695 34.1634 187.818 34.3927 187.868 34.6425C187.918 34.8923 187.894 35.1514 187.798 35.3874C187.702 35.6234 187.539 35.8257 187.329 35.9691C187.119 36.1124 186.872 36.1904 186.618 36.1933C186.445 36.198 186.273 36.1673 186.113 36.1031C185.953 36.039 185.807 35.9427 185.685 35.8202C185.563 35.6977 185.467 35.5515 185.403 35.3906C185.339 35.2296 185.308 35.0573 185.313 34.8841Z"></path>
<path fill="url(#paint3_linear_6086_56916)" d="M206.002 28.8068C206.002 33.3575 202.583 36.1594 198.702 36.1594C197.572 36.1768 196.453 35.9397 195.426 35.4657C194.399 34.9916 193.492 34.2927 192.77 33.4203C192.727 33.3737 192.694 33.3178 192.675 33.2569C192.657 33.1961 192.652 33.1317 192.661 33.0686C192.67 33.0055 192.693 32.9453 192.729 32.8924C192.764 32.8396 192.811 32.7955 192.866 32.7633L193.425 32.2367C193.473 32.191 193.53 32.1567 193.593 32.1362C193.656 32.1158 193.723 32.1097 193.789 32.1185C193.854 32.1273 193.917 32.1508 193.972 32.1871C194.028 32.2234 194.074 32.2718 194.109 32.3285C194.668 33.014 195.375 33.5635 196.176 33.9358C196.978 34.3081 197.853 34.4936 198.736 34.4783C199.675 34.4747 200.598 34.2319 201.418 33.7726C202.238 33.3133 202.929 32.6526 203.425 31.8524C203.921 31.0521 204.206 30.1386 204.254 29.1975C204.302 28.2564 204.111 27.3184 203.699 26.4716C203.287 25.6248 202.668 24.8968 201.898 24.3559C201.129 23.815 200.236 23.4789 199.302 23.3792C198.368 23.2794 197.424 23.4192 196.559 23.7855C195.693 24.1518 194.935 24.7326 194.354 25.4735C194.292 25.5766 194.192 25.6508 194.075 25.6798C193.959 25.7088 193.836 25.6901 193.733 25.628L193.049 25.2561C192.934 25.2044 192.84 25.1138 192.783 25.0001C192.727 24.8863 192.712 24.7565 192.741 24.6329L195.409 14.372C195.427 14.2577 195.486 14.1538 195.574 14.0794C195.663 14.0049 195.775 13.9647 195.89 13.9662H204.21C204.275 13.9603 204.34 13.9687 204.401 13.9909C204.463 14.013 204.518 14.0484 204.564 14.0945C204.61 14.1406 204.645 14.1963 204.667 14.2576C204.69 14.3189 204.698 14.3844 204.692 14.4493V15.1353C204.699 15.2004 204.691 15.2662 204.669 15.3279C204.647 15.3897 204.612 15.4457 204.566 15.492C204.52 15.5383 204.464 15.5737 204.402 15.5955C204.341 15.6174 204.275 15.6252 204.21 15.6184H196.776L194.884 22.942C196.076 22.0834 197.514 21.6359 198.981 21.6667C199.911 21.6685 200.831 21.8552 201.688 22.2159C202.545 22.5765 203.323 23.1041 203.975 23.768C204.628 24.4319 205.143 25.2191 205.491 26.0839C205.839 26.9488 206.012 27.8742 206.002 28.8068Z"></path>
<path fill="url(#paint4_linear_6086_56916)" d="M24.9176 0C19.9894 0 15.1718 1.46622 11.0741 4.21325C6.97646 6.96029 3.78271 10.8648 1.89676 15.4329C0.0108009 20.0011 -0.482657 25.0277 0.478794 29.8773C1.44025 34.7268 3.81342 39.1814 7.29821 42.6777C10.783 46.174 15.2229 48.555 20.0564 49.5196C24.89 50.4843 29.9001 49.9892 34.4532 48.097C39.0063 46.2048 42.8979 43.0005 45.6358 38.8893C48.3738 34.778 49.8352 29.9445 49.8352 25C49.8352 18.3696 47.21 12.0107 42.537 7.32233C37.8641 2.63392 31.5262 0 24.9176 0ZM34.1624 29.9082C34.1624 32.0242 32.0438 33.9903 29.4245 34.314C26.8051 34.6377 24.6913 33.2947 24.6913 31.1787C24.6913 29.0628 26.8099 27.0966 29.4245 26.7778C30.3654 26.6181 31.3324 26.7425 32.2027 27.1353V19.1256C32.2027 18.1256 31.1193 18.4831 31.1193 18.4831L21.3642 21.5556C21.3642 21.5556 20.2423 21.9565 20.2423 22.8937V32.8647C20.2423 34.9807 18.3163 36.9324 15.7065 37.3043C13.0968 37.6763 10.9686 36.3768 10.9686 34.2657C10.9686 32.1546 13.0872 30.1401 15.7065 29.7681C17.4881 29.5169 18.2874 30.058 18.2874 30.058V18.3768C18.325 17.6728 18.5755 16.997 19.0057 16.4394C19.4358 15.8819 20.025 15.4691 20.6949 15.256L31.726 11.8744C33.0646 11.4879 34.1335 12.2657 34.1335 13.6087L34.1624 29.9082Z"></path>
</g>
<defs>
<linearGradient gradientUnits="userSpaceOnUse" y2="25.1353" x2="205.998" y1="25.1353" x1="145.657" id="paint0_linear_6086_56916">
<stop stop-color="#000"></stop>
<stop stop-color="#000" offset="0.13"></stop>
<stop stop-color="#000" offset="0.34"></stop>
<stop stop-color="#000" offset="0.6"></stop>
<stop stop-color="#000" offset="0.91"></stop>
<stop stop-color="#000" offset="1"></stop>
</linearGradient>
<linearGradient gradientUnits="userSpaceOnUse" y2="25.1353" x2="206.003" y1="25.1353" x1="145.661" id="paint1_linear_6086_56916">
<stop stop-color="#000"></stop>
<stop stop-color="#000" offset="0.13"></stop>
<stop stop-color="#000" offset="0.34"></stop>
<stop stop-color="#000" offset="0.6"></stop>
<stop stop-color="#000" offset="0.91"></stop>
<stop stop-color="#000" offset="1"></stop>
</linearGradient>
<linearGradient gradientUnits="userSpaceOnUse" y2="25.1353" x2="205.998" y1="25.1353" x1="145.657" id="paint2_linear_6086_56916">
<stop stop-color="#000"></stop>
<stop stop-color="#000" offset="0.13"></stop>
<stop stop-color="#000" offset="0.34"></stop>
<stop stop-color="#000" offset="0.6"></stop>
<stop stop-color="#000" offset="0.91"></stop>
<stop stop-color="#000" offset="1"></stop>
</linearGradient>
<linearGradient gradientUnits="userSpaceOnUse" y2="25.1353" x2="206.002" y1="25.1353" x1="145.66" id="paint3_linear_6086_56916">
<stop stop-color="#000"></stop>
<stop stop-color="#000" offset="0.13"></stop>
<stop stop-color="#000" offset="0.34"></stop>
<stop stop-color="#000" offset="0.6"></stop>
<stop stop-color="#000" offset="0.91"></stop>
<stop stop-color="#000" offset="1"></stop>
</linearGradient>
<linearGradient gradientUnits="userSpaceOnUse" y2="33.4513" x2="48.3738" y1="16.4493" x1="1.49747" id="paint4_linear_6086_56916">
<stop stop-color="#000"></stop>
<stop stop-color="#000" offset="0.13"></stop>
<stop stop-color="#000" offset="0.34"></stop>
<stop stop-color="#000" offset="0.6"></stop>
<stop stop-color="#000" offset="0.91"></stop>
<stop stop-color="#000" offset="1"></stop>
</linearGradient>
<clipPath id="clip0_6086_56916">
<rect fill="white" height="50" width="206"></rect>
</clipPath>
</defs>
</svg>