<svg class="custom-logo style-svg replaced-svg svg-replaced-0" id="svg-replaced-0" fill="none" viewBox="0 0 117 38" height="38" width="117" xmlns="http://www.w3.org/2000/svg">
<path fill="#000" d="M112.516 10.8129C113.812 10.8129 114.579 9.78951 114.579 8.37645C114.579 6.9634 113.812 5.93999 112.516 5.93999C111.22 5.93999 110.436 6.97983 110.436 8.37645C110.436 9.77308 111.237 10.8129 112.516 10.8129ZM112.107 4.04574C113.283 4.04574 114.136 4.60909 114.511 5.30623V0.712625C114.511 0.595261 114.607 0.499023 114.725 0.499023H116.448C116.565 0.499023 116.661 0.595261 116.661 0.712625V12.2189C116.661 12.3363 116.565 12.4302 116.448 12.4302H114.896C114.779 12.4302 114.685 12.3363 114.685 12.2189V11.273H114.633C114.105 12.2964 113.03 12.6884 112.058 12.6884C109.894 12.6884 108.274 10.9491 108.274 8.37645C108.274 5.80385 109.962 4.04574 112.11 4.04574"></path>
<path fill="#000" d="M56.6983 0.712625V10.3693H61.5642C61.6815 10.3693 61.7778 10.4632 61.7778 10.5805V12.2189C61.7778 12.3363 61.6815 12.4302 61.5642 12.4302H54.6585C54.5412 12.4302 54.4473 12.3363 54.4473 12.2189V0.712625C54.4473 0.595261 54.5412 0.499023 54.6585 0.499023H56.4847C56.6021 0.499023 56.6983 0.595261 56.6983 0.712625Z"></path>
<path fill="#000" d="M66.0898 11.0006C67.0099 11.0006 67.8103 10.4372 67.8103 9.80814V9.28C67.5709 9.07579 66.9747 8.92322 66.3456 8.92322C65.3574 8.92322 64.7941 9.33164 64.7941 9.96306C64.7941 10.5945 65.2706 11.0029 66.0898 11.0029M68.092 12.4347C67.9746 12.4347 67.8807 12.3408 67.8807 12.2235V11.6343H67.8126C67.4207 12.2469 66.4489 12.6742 65.4771 12.6742C63.8059 12.6742 62.6299 11.6179 62.6299 10.1344C62.6299 8.44672 63.942 7.44209 66.1062 7.44209C66.8057 7.44209 67.5028 7.59467 67.7774 7.74959V7.15338C67.7774 6.26611 67.2657 5.75676 66.3972 5.75676C65.7283 5.75676 65.2846 6.05486 65.071 6.4445C65.0335 6.51492 64.9537 6.55248 64.8739 6.54544L63.151 6.4093C63.0054 6.39756 62.9162 6.24733 62.9726 6.11119C63.5195 4.79907 64.7964 4.05029 66.5357 4.05029C68.6999 4.05029 69.9111 5.20984 69.9111 7.28952V12.2258C69.9111 12.3432 69.8149 12.4371 69.6975 12.4371H68.0943L68.092 12.4347Z"></path>
<path fill="#000" d="M76.7349 12.4326C76.6175 12.4326 76.5213 12.3387 76.5213 12.2213V7.62539C76.5213 6.50105 76.026 5.9377 75.1575 5.9377C74.221 5.9377 73.4534 6.67005 73.4534 7.76153V12.219C73.4534 12.3364 73.3572 12.4302 73.2398 12.4302H71.5169C71.3996 12.4302 71.3057 12.3364 71.3057 12.219V4.51291C71.3057 4.39555 71.3996 4.30166 71.5169 4.30166H73.0872C73.2046 4.30166 73.3008 4.39555 73.3008 4.51291V5.32272H73.336C73.7961 4.59037 74.6998 4.04346 75.8242 4.04346C77.5799 4.04346 78.6714 5.21944 78.6714 7.23105V12.2166C78.6714 12.334 78.5751 12.4279 78.4578 12.4279H76.7349V12.4326Z"></path>
<path fill="#000" d="M84.0228 10.8129C85.3184 10.8129 86.086 9.78951 86.086 8.37645C86.086 6.9634 85.3184 5.93999 84.0228 5.93999C82.7271 5.93999 81.9431 6.97983 81.9431 8.37645C81.9431 9.77308 82.7435 10.8129 84.0228 10.8129ZM83.6143 4.04574C84.7903 4.04574 85.6424 4.60909 86.0179 5.30623V0.712625C86.0179 0.595261 86.1142 0.499023 86.2315 0.499023H87.9544C88.0718 0.499023 88.168 0.595261 88.168 0.712625V12.2189C88.168 12.3363 88.0718 12.4302 87.9544 12.4302H86.4029C86.2855 12.4302 86.1916 12.3363 86.1916 12.2189V11.273H86.14C85.6119 12.2964 84.5368 12.6884 83.565 12.6884C81.4009 12.6884 79.7812 10.9491 79.7812 8.37645C79.7812 5.80385 81.4689 4.04574 83.6167 4.04574"></path>
<path fill="#000" d="M91.8461 0.712625V12.2189C91.8461 12.3363 91.7499 12.4302 91.6325 12.4302H89.9096C89.7923 12.4302 89.696 12.3363 89.696 12.2189V0.712625C89.696 0.595261 89.7923 0.499023 89.9096 0.499023H91.6325C91.7499 0.499023 91.8461 0.595261 91.8461 0.712625Z"></path>
<path fill="#000" d="M97.2848 10.8126C98.5452 10.8126 99.4161 9.84081 99.4161 8.37612C99.4161 6.91142 98.5476 5.93965 97.2848 5.93965C96.0219 5.93965 95.137 6.89499 95.137 8.37612C95.137 9.85724 96.0243 10.8126 97.2848 10.8126ZM97.2848 4.04541C99.6203 4.04541 101.58 5.62982 101.58 8.37612C101.58 11.1224 99.6203 12.688 97.2848 12.688C94.9492 12.688 92.9893 11.1036 92.9893 8.37612C92.9893 5.64859 94.9492 4.04541 97.2848 4.04541Z"></path>
<path fill="#000" d="M104.402 4.30167C104.519 4.30167 104.615 4.39556 104.615 4.51292V5.61379H104.651C105.059 4.69366 105.878 4.16553 106.815 4.16553C106.995 4.16553 107.153 4.18665 107.275 4.22186C107.366 4.24768 107.43 4.33218 107.43 4.42607V6.06447C107.43 6.19826 107.308 6.29685 107.176 6.27337C107.063 6.25225 106.944 6.24286 106.833 6.24286C105.657 6.24286 104.77 6.87427 104.77 8.7826V12.2167C104.77 12.334 104.674 12.4279 104.557 12.4279H102.834C102.716 12.4279 102.62 12.334 102.62 12.2167V4.51292C102.62 4.39556 102.716 4.30167 102.834 4.30167H104.404H104.402Z"></path>
<path fill="#000" d="M60.6416 22.5728H58.3906C57.0784 22.5728 56.379 23.2371 56.379 24.2441C56.379 25.3355 57.231 26.0327 58.9351 26.0327H60.6392V22.5728H60.6416ZM58.921 27.9598C55.7687 27.9598 54.0974 26.6477 54.0974 24.3966C54.0974 22.8287 54.8978 21.7372 56.4165 21.4649C55.257 21.2443 54.473 20.2373 54.473 18.9416C54.473 17.1178 56.0245 15.8901 58.752 15.8901C59.3037 15.8901 59.7966 15.9418 60.0923 15.9887C60.2097 16.0075 60.2872 16.1178 60.266 16.2352L60.0125 17.6999C59.9937 17.8102 59.8928 17.8877 59.7801 17.8736C59.5337 17.8454 59.2379 17.8337 58.9727 17.8337C57.4728 17.8337 56.7569 18.3782 56.7569 19.2491C56.7569 20.1199 57.508 20.6457 58.7685 20.6457H60.6439V18.9158C60.6439 18.7984 60.7402 18.7045 60.8575 18.7045H62.6133C62.7307 18.7045 62.8269 18.7984 62.8269 18.9158V20.6457H64.1109C64.2282 20.6457 64.3221 20.7396 64.3221 20.857V22.3592C64.3221 22.4766 64.2282 22.5705 64.1109 22.5705H62.8269V27.7438C62.8269 27.8612 62.7307 27.9551 62.6133 27.9551H58.9234L58.921 27.9598Z"></path>
<path fill="#000" d="M77.199 18.1081H73.9504V27.7483C73.9504 27.8657 73.8565 27.9596 73.7391 27.9596H71.9129C71.7956 27.9596 71.6993 27.8657 71.6993 27.7483V18.1081H68.4343C68.3169 18.1081 68.2207 18.0142 68.2207 17.8968V16.242C68.2207 16.1247 68.3169 16.0308 68.4343 16.0308H77.1966C77.314 16.0308 77.4103 16.1247 77.4103 16.242V17.8968C77.4103 18.0142 77.314 18.1081 77.1966 18.1081"></path>
<path fill="#000" d="M77.3918 23.0326H81.1591C81.0911 21.805 80.2883 21.2252 79.3353 21.2252C78.3307 21.2252 77.6148 21.8214 77.3918 23.0326ZM79.5043 28.2154C76.981 28.2154 75.1924 26.408 75.1924 23.9199C75.1924 21.4318 76.9153 19.5728 79.3001 19.5728C81.6849 19.5728 83.3726 21.1924 83.3914 23.988V24.2861C83.3914 24.4034 83.2951 24.4973 83.1778 24.4973H77.373C77.5772 25.6733 78.3964 26.4573 79.5207 26.4573C80.2648 26.4573 80.8469 26.1334 81.199 25.57C81.2483 25.4902 81.3493 25.4574 81.4408 25.4832L82.8233 25.8775C82.9548 25.9151 83.0158 26.0629 82.9524 26.185C82.253 27.5276 81.0864 28.2154 79.5043 28.2154Z"></path>
<path fill="#000" d="M89.9116 27.9595C89.7943 27.9595 89.698 27.8656 89.698 27.7483V23.1547C89.698 22.0303 89.2028 21.467 88.3343 21.467C87.3977 21.467 86.6302 22.1993 86.6302 23.2908V27.7483C86.6302 27.8656 86.5339 27.9595 86.4166 27.9595H84.6937C84.5763 27.9595 84.4824 27.8656 84.4824 27.7483V20.0422C84.4824 19.9248 84.5763 19.831 84.6937 19.831H86.264C86.3814 19.831 86.4776 19.9272 86.4776 20.0422V20.852H86.5128C86.9729 20.1197 87.8766 19.5728 89.0009 19.5728C90.7567 19.5728 91.8481 20.7487 91.8481 22.7603V27.7459C91.8481 27.8633 91.7519 27.9572 91.6345 27.9572H89.9116V27.9595Z"></path>
<path fill="#000" d="M96.3651 26.5279C97.2853 26.5279 98.0857 25.9645 98.0857 25.3355V24.8073C97.8463 24.6031 97.2501 24.4506 96.621 24.4506C95.6328 24.4506 95.0695 24.859 95.0695 25.4904C95.0695 26.1218 95.546 26.5302 96.3651 26.5302M98.3674 27.9621C98.25 27.9621 98.1561 27.8682 98.1561 27.7508V27.1617H98.088C97.696 27.7743 96.7243 28.2015 95.7525 28.2015C94.0813 28.2015 92.9053 27.1452 92.9053 25.6618C92.9053 23.9741 94.2174 22.9694 96.3816 22.9694C97.0811 22.9694 97.7782 23.122 98.0528 23.2769V22.6807C98.0528 21.7935 97.5411 21.2841 96.6726 21.2841C96.0037 21.2841 95.56 21.5822 95.3464 21.9718C95.3089 22.0423 95.2291 22.0798 95.1493 22.0728L93.4264 21.9366C93.2808 21.9249 93.1916 21.7747 93.248 21.6385C93.7949 20.3264 95.0718 19.5776 96.8111 19.5776C98.9753 19.5776 100.187 20.7372 100.187 22.8169V27.7508C100.187 27.8682 100.09 27.9621 99.9729 27.9621H98.3697H98.3674Z"></path>
<path fill="#000" d="M106.768 27.9595C106.65 27.9595 106.554 27.8656 106.554 27.7483V23.1547C106.554 22.0303 106.059 21.467 105.19 21.467C104.254 21.467 103.486 22.1993 103.486 23.2908V27.7483C103.486 27.8656 103.39 27.9595 103.272 27.9595H101.55C101.432 27.9595 101.336 27.8656 101.336 27.7483V20.0422C101.336 19.9248 101.432 19.831 101.55 19.831H103.12C103.237 19.831 103.333 19.9272 103.333 20.0422V20.852H103.369C103.829 20.1197 104.732 19.5728 105.857 19.5728C107.613 19.5728 108.704 20.7487 108.704 22.7603V27.7459C108.704 27.8633 108.608 27.9572 108.49 27.9572H106.768V27.9595Z"></path>
<path fill="#000" d="M115.103 26.4667C115.087 26.3376 114.96 26.2555 114.835 26.2907C114.692 26.3306 114.521 26.3588 114.319 26.3588C113.519 26.3588 113.11 26.0184 113.11 24.9269V21.6548H114.995C115.112 21.6548 115.206 21.5586 115.206 21.4436V20.0446C115.206 19.9273 115.112 19.8334 114.995 19.8334H113.11V17.0941C113.11 16.9298 112.934 16.8289 112.791 16.911L111.068 17.9063C111.002 17.9438 110.962 18.0142 110.962 18.0893V19.8357H109.777C109.66 19.8357 109.563 19.9296 109.563 20.047V21.4459C109.563 21.5633 109.66 21.6572 109.777 21.6572H110.962V25.2696C110.962 27.4174 112.19 28.1333 113.894 28.1333C114.401 28.1333 114.826 28.0629 115.122 27.9713C115.22 27.9408 115.284 27.8422 115.27 27.7413L115.105 26.4691L115.103 26.4667Z"></path>
<path fill="#000" d="M56.3982 32.6116H55.5814V34.3815H56.5179C57.2315 34.3815 57.5578 33.9684 57.5578 33.4872C57.5578 33.006 57.248 32.6093 56.3982 32.6093M55.5814 35.4119V37.4705C55.5814 37.5292 55.5344 37.5785 55.4734 37.5785H54.5533C54.4946 37.5785 54.4453 37.5292 54.4453 37.4705V31.668C54.4453 31.6093 54.4923 31.5601 54.5533 31.5601H56.6118C57.7456 31.5601 58.7267 32.2572 58.7267 33.4848C58.7267 34.5927 57.8676 35.4096 56.7081 35.4096H55.5814V35.4119Z"></path>
<path fill="#000" d="M60.1344 33.4802C60.193 33.4802 60.2423 33.5271 60.2423 33.5882V34.1421H60.2588C60.4653 33.6774 60.8784 33.4121 61.3502 33.4121C61.4418 33.4121 61.5216 33.4238 61.5826 33.4403C61.6296 33.4544 61.6601 33.4966 61.6601 33.5436V34.3698C61.6601 34.4379 61.599 34.4872 61.5333 34.4754C61.477 34.466 61.416 34.4613 61.3596 34.4613C60.7658 34.4613 60.3198 34.7782 60.3198 35.7406V37.4729C60.3198 37.5316 60.2705 37.5809 60.2118 37.5809H59.3433C59.2846 37.5809 59.2354 37.5339 59.2354 37.4729V33.5882C59.2354 33.5295 59.2823 33.4802 59.3433 33.4802H60.1344Z"></path>
<path fill="#000" d="M64.0757 36.764C64.7118 36.764 65.1508 36.2734 65.1508 35.534C65.1508 34.7946 64.7118 34.3041 64.0757 34.3041C63.4396 34.3041 62.9936 34.7853 62.9936 35.534C62.9936 36.2828 63.4419 36.764 64.0757 36.764ZM64.0757 33.3511C65.254 33.3511 66.2422 34.1491 66.2422 35.534C66.2422 36.9189 65.254 37.7076 64.0757 37.7076C62.8974 37.7076 61.9092 36.9072 61.9092 35.534C61.9092 34.1609 62.8974 33.3511 64.0757 33.3511Z"></path>
<path fill="#000" d="M70.5991 35.0974H72.4981C72.4629 34.4778 72.0591 34.1867 71.5779 34.1867C71.0709 34.1867 70.7094 34.4871 70.5991 35.0974ZM71.6648 37.7099C70.3926 37.7099 69.4912 36.7992 69.4912 35.5434C69.4912 34.2876 70.3597 33.3511 71.5615 33.3511C72.7633 33.3511 73.6154 34.1679 73.6248 35.5786V35.7289C73.6248 35.7875 73.5778 35.8368 73.5168 35.8368H70.5897C70.693 36.4307 71.1061 36.825 71.6718 36.825C72.0474 36.825 72.3408 36.6631 72.5192 36.3767C72.545 36.3368 72.5943 36.318 72.6412 36.3321L73.3384 36.5316C73.4041 36.5504 73.4346 36.6255 73.4041 36.6865C73.052 37.3649 72.4629 37.7099 71.6648 37.7099Z"></path>
<path fill="#000" d="M77.9223 34.8041L77.0819 34.9215C77.0326 34.9285 76.9857 34.898 76.9669 34.8511C76.8308 34.506 76.5327 34.3065 76.1102 34.3065C75.4647 34.3065 75.1055 34.8135 75.1055 35.5365C75.1055 36.2594 75.467 36.7664 76.1102 36.7664C76.5303 36.7664 76.812 36.5528 76.9481 36.2148C76.9669 36.1655 77.0209 36.1421 77.0725 36.1538L77.8823 36.3604C77.9434 36.3768 77.9786 36.4425 77.9575 36.5012C77.6828 37.2805 77.0232 37.7124 76.1454 37.7124C74.8732 37.7124 74.0234 36.8087 74.0234 35.5294C74.0234 34.2502 74.9436 33.3535 76.0867 33.3535C77.096 33.3535 77.7532 33.8089 78.0138 34.6656C78.0326 34.729 77.9927 34.7947 77.9269 34.8041"></path>
<path fill="#000" d="M81.5938 37.4732V33.5884C81.5938 33.5298 81.6407 33.4805 81.7017 33.4805H82.5702C82.6289 33.4805 82.6782 33.5274 82.6782 33.5884V37.4732C82.6782 37.5319 82.6289 37.5811 82.5702 37.5811H81.7017C81.643 37.5811 81.5938 37.5342 81.5938 37.4732Z"></path>
<path fill="#000" d="M85.4175 36.764C86.0536 36.764 86.4926 36.2734 86.4926 35.534C86.4926 34.7946 86.0536 34.3041 85.4175 34.3041C84.7814 34.3041 84.3354 34.7853 84.3354 35.534C84.3354 36.2828 84.7837 36.764 85.4175 36.764ZM85.4175 33.3511C86.5958 33.3511 87.584 34.1491 87.584 35.534C87.584 36.9189 86.5958 37.7076 85.4175 37.7076C84.2392 37.7076 83.251 36.9072 83.251 35.534C83.251 34.1609 84.2392 33.3511 85.4175 33.3511Z"></path>
<path fill="#000" d="M90.8701 37.5808C90.8114 37.5808 90.7622 37.5339 90.7622 37.4729V35.1561C90.7622 34.5881 90.5133 34.3064 90.0744 34.3064C89.6002 34.3064 89.2153 34.6749 89.2153 35.2265V37.4752C89.2153 37.5339 89.1684 37.5832 89.1073 37.5832H88.2388C88.1802 37.5832 88.1309 37.5362 88.1309 37.4752V33.5881C88.1309 33.5295 88.1778 33.4802 88.2388 33.4802H89.0299C89.0885 33.4802 89.1378 33.5271 89.1378 33.5881V33.9966H89.1543C89.3867 33.6281 89.842 33.3511 90.4101 33.3511C91.295 33.3511 91.8466 33.9449 91.8466 34.9589V37.4729C91.8466 37.5316 91.7996 37.5808 91.7386 37.5808H90.8701Z"></path>
<path fill="#000" d="M81.5322 32.1614C81.5322 32.4947 81.8022 32.7669 82.1355 32.7669C82.4688 32.7669 82.7411 32.497 82.7411 32.1614C82.7411 31.8257 82.4711 31.5581 82.1355 31.5581C81.7998 31.5581 81.5322 31.828 81.5322 32.1614Z"></path>
<path fill="#000" d="M80.9995 36.8274C80.9902 36.7617 80.9268 36.7218 80.8634 36.7382C80.7906 36.7593 80.7061 36.7711 80.6052 36.7711C80.2015 36.7711 79.9949 36.5997 79.9949 36.0481V34.398H80.9456C81.0042 34.398 81.0535 34.3487 81.0535 34.29V33.5835C81.0535 33.5248 81.0066 33.4755 80.9456 33.4755H79.9949V32.093C79.9949 32.0108 79.9057 31.9592 79.8353 32.0014L78.9668 32.5037C78.934 32.5225 78.9128 32.5577 78.9128 32.5976V33.4778H78.3143C78.2556 33.4778 78.2063 33.5248 78.2063 33.5858V34.2923C78.2063 34.351 78.2532 34.4003 78.3143 34.4003H78.9128V36.2218C78.9128 37.3039 79.5325 37.6654 80.3916 37.6654C80.6475 37.6654 80.8611 37.6302 81.0113 37.5832C81.0606 37.5668 81.0934 37.5198 81.0864 37.4658L81.0019 36.825L80.9995 36.8274Z"></path>
<path fill="#000" d="M69.1809 36.8274C69.1716 36.7617 69.1082 36.7218 69.0448 36.7382C68.972 36.7593 68.8875 36.7711 68.7866 36.7711C68.3829 36.7711 68.1763 36.5997 68.1763 36.0481V34.398H69.127C69.1856 34.398 69.2349 34.3487 69.2349 34.29V33.5835C69.2349 33.5248 69.188 33.4755 69.127 33.4755H68.1763V32.093C68.1763 32.0108 68.0871 31.9592 68.0167 32.0014L67.1482 32.5037C67.1154 32.5225 67.0942 32.5577 67.0942 32.5976V33.4778H66.4957C66.437 33.4778 66.3877 33.5248 66.3877 33.5858V34.2923C66.3877 34.351 66.4346 34.4003 66.4957 34.4003H67.0942V36.2218C67.0942 37.3039 67.7139 37.6654 68.573 37.6654C68.8289 37.6654 69.0425 37.6302 69.1927 37.5832C69.242 37.5668 69.2748 37.5198 69.2678 37.4658L69.1856 36.825L69.1809 36.8274Z"></path>
<path fill="#000" d="M13.3819 6.35772C13.3819 9.70962 10.6661 12.4254 7.31417 12.4254C3.96228 12.4254 1.24414 9.70962 1.24414 6.35772C1.24414 3.00583 3.96228 0.290039 7.31183 0.290039C10.6614 0.290039 13.3795 3.00583 13.3795 6.35772"></path>
<path fill="#000" d="M23.2826 6.64616C23.522 6.2307 23.86 5.90677 24.2496 5.68848C24.2426 5.69317 24.2332 5.69787 24.2262 5.70256L11.2857 13.1739C10.2693 13.7607 8.99945 14.2466 7.33993 14.2466C4.77906 14.2466 2.48813 16.1948 1.6126 18.6008L0.129123 22.6827C-0.373192 24.0676 0.652564 25.5323 2.1243 25.5323H9.75527C11.0956 25.5323 12.1823 26.6191 12.1823 27.9593H15.8206V17.737C15.8206 16.9788 16.2243 16.2793 16.8816 15.8991L25.5148 10.9135L24.2262 10.1694C22.9915 9.45819 22.569 7.88082 23.2826 6.64616Z"></path>
<path fill="#000" d="M27.3297 23.7111C27.3297 22.7065 26.5152 21.8896 25.5105 21.8896C24.5059 21.8896 23.6914 22.7042 23.6914 23.7111V27.9597H27.3297V23.7111Z"></path>
<path fill="#000" d="M37.6526 6.35772C37.6526 9.70962 40.3684 12.4254 43.7203 12.4254C47.0722 12.4254 49.788 9.70962 49.788 6.35772C49.788 3.00583 47.0722 0.290039 43.7203 0.290039C40.3684 0.290039 37.6526 3.00583 37.6526 6.35772Z"></path>
<path fill="#000" d="M24.228 10.1697C22.9934 9.4585 22.5708 7.87879 23.2844 6.64648C23.9956 5.41181 25.5754 4.98931 26.8077 5.70288L39.7481 13.1742C40.7645 13.761 42.0344 14.2469 43.6939 14.2469C46.2548 14.2469 48.5457 16.1952 49.4212 18.6011L50.9047 22.683C51.4094 24.0679 50.3836 25.5326 48.9095 25.5326H41.2786C39.9383 25.5326 38.8515 26.6194 38.8515 27.9597H35.2132V17.7373C35.2132 16.9791 34.8095 16.2797 34.1523 15.8994L24.228 10.1697Z"></path>
</svg>