<svg class="custom-logo style-svg replaced-svg svg-replaced-0" id="svg-replaced-0" fill="none" viewBox="0 0 206 50" height="50" width="206" xmlns="http://www.w3.org/2000/svg">
<g clip-path="url(#clip0_14700_6421)" id="logo-life1007 1">
<g id="b">
<g id="c">
<g id="Group">
<g id="Group_2">
<path fill="#321A51" d="M69.2009 31.3562V34.5297C69.2009 34.7953 69.0223 34.9739 68.7567 34.9739H58.1922C57.9266 34.9739 57.748 34.7953 57.748 34.5297V14.6463C57.748 14.3807 57.9266 14.2021 58.1922 14.2021H61.9015C62.1671 14.2021 62.3457 14.3807 62.3457 14.6463V30.9074H68.7567C69.0223 30.9074 69.2009 31.086 69.2009 31.3516V31.3562Z" id="Vector"></path>
<path fill="#321A51" d="M77.1825 14.2021H80.8917C81.1573 14.2021 81.3359 14.3807 81.3359 14.6463V34.5297C81.3359 34.7953 81.1573 34.9739 80.8917 34.9739H77.1825C76.9169 34.9739 76.7383 34.7953 76.7383 34.5297V14.6463C76.7383 14.3807 76.9169 14.2021 77.1825 14.2021Z" id="Vector_2"></path>
<path fill="#321A51" d="M101.219 14.6463V17.8198C101.219 18.0854 101.041 18.264 100.775 18.264H94.0664V22.3304H100.386C100.651 22.3304 100.83 22.509 100.83 22.7746V25.9481C100.83 26.2137 100.651 26.3923 100.386 26.3923H94.0664V34.5251C94.0664 34.7907 93.8878 34.9693 93.6222 34.9693H89.9129C89.6473 34.9693 89.4688 34.7907 89.4688 34.5251V14.6463C89.4688 14.3807 89.6473 14.2021 89.9129 14.2021H100.775C101.041 14.2021 101.219 14.3807 101.219 14.6463Z" id="Vector_3"></path>
<path fill="#321A51" d="M121.13 31.3562V34.5297C121.13 34.7953 120.952 34.9739 120.686 34.9739H109.526C109.261 34.9739 109.082 34.7953 109.082 34.5297V14.6463C109.082 14.3807 109.261 14.2021 109.526 14.2021H120.654C120.92 14.2021 121.098 14.3807 121.098 14.6463V17.8198C121.098 18.0854 120.92 18.264 120.654 18.264H113.68V22.3304H120.237C120.503 22.3304 120.681 22.509 120.681 22.7746V25.9481C120.681 26.2137 120.503 26.3923 120.237 26.3923H113.68V30.9029H120.681C120.947 30.9029 121.126 31.0815 121.126 31.3471L121.13 31.3562Z" id="Vector_4"></path>
</g>
<path fill="url(#paint0_linear_14700_6421)" d="M23.6237 1C10.536 1 -0.0742188 11.6102 -0.0742188 24.6979C-0.0742188 37.7856 10.536 48.3958 23.6237 48.3958C36.7113 48.3958 47.3216 37.7856 47.3216 24.6979C47.3216 11.6102 36.7113 1 23.6237 1ZM32.4159 29.3505C32.4159 31.3516 30.4011 33.22 27.9099 33.5268C25.4233 33.829 23.4085 32.5606 23.4085 30.5594C23.4085 28.5583 25.4233 26.6899 27.9099 26.3831C29.6088 26.1816 30.5522 26.7265 30.5522 26.7265V19.134C30.5522 18.1815 29.5218 18.525 29.5218 18.525L20.2442 21.4374C20.2442 21.4374 19.1772 21.8175 19.1772 22.7059V32.1576C19.1772 34.1633 17.35 36.0134 14.8635 36.366C12.3723 36.7186 10.3574 35.4913 10.3574 33.4856C10.3574 31.4799 12.3723 29.5749 14.8635 29.2223C16.5578 28.9841 17.318 29.4924 17.318 29.4924V18.4243C17.318 17.1512 18.3483 15.8278 19.6214 15.4614L30.1171 12.2514C31.3902 11.885 32.4205 12.6223 32.4205 13.8953V29.3505H32.4159Z" id="Vector_5"></path>
<g id="Group_3">
<path fill="url(#paint1_linear_14700_6421)" d="M136.81 14.7289V34.516C136.81 34.7816 136.631 34.9602 136.366 34.9602H135.482C135.216 34.9602 135.038 34.7816 135.038 34.516V15.8828H131.937C131.672 15.8828 131.553 15.7043 131.553 15.4387V14.7289C131.553 14.4633 131.672 14.2847 131.937 14.2847H136.366C136.631 14.2847 136.81 14.4633 136.81 14.7289Z" id="Vector_6"></path>
<path fill="url(#paint2_linear_14700_6421)" d="M159.019 24.7116C159.019 31.3883 156.152 35.3448 151.426 35.3448C146.701 35.3448 143.834 31.3883 143.834 24.7116C143.834 18.035 146.728 14.051 151.426 14.051C156.125 14.051 159.019 17.9801 159.019 24.7116ZM145.551 24.7116C145.551 30.5319 147.887 33.7512 151.426 33.7512C154.966 33.7512 157.334 30.5319 157.334 24.7116C157.334 18.8913 154.998 15.6446 151.426 15.6446C147.855 15.6446 145.551 18.8639 145.551 24.7116Z" id="Vector_7"></path>
<path fill="url(#paint3_linear_14700_6421)" d="M179.433 24.7116C179.433 31.3883 176.566 35.3448 171.841 35.3448C167.115 35.3448 164.248 31.3883 164.248 24.7116C164.248 18.035 167.142 14.051 171.841 14.051C176.539 14.051 179.433 17.9801 179.433 24.7116ZM165.965 24.7116C165.965 30.5319 168.301 33.7512 171.841 33.7512C175.38 33.7512 177.748 30.5319 177.748 24.7116C177.748 18.8913 175.412 15.6446 171.841 15.6446C168.269 15.6446 165.965 18.8639 165.965 24.7116Z" id="Vector_8"></path>
<path fill="url(#paint4_linear_14700_6421)" d="M205.879 14.7288L197.728 34.516C197.609 34.7816 197.462 34.9602 197.197 34.9602H196.281C196.015 34.9602 195.809 34.7816 195.928 34.516L203.695 15.8782H193.831C193.565 15.8782 193.387 15.6996 193.387 15.434V14.7242C193.387 14.4586 193.565 14.28 193.831 14.28H205.526C205.792 14.28 206.03 14.4586 205.879 14.7242V14.7288Z" id="Vector_9"></path>
<path fill="url(#paint5_linear_14700_6421)" d="M185.213 34.1037C185.213 33.426 185.744 32.8948 186.454 32.8948C187.164 32.8948 187.663 33.426 187.663 34.1037C187.663 34.7814 187.132 35.3447 186.454 35.3447C185.776 35.3447 185.213 34.8135 185.213 34.1037Z" id="Vector_10"></path>
</g>
</g>
</g>
</g>
</g>
<defs>
<linearGradient gradientUnits="userSpaceOnUse" y2="32.8033" x2="45.8974" y1="16.5925" x1="1.34994" id="paint0_linear_14700_6421">
<stop stop-color="#000" offset="0.01"></stop>
<stop stop-color="#000" offset="0.14"></stop>
<stop stop-color="#000" offset="0.35"></stop>
<stop stop-color="#000" offset="0.61"></stop>
<stop stop-color="#000" offset="0.91"></stop>
<stop stop-color="#000" offset="1"></stop>
</linearGradient>
<linearGradient gradientUnits="userSpaceOnUse" y2="24.698" x2="205.925" y1="24.698" x1="131.553" id="paint1_linear_14700_6421">
<stop stop-color="#000"></stop>
<stop stop-color="#000" offset="0.13"></stop>
<stop stop-color="#000" offset="0.34"></stop>
<stop stop-color="#000" offset="0.6"></stop>
<stop stop-color="#000" offset="0.91"></stop>
<stop stop-color="#000" offset="1"></stop>
</linearGradient>
<linearGradient gradientUnits="userSpaceOnUse" y2="24.6979" x2="205.925" y1="24.6979" x1="131.552" id="paint2_linear_14700_6421">
<stop stop-color="#000"></stop>
<stop stop-color="#000" offset="0.13"></stop>
<stop stop-color="#000" offset="0.34"></stop>
<stop stop-color="#000" offset="0.6"></stop>
<stop stop-color="#000" offset="0.91"></stop>
<stop stop-color="#000" offset="1"></stop>
</linearGradient>
<linearGradient gradientUnits="userSpaceOnUse" y2="24.6979" x2="205.924" y1="24.6979" x1="131.552" id="paint3_linear_14700_6421">
<stop stop-color="#000"></stop>
<stop stop-color="#000" offset="0.13"></stop>
<stop stop-color="#000" offset="0.34"></stop>
<stop stop-color="#000" offset="0.6"></stop>
<stop stop-color="#000" offset="0.91"></stop>
<stop stop-color="#000" offset="1"></stop>
</linearGradient>
<linearGradient gradientUnits="userSpaceOnUse" y2="24.6979" x2="205.925" y1="24.6979" x1="131.552" id="paint4_linear_14700_6421">
<stop stop-color="#000"></stop>
<stop stop-color="#000" offset="0.13"></stop>
<stop stop-color="#000" offset="0.34"></stop>
<stop stop-color="#000" offset="0.6"></stop>
<stop stop-color="#000" offset="0.91"></stop>
<stop stop-color="#000" offset="1"></stop>
</linearGradient>
<linearGradient gradientUnits="userSpaceOnUse" y2="24.6978" x2="205.925" y1="24.6978" x1="131.553" id="paint5_linear_14700_6421">
<stop stop-color="#000"></stop>
<stop stop-color="#000" offset="0.13"></stop>
<stop stop-color="#000" offset="0.34"></stop>
<stop stop-color="#000" offset="0.6"></stop>
<stop stop-color="#000" offset="0.91"></stop>
<stop stop-color="#000" offset="1"></stop>
</linearGradient>
<clipPath id="clip0_14700_6421">
<rect fill="white" height="50" width="206"></rect>
</clipPath>
</defs>
</svg>