<svg class="custom-logo style-svg replaced-svg svg-replaced-11" id="svg-replaced-0" alt="Logo" fill="none" viewBox="0 0 248 24" height="24" width="248" xmlns="http://www.w3.org/2000/svg">
<title>Madison Air</title>
<g id="logo">
<path fill="#000" d="M183.937 17.6871C183.863 17.6871 183.827 17.6517 183.754 17.6517C183.021 17.4744 182.325 17.2972 181.629 17.2263C179.725 19.8138 176.502 21.4797 172.949 21.2316C172.326 21.1961 171.74 21.0898 171.154 20.948C170.458 21.3734 169.652 21.7987 168.7 22.1886C169.982 22.7557 171.337 23.1102 172.766 23.2165C177.454 23.5355 181.702 21.2316 183.937 17.6871Z" id="Vector"></path>
<path fill="#000" d="M174.303 2.51662C175.402 2.58751 176.428 2.83563 177.343 3.22552C178.222 3.15463 179.028 3.11919 179.834 3.19008C180.457 3.22553 181.043 3.33185 181.555 3.40274C179.651 1.77228 177.16 0.708943 174.45 0.531719C168.443 0.10638 163.206 4.00531 161.924 9.42837C162.986 9.2157 163.792 8.96759 164.488 8.71947C165.989 4.92687 169.908 2.23306 174.303 2.51662Z" id="Vector_2"></path>
<path fill="#000" d="M161.741 13.5047C162.034 13.4693 162.364 13.3984 162.693 13.363C163.133 13.2921 163.573 13.1857 163.975 13.0794C167.052 12.2996 168.664 11.1299 170.129 10.0666C171.63 8.96778 172.949 8.01079 175.989 7.44367C178.919 6.87655 180.494 7.23099 182.215 7.65633C182.288 7.69177 182.362 7.69178 182.435 7.72722C183.204 7.90445 184.01 8.11712 184.926 8.2589C186.391 8.47157 188.185 8.50702 190.603 8.04624H190.639L192.361 5.35241C191.701 5.56508 191.005 5.74232 190.126 5.91954C187.05 6.52211 185.255 6.20309 183.534 5.77776C183.351 5.74231 183.167 5.67141 182.948 5.63597C182.032 5.4233 181.116 5.17519 179.981 5.06886C178.772 4.96252 177.344 4.99796 175.439 5.35241C171.887 6.02587 170.238 7.231 168.664 8.40068C167.382 9.32225 166.136 10.2084 163.902 10.8818C163.389 11.0236 162.803 11.1654 162.144 11.3071C161.924 11.3426 161.741 11.3781 161.558 11.4135C160.24 11.6262 159.177 11.6616 158.262 11.6262V13.8237C159.324 13.7529 160.423 13.682 161.741 13.5047Z" id="Vector_3"></path>
<path fill="#000" d="M185.475 10.031C184.926 9.92468 184.413 9.81834 183.9 9.67656C183.607 9.60568 183.314 9.53479 183.021 9.4639C181.336 9.07401 179.432 8.79045 176.428 9.39301C172.876 10.0665 171.227 11.2716 169.652 12.4413C168.297 13.4337 167.015 14.3553 164.525 15.0287C164.122 15.1351 163.646 15.2414 163.17 15.3477C162.877 15.4186 162.584 15.4541 162.327 15.4895C160.716 15.7376 159.47 15.7022 158.408 15.5604V17.758C158.591 17.7934 158.811 17.7934 159.031 17.8289C160.203 17.8998 161.631 17.8643 163.353 17.5453C163.463 17.5099 163.536 17.5099 163.646 17.5099C164.378 17.3681 165.038 17.2263 165.624 17.0491C168.261 16.2693 169.726 15.206 171.081 14.2135C172.583 13.1147 173.901 12.1577 176.941 11.5906C179.981 10.988 181.593 11.3779 183.424 11.8387H183.46C184.156 12.0159 184.889 12.1931 185.731 12.3349C186.391 12.4413 187.086 12.5122 187.892 12.5122L189.321 10.2437C187.709 10.35 186.537 10.2082 185.475 10.031Z" id="Vector_4"></path>
<path fill="#000" d="M185.438 13.9298C185.219 13.8943 184.999 13.8235 184.779 13.7526C184.266 13.6462 183.79 13.5045 183.241 13.3981C181.702 13.0791 179.944 12.9373 177.307 13.469C173.755 14.1425 172.106 15.3476 170.531 16.5173C169.506 17.2616 168.517 17.9705 167.052 18.5731C166.393 18.8212 165.66 19.0693 164.745 19.282C164.525 19.3174 164.268 19.3883 164.012 19.4237C161.485 19.92 159.837 19.7782 158.335 19.4946V21.7277C158.811 21.7986 159.287 21.8694 159.837 21.9049C161.082 21.9758 162.584 21.9403 164.452 21.5859C165.331 21.4086 166.1 21.2314 166.796 20.9833C167.711 20.6998 168.48 20.3808 169.14 20.0263C170.238 19.4592 171.081 18.8566 171.85 18.2895C173.352 17.1907 174.67 16.2337 177.71 15.6666C179.835 15.2413 181.226 15.3121 182.508 15.5602C183.058 15.6666 183.607 15.7729 184.156 15.9147C184.34 15.9501 184.523 16.021 184.706 16.0565C184.926 16.0919 185.145 16.1628 185.328 16.1983L186.61 14.2133C186.244 14.107 185.841 14.0361 185.438 13.9298Z" id="Vector_5"></path>
<path fill="#000" d="M201.297 15.4897H196.572L201.297 8.04623V15.4897ZM185.511 23.0748H192.36L194.374 19.9203H201.333V23.0748H207.12V1.16992H199.465L185.511 23.0748Z" id="Vector_6"></path>
<path fill="#000" d="M218.219 1.16992H212.432V23.0748H218.219V1.16992Z" id="Vector_7"></path>
<path fill="#000" d="M21.2431 23.0744V3.50882H21.2065L12.7093 23.0744H10.7681L2.34407 3.50882H2.27082V23.0744H0V1.13403H3.47948L11.757 19.8135L20.0345 1.13403H23.514V23.0744H21.2431Z" id="Vector_8"></path>
<path fill="#000" d="M39.8487 3.61547L35.4169 13.7173H44.2072L39.8487 3.61547ZM48.3826 23.0747L45.0862 15.7022H34.5379L31.2415 23.0747H28.8975L38.6034 1.09888H41.1306L50.8731 23.0747H48.3826Z" id="Vector_9"></path>
<path fill="#000" d="M62.6308 21.0898C66.4033 21.0898 68.9305 20.1328 70.5786 18.4314C72.3001 16.6592 73.1058 14.3553 73.1058 12.0868C73.1058 9.25119 71.8972 6.73462 69.4799 4.96237C67.8683 3.79269 65.451 3.0838 62.5575 3.0838H58.492V21.0543H62.6308V21.0898ZM56.1846 23.0747V1.09888H62.8872C65.6341 1.09888 68.3811 1.73689 70.3955 3.01291C73.4721 4.96237 75.34 8.4714 75.34 12.1931C75.34 14.9224 74.2779 17.5807 72.0437 19.7783C69.8461 22.0113 66.623 23.0747 62.7773 23.0747H56.1846Z" id="Vector_10"></path>
<path fill="#000" d="M82.9583 1.13403H80.6875V23.1098H82.9583V1.13403Z" id="Vector_11"></path>
<path fill="#000" d="M99.3301 6.6993C99.3301 4.43083 97.4256 2.7295 95.3013 2.7295C92.9572 2.7295 91.1991 4.43085 91.1991 6.55754C91.1991 8.43611 92.3712 9.57034 95.5943 10.3856C100.502 11.5907 102.15 14.0718 102.15 17.0492C102.15 20.6291 99.1104 23.5002 95.3013 23.5002C91.2724 23.5002 88.3789 20.8772 88.3057 16.9783H90.5765C90.723 19.8139 92.5543 21.5153 95.3013 21.5153C97.8651 21.5153 99.8795 19.5658 99.8795 17.1555C99.8795 14.7807 98.268 13.4338 95.2646 12.6186C92.0049 11.7325 88.9283 10.7046 88.9283 6.6993C88.9283 3.22571 91.8218 0.780029 95.3013 0.780029C98.8174 0.780029 101.601 3.3675 101.601 6.73476H99.3301V6.6993Z" id="Vector_12"></path>
<path fill="#000" d="M119.438 2.72931C114.054 2.72931 109.732 7.12447 109.732 12.2285C109.732 17.1908 114.164 21.4796 119.438 21.4796C124.859 21.4796 129.181 17.1908 129.181 12.1222C129.217 7.05358 124.895 2.72931 119.438 2.72931ZM119.475 23.4646C113.285 23.4646 107.498 18.6086 107.498 12.2285C107.498 5.91934 112.845 0.744385 119.475 0.744385C126.067 0.744385 131.488 5.84846 131.488 12.1222C131.488 18.2896 126.067 23.4646 119.475 23.4646Z" id="Vector_13"></path>
<path fill="#000" d="M152.621 23.0744L139.179 3.75694H139.106V23.0744H136.835V1.13403H139.912L152.548 19.3527H152.621V1.13403H154.892V23.0744H152.621Z" id="Vector_14"></path>
<path fill="#000" d="M229.097 6.09677H231.295C233.455 6.09677 234.921 7.1601 234.921 9.07412C234.921 11.1654 233.529 12.2287 231.221 12.2287H229.097V6.09677ZM238.656 18.0771C238.034 18.0771 237.338 18.0062 236.605 17.6163C235.909 17.2619 235.14 16.4467 234.847 15.6314C238.327 15.0289 240.488 12.1933 240.488 8.71967C240.488 5.60052 238.766 3.04849 236.312 1.98515C235.104 1.48892 233.309 1.16992 230.965 1.16992H223.566V23.0748H229.097V17.3328V15.9859H229.17L231.478 19.105C233.309 21.5507 235.726 22.8976 238.693 23.0394H241V17.7581C240.451 18.0062 239.169 18.0771 238.656 18.0771Z" id="Vector_15"></path>
</g>
<g>
	<path fill="#00335C" d="M243.4,1v0.3h-1v2.5h-0.3V1.3h-1V1H243.4z M245.5,3c0-0.1,0-0.1,0.1-0.1l1-1.8c0,0,0,0,0,0c0,0,0,0,0.1,0h0.3   v2.8h-0.3V1.7l0-0.2l-1.1,1.9c0,0.1-0.1,0.1-0.1,0.1h-0.1c-0.1,0-0.1,0-0.1-0.1l-1.1-1.8l0,0.2v2.2H244V1h0.3c0,0,0.1,0,0.1,0   c0,0,0,0,0.1,0l1.1,1.8L245.5,3z"></path>
</g>
</svg>