<svg width="245" height="79" viewBox="0 0 245 79" fill="none" xmlns="http://www.w3.org/2000/svg">
<g clip-path="url(#clip0_3711_7447)">
<g clip-path="url(#clip1_3711_7447)">
<path d="M135.877 31.1766C135.902 31.2596 135.896 31.3094 135.866 31.326C135.187 31.5252 134.517 31.622 133.855 31.622C132.581 31.622 131.266 31.2098 129.911 30.3827C128.554 29.5556 127.388 28.4076 126.413 26.9387H126.363C124.826 26.9387 123.455 26.5791 122.256 25.8599C121.057 25.1406 120.129 24.1669 119.478 22.9359C118.825 21.705 118.498 20.3633 118.498 18.9083C118.498 17.207 118.927 15.7492 119.789 14.5348C120.647 13.3205 121.752 12.4076 123.101 11.7963C124.45 11.1849 125.826 10.8806 127.233 10.8806C128.803 10.8806 130.185 11.2485 131.376 11.9844C132.567 12.7202 133.481 13.6911 134.118 14.8972C134.755 16.1033 135.074 17.3841 135.074 18.7395C135.074 20.474 134.556 22.0341 133.523 23.4228C132.49 24.8115 131.144 25.8018 129.49 26.3965C130.136 27.7852 130.966 28.9193 131.983 29.8046C132.999 30.687 133.971 31.1296 134.899 31.1296C135.179 31.1296 135.47 31.113 135.769 31.0798C135.819 31.0632 135.855 31.0964 135.88 31.1794L135.877 31.1766ZM122.281 22.2914C122.769 23.5556 123.439 24.5431 124.292 25.2541C125.145 25.965 126.106 26.3191 127.183 26.3191C128.108 26.3191 128.942 26.0507 129.676 25.5141C130.412 24.9774 130.986 24.1918 131.401 23.16C131.814 22.1282 132.022 20.8917 132.022 19.456C132.022 17.9373 131.789 16.5763 131.326 15.3785C130.864 14.1808 130.194 13.243 129.316 12.5653C128.438 11.8875 127.413 11.5501 126.239 11.5501C124.732 11.5501 123.574 12.1171 122.766 13.2485C121.954 14.3799 121.55 15.9622 121.55 17.9954C121.55 19.5971 121.794 21.03 122.281 22.2942V22.2914Z" fill="#000"/>
<path d="M152.835 12.2195C152.43 11.7078 151.863 11.4505 151.134 11.4505C151.101 11.4505 151.084 11.4007 151.084 11.3011C151.084 11.2016 151.101 11.1518 151.134 11.1518L152.325 11.1767C152.954 11.2099 153.458 11.2264 153.837 11.2264C154.15 11.2264 154.607 11.2099 155.203 11.1767L156.344 11.1518C156.377 11.1518 156.394 11.2016 156.394 11.3011C156.394 11.4007 156.377 11.4505 156.344 11.4505C155.698 11.4505 155.194 11.7078 154.832 12.2195C154.469 12.7313 154.286 13.4339 154.286 14.3247V21.2126C154.286 22.3689 154.028 23.3841 153.516 24.261C153.004 25.1379 152.278 25.8101 151.345 26.2804C150.409 26.7507 149.331 26.9858 148.107 26.9858C146.883 26.9858 145.8 26.7534 144.856 26.2915C143.914 25.8295 143.172 25.1545 142.635 24.2721C142.097 23.3897 141.829 22.3523 141.829 21.1628V13.1573C141.829 12.6621 141.781 12.2998 141.693 12.0674C141.601 11.835 141.435 11.6746 141.197 11.5833C140.956 11.492 140.58 11.4477 140.067 11.4477C140.017 11.4477 139.992 11.398 139.992 11.2984C139.992 11.1988 140.017 11.149 140.067 11.149L141.383 11.1739C142.144 11.2071 142.748 11.2237 143.194 11.2237C143.69 11.2237 144.318 11.2071 145.08 11.1739L146.346 11.149C146.396 11.149 146.42 11.1988 146.42 11.2984C146.42 11.398 146.396 11.4477 146.346 11.4477C145.833 11.4477 145.457 11.4975 145.216 11.5971C144.975 11.6967 144.811 11.8655 144.72 12.1061C144.629 12.3468 144.584 12.7119 144.584 13.2099V20.297C144.584 22.2638 144.972 23.7161 145.75 24.6594C146.529 25.5999 147.628 26.0729 149.049 26.0729C150.47 26.0729 151.497 25.6552 152.275 24.8226C153.054 23.9899 153.441 22.7949 153.441 21.2403V14.3274C153.441 13.4367 153.239 12.7341 152.835 12.2223V12.2195Z" fill="#003643"/>
<path d="M166.63 25.7521C166.713 25.9844 166.874 26.1393 167.115 26.2223C167.356 26.3053 167.738 26.3468 168.269 26.3468C168.319 26.3468 168.344 26.3966 168.344 26.4962C168.344 26.5958 168.319 26.6456 168.269 26.6456C167.724 26.6456 167.295 26.6373 166.979 26.6207L165.093 26.5958L163.257 26.6207C162.924 26.6373 162.478 26.6456 161.916 26.6456C161.883 26.6456 161.866 26.5958 161.866 26.4962C161.866 26.3966 161.883 26.3468 161.916 26.3468C162.445 26.3468 162.833 26.3053 163.082 26.2223C163.331 26.1393 163.5 25.9789 163.592 25.7382C163.683 25.5003 163.727 25.1324 163.727 24.6345V13.1601C163.727 12.6649 163.68 12.3025 163.592 12.0702C163.5 11.8378 163.331 11.6774 163.082 11.5861C162.833 11.4948 162.445 11.4505 161.916 11.4505C161.883 11.4505 161.866 11.4007 161.866 11.3012C161.866 11.2016 161.883 11.1518 161.916 11.1518L163.257 11.1767C164.018 11.2099 164.63 11.2265 165.093 11.2265C165.605 11.2265 166.242 11.2099 167.004 11.1767L168.269 11.1518C168.319 11.1518 168.344 11.2016 168.344 11.3012C168.344 11.4007 168.319 11.4505 168.269 11.4505C167.757 11.4505 167.375 11.5003 167.128 11.5999C166.879 11.6995 166.716 11.8682 166.633 12.1089C166.55 12.3496 166.508 12.7147 166.508 13.2126V24.6373C166.508 25.149 166.55 25.5225 166.633 25.7521H166.63Z" fill="#003643"/>
<path d="M178.96 24.5376C178.96 24.9664 178.993 25.2762 179.06 25.4671C179.126 25.658 179.254 25.7852 179.445 25.8516C179.636 25.918 179.946 25.9512 180.375 25.9512H181.22C182.511 25.9512 183.627 25.6082 184.568 24.9221C185.51 24.2361 186.139 23.3067 186.454 22.1338C186.454 22.1006 186.488 22.084 186.554 22.084C186.587 22.084 186.623 22.095 186.665 22.1199C186.706 22.1448 186.726 22.167 186.726 22.1808C186.576 23.8156 186.501 25.1794 186.501 26.2693C186.501 26.4021 186.474 26.4961 186.416 26.5542C186.357 26.6123 186.263 26.64 186.13 26.64H174.421C174.387 26.64 174.371 26.5902 174.371 26.4906C174.371 26.391 174.387 26.3412 174.421 26.3412C174.95 26.3412 175.335 26.2997 175.576 26.2167C175.814 26.1338 175.98 25.9733 176.071 25.7327C176.163 25.4948 176.207 25.1268 176.207 24.6289V13.1545C176.207 12.6593 176.16 12.297 176.071 12.0646C175.98 11.8322 175.811 11.6718 175.562 11.5805C175.312 11.4892 174.933 11.445 174.421 11.445C174.387 11.445 174.371 11.3952 174.371 11.2956C174.371 11.196 174.387 11.1462 174.421 11.1462L175.686 11.1711C176.448 11.2043 177.077 11.2209 177.572 11.2209C178.068 11.2209 178.697 11.2043 179.458 11.1711L180.724 11.1462C180.774 11.1462 180.799 11.196 180.799 11.2956C180.799 11.3952 180.774 11.445 180.724 11.445C180.212 11.445 179.832 11.4892 179.583 11.5805C179.334 11.6718 179.17 11.8378 179.087 12.0757C179.004 12.3163 178.963 12.6815 178.963 13.1794V24.5293L178.96 24.5376Z" fill="#000"/>
<path d="M191.179 15.5667C191.163 15.6165 191.113 15.6358 191.03 15.6275C190.947 15.6192 190.905 15.5916 190.905 15.5418C190.971 14.8807 191.046 14.0259 191.129 12.9775C191.212 11.9291 191.254 11.1407 191.254 10.6096C191.254 10.5266 191.298 10.4851 191.39 10.4851C191.481 10.4851 191.525 10.5266 191.525 10.6096C191.525 10.9719 191.996 11.1545 192.941 11.1545C194.364 11.2043 196.026 11.2292 197.929 11.2292C198.903 11.2292 199.939 11.2126 201.03 11.1794L202.717 11.1545C203.346 11.1545 203.806 11.113 204.094 11.03C204.382 10.947 204.57 10.7811 204.653 10.5349C204.67 10.4685 204.722 10.4353 204.814 10.4353C204.905 10.4353 204.949 10.4685 204.949 10.5349C204.9 11.03 204.847 11.8239 204.789 12.9138C204.731 14.0038 204.703 14.8807 204.703 15.5418C204.703 15.5916 204.661 15.6165 204.578 15.6165C204.495 15.6165 204.445 15.5916 204.429 15.5418C204.179 14.2693 203.717 13.315 203.038 12.6787C202.36 12.0425 201.526 11.7244 200.532 11.7244C200.053 11.7244 199.734 11.8267 199.576 12.0342C199.419 12.2416 199.341 12.6345 199.341 13.2126V24.6372C199.341 25.149 199.391 25.5224 199.491 25.752C199.59 25.9844 199.779 26.1393 200.061 26.2223C200.344 26.3053 200.79 26.3468 201.402 26.3468C201.451 26.3468 201.476 26.3966 201.476 26.4961C201.476 26.5957 201.451 26.6455 201.402 26.6455C200.806 26.6455 200.335 26.6372 199.986 26.6206L197.926 26.5957L195.915 26.6206C195.569 26.6372 195.087 26.6455 194.475 26.6455C194.425 26.6455 194.4 26.5957 194.4 26.4961C194.4 26.3966 194.425 26.3468 194.475 26.3468C195.07 26.3468 195.514 26.3053 195.802 26.2223C196.09 26.1393 196.289 25.9789 196.397 25.7382C196.505 25.5003 196.558 25.1324 196.558 24.6345V13.16C196.558 12.5985 196.483 12.2195 196.333 12.0203C196.184 11.8212 195.879 11.7244 195.417 11.7244C193.447 11.7244 192.035 13.0051 191.174 15.5667H191.179Z" fill="#000"/>
<path d="M222.132 22.6538C222.181 22.6538 222.226 22.6649 222.267 22.6898C222.309 22.7147 222.328 22.7368 222.328 22.7506C222.162 24.0397 222.079 25.2126 222.079 26.2693C222.079 26.4021 222.054 26.4961 222.004 26.5542C221.954 26.6123 221.855 26.64 221.708 26.64H210.74C210.691 26.64 210.666 26.5902 210.666 26.4906C210.666 26.391 210.691 26.3412 210.74 26.3412C211.269 26.3412 211.654 26.2997 211.895 26.2167C212.134 26.1338 212.297 25.9733 212.38 25.7327C212.463 25.4948 212.505 25.1268 212.505 24.6289V13.1545C212.505 12.6593 212.463 12.297 212.38 12.0646C212.297 11.8322 212.131 11.6718 211.884 11.5805C211.635 11.4892 211.256 11.445 210.743 11.445C210.693 11.445 210.668 11.3952 210.668 11.2956C210.668 11.196 210.693 11.1462 210.743 11.1462H221.262C221.428 11.1462 221.511 11.2209 221.511 11.3703L221.561 14.6649C221.561 14.6981 221.517 14.723 221.425 14.7396C221.334 14.7562 221.281 14.7396 221.265 14.6898C220.999 13.7327 220.553 13.0217 219.924 12.5598C219.296 12.0978 218.468 11.8654 217.443 11.8654H216.698C216.202 11.8654 215.836 11.9733 215.607 12.1863C215.374 12.4021 215.26 12.7313 215.26 13.1766V18.2333H217.321C218.279 18.2333 219.016 18.0674 219.528 17.7382C220.041 17.409 220.298 16.9443 220.298 16.3495C220.298 16.2997 220.343 16.2748 220.434 16.2748C220.525 16.2748 220.57 16.2997 220.57 16.3495L220.545 18.5791L220.57 19.7686C220.603 20.3302 220.619 20.7755 220.619 21.1075C220.619 21.1407 220.57 21.1573 220.47 21.1573C220.37 21.1573 220.32 21.1407 220.32 21.1075C220.32 20.4297 220.06 19.8986 219.539 19.5086C219.019 19.1213 218.271 18.9277 217.293 18.9277H215.258V24.5293C215.258 25.0079 215.349 25.3647 215.532 25.5943C215.715 25.8267 216.003 25.9401 216.401 25.9401H217.221C218.512 25.9401 219.545 25.6773 220.323 25.1462C221.101 24.6179 221.672 23.799 222.035 22.6925C222.035 22.6593 222.068 22.6428 222.134 22.6428L222.132 22.6538Z" fill="#003643"/>
<path d="M245.003 26.4934C245.003 26.593 244.986 26.6428 244.953 26.6428H240.535C240.173 26.6428 239.494 25.9872 238.5 24.6732C237.508 23.3592 236.309 21.5225 234.902 19.1601C234.769 19.1767 234.581 19.185 234.332 19.185C233.686 19.185 233.232 19.1767 232.966 19.1601V24.6373C232.966 25.149 233.008 25.5225 233.091 25.7521C233.174 25.9844 233.334 26.1393 233.575 26.2223C233.816 26.3053 234.199 26.3468 234.73 26.3468C234.764 26.3468 234.78 26.3966 234.78 26.4962C234.78 26.5958 234.764 26.6455 234.73 26.6455C234.185 26.6455 233.755 26.6372 233.44 26.6207L231.554 26.5958L229.742 26.6207C229.41 26.6372 228.964 26.6455 228.402 26.6455C228.352 26.6455 228.327 26.5958 228.327 26.4962C228.327 26.3966 228.352 26.3468 228.402 26.3468C228.931 26.3468 229.316 26.3053 229.557 26.2223C229.795 26.1393 229.961 25.9789 230.053 25.7382C230.144 25.5003 230.188 25.1324 230.188 24.6345V13.1601C230.188 12.6649 230.147 12.3025 230.064 12.0702C229.981 11.8378 229.814 11.6774 229.568 11.5861C229.319 11.4948 228.939 11.4505 228.427 11.4505C228.394 11.4505 228.377 11.4007 228.377 11.3012C228.377 11.2016 228.394 11.1518 228.427 11.1518L229.742 11.1767C230.504 11.2099 231.108 11.2265 231.554 11.2265C232.116 11.2265 232.703 11.2016 233.315 11.1518C233.531 11.1352 233.8 11.1186 234.121 11.102C234.442 11.0854 234.802 11.0771 235.201 11.0771C236.705 11.0771 237.871 11.3537 238.699 11.907C239.527 12.4602 239.94 13.232 239.94 14.2251C239.94 15.1352 239.691 15.9568 239.195 16.6898C238.699 17.4256 238.037 18.0148 237.209 18.463C238.533 20.4464 239.641 21.9982 240.533 23.1213C241.427 24.2444 242.219 25.0633 242.914 25.575C243.61 26.0868 244.288 26.344 244.95 26.344C244.983 26.344 245 26.3938 245 26.4934H245.003ZM234.409 18.5626C235.367 18.5626 236.06 18.2942 236.481 17.7576C236.902 17.2209 237.112 16.3579 237.112 15.1684C237.112 13.8129 236.913 12.8807 236.517 12.3689C236.121 11.8572 235.55 11.5999 234.805 11.5999C234.143 11.5999 233.672 11.7244 233.39 11.9706C233.107 12.2195 232.969 12.6317 232.969 13.2099V18.463C233.365 18.5294 233.847 18.5626 234.409 18.5626Z" fill="#003643"/>
<path d="M130.299 36.0951C131.102 36.2195 131.742 36.38 132.221 36.5792C132.371 36.6289 132.465 36.6898 132.506 36.7645C132.548 36.8392 132.576 36.9664 132.592 37.149L132.916 40.593C132.916 40.6428 132.875 40.676 132.792 40.6926C132.708 40.7092 132.65 40.6843 132.617 40.6179C132.155 39.2624 131.493 38.2278 130.631 37.5086C129.77 36.7894 128.737 36.4298 127.529 36.4298C126.405 36.4298 125.4 36.7313 124.516 37.3343C123.63 37.9374 122.938 38.8005 122.431 39.9236C121.927 41.0467 121.675 42.3606 121.675 43.8627C121.675 45.3648 121.935 46.7175 122.456 47.8655C122.976 49.0135 123.696 49.8987 124.613 50.5183C125.53 51.1379 126.585 51.4478 127.776 51.4478C128.967 51.4478 129.875 51.1379 130.653 50.5183C131.432 49.8987 132.168 48.8779 132.861 47.4588C132.877 47.409 132.927 47.3924 133.01 47.409C133.093 47.4256 133.135 47.4588 133.135 47.5086L132.764 50.5819C132.731 50.7811 132.697 50.9083 132.664 50.9664C132.631 51.0245 132.54 51.0854 132.39 51.1518C130.867 51.6967 129.33 51.9706 127.776 51.9706C126.006 51.9706 124.422 51.6359 123.023 50.9664C121.625 50.297 120.531 49.3592 119.736 48.1531C118.941 46.9471 118.545 45.575 118.545 44.0397C118.545 42.5045 118.955 41.0688 119.772 39.8378C120.592 38.6068 121.716 37.6442 123.145 36.9498C124.574 36.2555 126.167 35.9097 127.923 35.9097C128.701 35.9097 129.49 35.9706 130.293 36.0951H130.299Z" fill="#003643"/>
<path d="M156.352 51.5224C156.352 51.622 156.327 51.6718 156.277 51.6718C155.698 51.6718 155.236 51.6635 154.887 51.6469L152.976 51.622L150.744 51.6469C150.447 51.6635 150.04 51.6718 149.528 51.6718C149.478 51.6718 149.453 51.622 149.453 51.5224C149.453 51.4228 149.478 51.373 149.528 51.373C150.14 51.373 150.586 51.3315 150.868 51.2486C151.151 51.1656 151.339 51.0079 151.439 50.7783C151.539 50.5459 151.588 50.1753 151.588 49.6635V43.965H143.573V49.6635C143.573 50.1587 143.623 50.5266 143.723 50.7672C143.823 51.0079 144.011 51.1683 144.293 51.2513C144.573 51.3343 145.022 51.3758 145.634 51.3758C145.667 51.3758 145.684 51.4256 145.684 51.5252C145.684 51.6248 145.667 51.6746 145.634 51.6746C145.055 51.6746 144.593 51.6663 144.244 51.6497L142.086 51.6248L140.225 51.6497C139.893 51.6663 139.438 51.6746 138.86 51.6746C138.826 51.6746 138.81 51.6248 138.81 51.5252C138.81 51.4256 138.826 51.3758 138.86 51.3758C139.438 51.3758 139.859 51.3343 140.125 51.2513C140.391 51.1683 140.571 51.0079 140.671 50.7672C140.771 50.5293 140.82 50.1614 140.82 49.6635V38.1891C140.82 37.6939 140.771 37.3315 140.671 37.0992C140.571 36.8668 140.394 36.7064 140.136 36.6151C139.879 36.5238 139.472 36.4795 138.909 36.4795C138.86 36.4795 138.835 36.4297 138.835 36.3302C138.835 36.2306 138.86 36.1808 138.909 36.1808L140.25 36.2057C141.012 36.2389 141.624 36.2555 142.086 36.2555C142.715 36.2555 143.443 36.2389 144.269 36.2057L145.634 36.1808C145.667 36.1808 145.684 36.2306 145.684 36.3302C145.684 36.4297 145.667 36.4795 145.634 36.4795C145.038 36.4795 144.601 36.5293 144.318 36.6289C144.036 36.7285 143.842 36.8972 143.734 37.1379C143.626 37.3786 143.573 37.7437 143.573 38.2416V43.2735H151.588V38.2416C151.588 37.7465 151.539 37.3786 151.439 37.1379C151.339 36.8972 151.151 36.7285 150.868 36.6289C150.586 36.5293 150.14 36.4795 149.528 36.4795C149.478 36.4795 149.453 36.4297 149.453 36.3302C149.453 36.2306 149.478 36.1808 149.528 36.1808L150.744 36.2057C151.572 36.2389 152.314 36.2555 152.976 36.2555C153.422 36.2555 154.059 36.2389 154.887 36.2057L156.277 36.1808C156.327 36.1808 156.352 36.2306 156.352 36.3302C156.352 36.4297 156.327 36.4795 156.277 36.4795C155.715 36.4795 155.297 36.5238 155.025 36.6151C154.751 36.7064 154.571 36.8668 154.48 37.0992C154.388 37.3315 154.344 37.6939 154.344 38.1891V49.6635C154.344 50.1587 154.388 50.5266 154.48 50.7672C154.571 51.0079 154.749 51.1683 155.014 51.2513C155.28 51.3343 155.701 51.3758 156.28 51.3758C156.33 51.3758 156.355 51.4256 156.355 51.5252L156.352 51.5224Z" fill="#003643"/>
<path d="M173.468 47.6829C173.518 47.6829 173.562 47.694 173.604 47.7189C173.645 47.7438 173.665 47.7659 173.665 47.7797C173.498 49.0688 173.415 50.2417 173.415 51.2984C173.415 51.4312 173.39 51.5252 173.341 51.5833C173.291 51.6414 173.191 51.6691 173.041 51.6691H162.074C162.024 51.6691 161.999 51.6193 161.999 51.5197C161.999 51.4201 162.024 51.3703 162.074 51.3703C162.603 51.3703 162.988 51.3288 163.226 51.2458C163.467 51.1629 163.628 51.0024 163.711 50.7617C163.794 50.5239 163.835 50.1559 163.835 49.658V38.1836C163.835 37.6884 163.794 37.3261 163.711 37.0937C163.628 36.8613 163.462 36.7009 163.215 36.6096C162.966 36.5183 162.586 36.4741 162.074 36.4741C162.024 36.4741 161.999 36.4243 161.999 36.3247C161.999 36.2251 162.024 36.1753 162.074 36.1753H172.593C172.759 36.1753 172.842 36.25 172.842 36.3994L172.892 39.694C172.892 39.7272 172.845 39.7521 172.756 39.7687C172.665 39.7853 172.612 39.7687 172.596 39.7189C172.33 38.7618 171.884 38.0508 171.255 37.5889C170.626 37.1269 169.798 36.8945 168.774 36.8945H168.029C167.533 36.8945 167.167 37.0024 166.937 37.2154C166.705 37.4312 166.591 37.7604 166.591 38.2057V43.2624H168.652C169.61 43.2624 170.347 43.0965 170.859 42.7673C171.371 42.4381 171.629 41.9734 171.629 41.3786C171.629 41.3288 171.673 41.3039 171.765 41.3039C171.856 41.3039 171.9 41.3288 171.9 41.3786L171.875 43.6082L171.9 44.7977C171.934 45.3593 171.95 45.8046 171.95 46.1366C171.95 46.1698 171.9 46.1864 171.801 46.1864C171.701 46.1864 171.651 46.1698 171.651 46.1366C171.651 45.4588 171.391 44.9277 170.87 44.5377C170.349 44.1504 169.602 43.9568 168.624 43.9568H166.588V49.5584C166.588 50.037 166.68 50.3938 166.863 50.6234C167.045 50.8558 167.333 50.9692 167.729 50.9692H168.549C169.84 50.9692 170.873 50.7064 171.651 50.1753C172.429 49.647 173 48.8281 173.363 47.7216C173.363 47.6884 173.396 47.6718 173.462 47.6718L173.468 47.6829Z" fill="#003643"/>
<path d="M194.755 36.333C194.755 36.4325 194.73 36.4823 194.68 36.4823C194.084 36.4823 193.514 36.7479 192.968 37.2762C192.423 37.8046 191.985 38.5155 191.653 39.4063L187.064 51.6497C187.047 51.7161 186.956 51.7493 186.789 51.7493C186.623 51.7493 186.532 51.7161 186.515 51.6497L180.19 38.2417C179.893 37.6469 179.594 37.2043 179.295 36.9166C178.999 36.6289 178.666 36.4823 178.304 36.4823C178.254 36.4823 178.229 36.4325 178.229 36.333C178.229 36.2334 178.254 36.1836 178.304 36.1836C178.553 36.1836 178.725 36.1919 178.824 36.2085C179.154 36.2417 179.586 36.2583 180.115 36.2583C181.538 36.2583 182.746 36.2417 183.737 36.2085C184.001 36.1919 184.333 36.1836 184.729 36.1836C184.779 36.1836 184.804 36.2334 184.804 36.333C184.804 36.4325 184.779 36.4823 184.729 36.4823C184.233 36.4823 183.848 36.5847 183.577 36.7922C183.303 36.9996 183.167 37.2928 183.167 37.6718C183.167 37.954 183.258 38.2915 183.441 38.687L187.734 47.8323L190.96 39.3316C191.127 38.8696 191.21 38.474 191.21 38.1421C191.21 37.6303 191.057 37.2265 190.75 36.9277C190.442 36.6317 190.002 36.4823 189.423 36.4823C189.373 36.4823 189.349 36.4325 189.349 36.333C189.349 36.2334 189.373 36.1836 189.423 36.1836L190.639 36.2085C191.334 36.2417 191.955 36.2583 192.5 36.2583C192.813 36.2583 193.204 36.2417 193.666 36.2085L194.683 36.1836C194.733 36.1836 194.757 36.2334 194.757 36.333H194.755Z" fill="#003643"/>
<path d="M204.387 50.7784C204.47 51.0107 204.631 51.1656 204.872 51.2486C205.11 51.3316 205.495 51.3731 206.027 51.3731C206.077 51.3731 206.101 51.4229 206.101 51.5225C206.101 51.6221 206.077 51.6719 206.027 51.6719C205.481 51.6719 205.052 51.6636 204.736 51.647L202.85 51.6221L201.014 51.647C200.681 51.6636 200.236 51.6719 199.673 51.6719C199.64 51.6719 199.624 51.6221 199.624 51.5225C199.624 51.4229 199.64 51.3731 199.673 51.3731C200.202 51.3731 200.59 51.3316 200.839 51.2486C201.089 51.1656 201.258 51.0052 201.349 50.7645C201.44 50.5266 201.485 50.1587 201.485 49.6608V38.1864C201.485 37.6912 201.438 37.3288 201.349 37.0965C201.258 36.8641 201.089 36.7037 200.839 36.6124C200.59 36.5211 200.202 36.4768 199.673 36.4768C199.64 36.4768 199.624 36.427 199.624 36.3275C199.624 36.2279 199.64 36.1781 199.673 36.1781L201.014 36.203C201.775 36.2362 202.388 36.2528 202.85 36.2528C203.362 36.2528 203.999 36.2362 204.761 36.203L206.027 36.1781C206.077 36.1781 206.101 36.2279 206.101 36.3275C206.101 36.427 206.077 36.4768 206.027 36.4768C205.514 36.4768 205.132 36.5266 204.886 36.6262C204.636 36.7258 204.473 36.8945 204.39 37.1352C204.307 37.3759 204.265 37.741 204.265 38.2389V49.6636C204.265 50.1753 204.307 50.5488 204.39 50.7784H204.387Z" fill="#003643"/>
<path d="M214.291 50.8918C213.092 50.1725 212.164 49.1988 211.513 47.9678C210.86 46.7368 210.533 45.3952 210.533 43.9402C210.533 42.2389 210.962 40.7811 211.823 39.5667C212.682 38.3523 213.787 37.4395 215.136 36.8281C216.485 36.2168 217.861 35.9125 219.268 35.9125C220.838 35.9125 222.22 36.2804 223.411 37.0162C224.602 37.7521 225.516 38.723 226.153 39.9291C226.79 41.1352 227.109 42.416 227.109 43.7714C227.109 45.2763 226.713 46.6539 225.918 47.9097C225.123 49.1656 224.062 50.1559 222.73 50.8835C221.398 51.611 219.955 51.9734 218.401 51.9734C216.847 51.9734 215.493 51.6138 214.294 50.8945L214.291 50.8918ZM221.711 50.546C222.447 50.0093 223.021 49.2237 223.436 48.1919C223.849 47.1601 224.057 45.9236 224.057 44.4879C224.057 42.9692 223.824 41.6082 223.361 40.4104C222.899 39.2126 222.229 38.2749 221.351 37.5972C220.473 36.9194 219.448 36.5819 218.274 36.5819C216.767 36.5819 215.609 37.149 214.801 38.2804C213.989 39.4118 213.585 40.9941 213.585 43.0273C213.585 44.629 213.829 46.0619 214.316 47.3261C214.803 48.5902 215.474 49.5778 216.327 50.2887C217.177 50.9996 218.141 51.3537 219.218 51.3537C220.143 51.3537 220.974 51.0854 221.711 50.5487V50.546Z" fill="#003643"/>
<path d="M231.285 40.593C231.268 40.6428 231.219 40.6621 231.135 40.6538C231.052 40.6456 231.011 40.6179 231.011 40.5681C231.077 39.907 231.152 39.0522 231.235 38.0038C231.318 36.9554 231.36 36.167 231.36 35.6359C231.36 35.5529 231.404 35.5114 231.496 35.5114C231.587 35.5114 231.631 35.5529 231.631 35.6359C231.631 35.9982 232.102 36.1808 233.046 36.1808C234.47 36.2306 236.132 36.2555 238.034 36.2555C239.009 36.2555 240.045 36.2389 241.136 36.2057L242.823 36.1808C243.452 36.1808 243.911 36.1393 244.199 36.0563C244.487 35.9734 244.676 35.8074 244.759 35.5612C244.776 35.4948 244.828 35.4616 244.92 35.4616C245.011 35.4616 245.055 35.4948 245.055 35.5612C245.005 36.0563 244.953 36.8503 244.895 37.9402C244.836 39.0301 244.809 39.907 244.809 40.5681C244.809 40.6179 244.767 40.6428 244.684 40.6428C244.601 40.6428 244.551 40.6179 244.535 40.5681C244.288 39.2956 243.823 38.3413 243.144 37.705C242.466 37.0688 241.632 36.7507 240.638 36.7507C240.159 36.7507 239.84 36.853 239.682 37.0605C239.524 37.268 239.447 37.6608 239.447 38.2389V49.6635C239.447 50.1753 239.497 50.5487 239.596 50.7783C239.696 51.0107 239.884 51.1656 240.167 51.2486C240.447 51.3316 240.895 51.3731 241.507 51.3731C241.557 51.3731 241.582 51.4229 241.582 51.5224C241.582 51.622 241.557 51.6718 241.507 51.6718C240.912 51.6718 240.441 51.6635 240.092 51.6469L238.032 51.622L236.021 51.6469C235.675 51.6635 235.193 51.6718 234.581 51.6718C234.531 51.6718 234.506 51.622 234.506 51.5224C234.506 51.4229 234.531 51.3731 234.581 51.3731C235.176 51.3731 235.619 51.3316 235.907 51.2486C236.195 51.1656 236.395 51.0052 236.503 50.7645C236.611 50.5266 236.664 50.1587 236.664 49.6608V38.1864C236.664 37.6248 236.589 37.2458 236.439 37.0467C236.29 36.8475 235.985 36.7507 235.522 36.7507C233.553 36.7507 232.138 38.0314 231.28 40.593H231.285Z" fill="#000"/>
<path d="M58.8003 14.9194C60.8802 11.3841 63.6609 8.57915 67.0896 6.57639C70.9309 4.33573 75.4232 3.20156 80.4416 3.20156C90.2098 3.20156 96.6988 8.32189 99.7315 18.4159C99.7813 18.6123 99.953 18.9305 100.546 18.8226C101.094 18.7258 101.21 18.4768 101.208 18.2666L99.9863 7.05772C99.9198 6.297 99.8395 5.8129 99.737 5.58054C99.6262 5.32881 99.341 5.07708 98.8508 4.80322C96.2169 3.57777 93.4972 2.69257 90.7692 2.16975C88.0412 1.6497 84.7538 1.3869 81.0038 1.3869C74.487 1.3869 68.5297 2.64555 63.2981 5.12687C60.2959 6.55149 57.662 8.33019 55.3938 10.4242C56.6761 11.8046 57.8116 13.3067 58.7948 14.9249L58.8003 14.9194Z" fill="#000"/>
<path d="M65.7075 74.6981L65.5746 74.7036C64.777 74.8835 63.6525 74.9747 62.229 74.9747C58.4596 74.9747 54.4133 73.5003 50.2036 70.5958C46.0437 67.7244 42.6511 64.037 40.1169 59.6303C44.4873 58.3385 48.4366 56.2776 51.8598 53.5031C52.7488 52.7839 53.588 52.0232 54.3856 51.2265C53.876 50.6954 53.3914 50.1449 52.9261 49.5778C52.9178 49.5695 52.9122 49.5584 52.9039 49.5501C52.4414 48.9858 52.001 48.4021 51.5828 47.7991C49.7411 51.2043 47.3039 53.8682 44.3183 55.7023C41.0724 57.6967 37.3557 58.7092 33.2734 58.7092C28.4433 58.7092 24.0812 57.3454 20.3091 54.6539C16.5287 51.9595 13.5431 48.2251 11.4355 43.5584C9.87067 40.0951 8.87917 36.3053 8.47205 32.25C8.40281 31.5501 8.34742 30.8447 8.31142 30.1283C8.31142 30.12 8.31142 30.1117 8.31142 30.1034C8.27541 29.3814 8.25602 28.6511 8.25602 27.9153C8.25602 20.3966 10.1393 14.4187 13.8533 10.1532C17.5617 5.89315 22.7989 3.73547 29.4181 3.73547C34.4975 3.73547 39.0202 4.99412 42.8588 7.47544C43.3047 7.76313 43.7339 8.06742 44.1549 8.38277C44.31 8.49896 44.4596 8.62344 44.6119 8.74239C44.8695 8.94432 45.1243 9.14626 45.3707 9.35926C45.5563 9.5197 45.7391 9.68291 45.9191 9.84889C46.1158 10.0287 46.3124 10.2113 46.5035 10.3994C46.7057 10.5958 46.9023 10.7949 47.0962 10.9996C47.2485 11.1573 47.3953 11.3205 47.5421 11.4837C47.7581 11.7216 47.9714 11.9595 48.1763 12.2085C48.2677 12.3191 48.3563 12.4353 48.4477 12.5487C49.2924 13.6027 50.0679 14.7341 50.7603 15.9512C51.1148 16.5764 51.4554 17.2154 51.7712 17.8821C52.0121 18.3966 52.2392 18.9222 52.4525 19.4561C52.519 19.6221 52.5771 19.7963 52.6408 19.9651C52.7821 20.3357 52.9233 20.7064 53.0507 21.0882C53.1172 21.2873 53.1753 21.4893 53.239 21.6912C53.3526 22.0508 53.4661 22.4077 53.5686 22.7756C53.6268 22.9858 53.6766 23.2016 53.732 23.4118C53.8262 23.777 53.9203 24.1421 54.0007 24.5128C54.0477 24.7286 54.0893 24.9499 54.1336 25.1684C54.2084 25.5446 54.2832 25.9236 54.3496 26.3081C54.3856 26.5266 54.4161 26.7452 54.4493 26.9637C54.5075 27.3565 54.5656 27.7521 54.6127 28.1532C54.6377 28.3689 54.6598 28.5902 54.6792 28.8088C54.7207 29.2182 54.7595 29.6304 54.7872 30.0481C54.8011 30.2638 54.8121 30.4824 54.826 30.7009C54.8398 30.9637 54.862 31.2209 54.8703 31.4837H54.8814C54.8897 31.9678 54.9174 32.4464 54.9478 32.925C54.9617 33.1656 54.9755 33.4035 54.9949 33.6414C55.0254 34.0066 55.0642 34.3717 55.1057 34.7341C55.1334 34.9747 55.1583 35.2154 55.1916 35.4533C55.2414 35.8074 55.2996 36.1587 55.3577 36.5073C55.3993 36.7451 55.4381 36.9858 55.4824 37.2237C55.5488 37.5695 55.6292 37.907 55.7067 38.2472C55.7621 38.4824 55.8119 38.7175 55.8701 38.9499C55.956 39.2873 56.0557 39.622 56.1526 39.9568C56.2191 40.1836 56.28 40.4104 56.352 40.6345C56.46 40.9775 56.5846 41.3122 56.7037 41.6497C56.7785 41.8572 56.8478 42.0702 56.9281 42.2749C57.0693 42.64 57.2244 42.9969 57.3795 43.3537C57.4543 43.5252 57.5208 43.7023 57.6011 43.8738C57.842 44.3966 58.0941 44.9139 58.3655 45.4256C58.4541 45.5916 58.551 45.7465 58.6424 45.9097C59.1769 45.0688 59.6755 44.203 60.1324 43.3067C61.88 39.8655 62.8771 36.1559 63.1069 32.2638C63.1402 31.6801 63.1596 31.0937 63.1596 30.5017C63.1596 25.4754 61.9354 20.6539 59.5204 16.1753C59.2933 15.7548 59.0468 15.3482 58.8003 14.9416C57.1358 12.1974 55.0309 9.78526 52.5134 7.73824C52.4885 7.71611 52.4636 7.69398 52.4386 7.67461C51.9733 7.2984 51.4914 6.93879 50.9985 6.58748C50.9265 6.53768 50.86 6.48236 50.788 6.43257C50.2313 6.04253 49.658 5.66908 49.0681 5.31224C44.5454 2.55982 39.2307 1.17392 33.2734 1.17392C27.9475 1.17392 22.6549 2.32192 17.5451 4.59024C12.4297 6.86134 8.18402 10.297 4.92149 14.8032C1.65619 19.315 0 24.806 0 31.1241C0 36.5238 1.25738 41.575 3.73335 46.1393C6.2121 50.712 9.77651 54.3828 14.3296 57.0522C18.88 59.7216 24.1449 61.0743 29.9804 61.0743H31.4842C34.9822 66.0591 39.2223 70.0093 44.0857 72.8143C48.9822 75.6359 53.6932 77.066 58.0913 77.066C60.2266 77.066 62.8992 76.6926 66.0676 75.9457C66.2171 75.8738 66.3612 75.6884 66.2033 75.2292C66.159 75.0992 66.0233 74.6981 65.7048 74.6981H65.7075Z" fill="#000"/>
<path d="M101.257 44.3966C100.712 44.2887 100.543 44.5404 100.49 44.6926C98.6319 49.7216 96.1033 53.4837 92.9793 55.8737C89.8608 58.2582 85.8006 59.4671 80.9124 59.4671C76.0241 59.4671 71.8061 58.2085 67.8456 55.7271C63.8796 53.243 60.6891 49.7714 58.3655 45.409C56.1388 41.232 54.9755 36.5432 54.8786 31.4699H54.8675C54.6875 26.4547 53.6545 21.882 51.7712 17.8737C51.4582 17.2071 51.1176 16.5681 50.7603 15.9429C47.9464 20.3495 46.509 25.4311 46.509 31.0605C46.509 36.6898 47.988 42.2527 50.9071 46.8226C53.8262 51.3952 57.9307 55.0024 63.1069 57.5473C68.2777 60.0895 74.235 61.3813 80.8154 61.3813C84.3798 61.3813 87.6507 61.0854 90.5338 60.5044C93.4141 59.9235 96.4966 58.8834 99.7065 57.4062C100.186 57.1407 100.471 56.8862 100.582 56.6345C100.681 56.4076 100.789 55.9401 100.925 55.1573L101.867 44.8475C101.867 44.521 101.407 44.4298 101.255 44.4021L101.257 44.3966Z" fill="#000"/>
</g>
</g>
<defs>
<clipPath id="clip0_3711_7447">
<rect width="245" height="79" fill="000"/>
</clipPath>
<clipPath id="clip1_3711_7447">
<rect width="245.055" height="75.8921" fill="white" transform="translate(0 1.17392)"/>
</clipPath>
</defs>
</svg>
