<svg class="custom-logo style-svg replaced-svg svg-replaced-0" id="svg-replaced-0" fill="none" viewBox="0 0 162 41" height="41" width="162" xmlns="http://www.w3.org/2000/svg">
<g id="Logo svg">
<g id="Group">
<g id="Group_2">
<g id="Group_3">
<path fill="#000" d="M5.08156 31.7344C5.49784 32.4496 6.03154 32.9797 6.68977 33.3284C7.348 33.6771 8.09874 33.8514 8.93843 33.8514C9.46501 33.8514 9.95246 33.7731 10.415 33.613C10.874 33.4529 11.276 33.2323 11.6176 32.9477C11.9592 32.663 12.226 32.3179 12.4288 31.9123C12.6281 31.5067 12.7241 31.0513 12.7241 30.5425C12.7241 29.9554 12.6032 29.4715 12.3541 29.0908C12.1086 28.7101 11.7813 28.397 11.365 28.1515C10.9558 27.906 10.4897 27.6961 9.97381 27.5217C9.4579 27.3474 8.9242 27.173 8.37627 26.9987C7.82833 26.8243 7.29819 26.6251 6.78228 26.4045C6.26637 26.1803 5.80027 25.8921 5.38754 25.5328C4.97482 25.177 4.64392 24.7287 4.39842 24.1879C4.15292 23.647 4.03195 22.9817 4.03195 22.1883C4.03195 21.4411 4.17782 20.7793 4.47314 20.1993C4.76489 19.6194 5.16339 19.1355 5.66507 18.7477C6.16319 18.3598 6.73958 18.0645 7.3907 17.8653C8.04181 17.666 8.72495 17.5664 9.44011 17.5664C10.3616 17.5664 11.212 17.7301 11.9983 18.0539C12.7846 18.3776 13.4642 18.922 14.0335 19.6834L12.6779 20.6583C12.283 20.1033 11.8169 19.687 11.2867 19.4059C10.753 19.1284 10.1232 18.9896 9.3903 18.9896C8.8815 18.9896 8.39761 19.0572 7.93863 19.1924C7.47965 19.3276 7.07759 19.5269 6.73603 19.7866C6.39446 20.0499 6.12049 20.3772 5.91413 20.7757C5.70776 21.1707 5.60458 21.6403 5.60458 22.1811C5.60458 23.0208 5.82162 23.6684 6.24858 24.1203C6.6791 24.5721 7.2128 24.9279 7.8568 25.1912C8.5008 25.4545 9.19816 25.6822 9.95246 25.8815C10.7032 26.0807 11.4041 26.344 12.0446 26.6785C12.6886 27.0129 13.2258 27.4755 13.6528 28.0732C14.0833 28.6674 14.2968 29.4893 14.2968 30.5389C14.2968 31.3003 14.1545 31.9763 13.8663 32.5634C13.5816 33.1505 13.1974 33.645 12.7099 34.0507C12.226 34.4563 11.6674 34.7623 11.0305 34.9686C10.3937 35.175 9.73542 35.2782 9.05584 35.2782C7.94575 35.2782 6.92104 35.086 5.98529 34.6947C5.04598 34.3068 4.24542 33.6522 3.58008 32.7306L5.08156 31.7344Z" id="Vector"></path>
<path fill="#000" d="M27.554 19.4225H21.79V17.9922H34.887V19.4225H29.1231V34.85H27.5504V19.4225H27.554Z" id="Vector_2"></path>
<path fill="#000" d="M46.9839 17.9961H48.6028L55.6975 34.8539H53.9363L52.1039 30.378H43.1769L41.2698 34.8539H39.626L46.9839 17.9961ZM47.7204 19.7111L43.7924 28.9476H51.5275L47.7204 19.7111Z" id="Vector_3"></path>
<path fill="#000" d="M64.0771 17.9961H68.5069C68.7275 17.9961 69.0299 18.0032 69.4106 18.021C69.7913 18.0352 70.204 18.085 70.6523 18.1633C71.0935 18.2416 71.5489 18.3697 72.0079 18.544C72.4705 18.7184 72.8796 18.9745 73.2461 19.3054C73.609 19.6399 73.9115 20.0597 74.1498 20.5685C74.3847 21.0773 74.5056 21.6964 74.5056 22.4258C74.5056 23.237 74.3669 23.9024 74.0894 24.4254C73.8118 24.9484 73.4632 25.3754 73.0398 25.6992C72.6199 26.023 72.1574 26.2685 71.6486 26.425C71.1398 26.5851 70.6559 26.6954 70.1969 26.7595L75.1034 34.8539H73.3173L68.578 26.8555H65.6498V34.8539H64.0771V17.9961ZM65.6498 25.4217H68.9836C69.8055 25.4217 70.478 25.3185 70.9939 25.1121C71.5098 24.9057 71.9083 24.6531 72.1965 24.3507C72.4847 24.0483 72.6768 23.7245 72.78 23.3758C72.8832 23.0271 72.9366 22.7105 72.9366 22.4223C72.9366 22.1376 72.8832 21.821 72.78 21.4687C72.6768 21.12 72.4847 20.7927 72.1965 20.4938C71.9083 20.1914 71.5098 19.9388 70.9939 19.7324C70.478 19.526 69.8055 19.4229 68.9836 19.4229H65.6498V25.4217Z" id="Vector_4"></path>
</g>
<g id="Group_4">
<path fill="#000" d="M86.3604 18H90.0749V31.4279H96.9561V34.8578H86.3604V18Z" id="Vector_5"></path>
<path fill="#000" d="M104.908 18H108.623V34.8578H104.908V18Z" id="Vector_6"></path>
<path fill="#000" d="M117.955 17.9961H123.573L127.455 28.9939H127.501L131.408 17.9961H137.005V34.8539H133.29V21.9241H133.244L128.814 34.8539H125.982L121.719 21.9241H121.673V34.8539H117.959V17.9961H117.955Z" id="Vector_7"></path>
<path fill="#000" d="M154.716 22.1142C154.414 21.7335 154.005 21.4524 153.489 21.2674C152.973 21.086 152.486 20.9935 152.027 20.9935C151.756 20.9935 151.479 21.0255 151.194 21.0895C150.909 21.1536 150.639 21.2532 150.383 21.3884C150.13 21.5236 149.924 21.7015 149.764 21.9257C149.604 22.1498 149.525 22.4167 149.525 22.7369C149.525 23.2457 149.714 23.6335 150.098 23.9039C150.479 24.1743 150.959 24.402 151.539 24.5942C152.119 24.7827 152.742 24.9749 153.411 25.167C154.076 25.3556 154.699 25.626 155.279 25.9747C155.859 26.3234 156.339 26.793 156.72 27.3801C157.1 27.9672 157.289 28.7535 157.289 29.7355C157.289 30.6712 157.114 31.4896 156.766 32.187C156.417 32.8879 155.944 33.4643 155.35 33.9268C154.756 34.3858 154.065 34.7274 153.279 34.9515C152.493 35.1757 151.664 35.286 150.792 35.286C149.696 35.286 148.678 35.1188 147.743 34.7879C146.807 34.457 145.935 33.9162 145.124 33.169L147.768 30.2656C148.148 30.7744 148.629 31.1658 149.209 31.4433C149.789 31.7209 150.386 31.8596 151.005 31.8596C151.308 31.8596 151.614 31.824 151.923 31.7529C152.233 31.6817 152.507 31.575 152.756 31.4327C153.001 31.2903 153.201 31.1089 153.35 30.8847C153.5 30.6641 153.578 30.4008 153.578 30.0984C153.578 29.5896 153.386 29.1911 152.994 28.8958C152.607 28.604 152.119 28.3514 151.532 28.1451C150.945 27.9387 150.308 27.7323 149.628 27.526C148.945 27.3196 148.312 27.0421 147.725 26.6934C147.138 26.3447 146.65 25.8857 146.259 25.3129C145.871 24.74 145.676 23.9893 145.676 23.05C145.676 22.1463 145.853 21.3528 146.209 20.6697C146.569 19.9865 147.042 19.4173 147.64 18.9547C148.234 18.4957 148.92 18.1506 149.7 17.9193C150.475 17.6881 151.279 17.5742 152.105 17.5742C153.058 17.5742 153.976 17.7094 154.869 17.9798C155.755 18.2502 156.559 18.7021 157.271 19.3354L154.716 22.1142Z" id="Vector_8"></path>
</g>
</g>
<g id="Group_5">
<path fill="#000" d="M67.5459 0.292969L77.8463 8.72901L80.0025 21.8687V7.4837L67.5459 0.292969Z" id="Vector_9"></path>
<path fill="#000" d="M80.3408 7.4837V21.8687L82.497 8.72901L92.7938 0.292969L80.3408 7.4837Z" id="Vector_10"></path>
<path fill="#000" d="M80.1698 4.70013L67.7168 0L80.1698 7.19074L92.6264 0L80.1698 4.70013Z" id="Vector_11"></path>
</g>
</g>
</g>
</svg>