<svg class="custom-logo style-svg replaced-svg svg-replaced-0" id="svg-replaced-0" fill="none" viewBox="0 0 164 42" height="42" width="164" xmlns="http://www.w3.org/2000/svg">
<g clip-path="url(#clip0_15429_20378)">
<path fill="#000" d="M91.0225 25.2981V15.8249C91.0225 13.2829 92.3243 11.8844 94.5226 11.8844C95.9451 11.8844 96.9279 12.5792 97.3418 13.3093V6.10547H98.6522V29.0539H97.4021V27.7785C96.9538 28.4734 95.9451 29.2298 94.5226 29.2298C92.3243 29.2298 91.0225 27.8401 91.0225 25.2893V25.2981ZM94.8502 28.0512C96.3589 28.0512 97.3418 27.0484 97.3418 25.3245V15.6402C97.3418 14.0393 96.3589 13.063 94.8502 13.063C93.3415 13.063 92.3242 14.0657 92.3242 15.7897V25.3245C92.3242 27.0484 93.3071 28.0512 94.8502 28.0512Z"></path>
<path fill="#000" d="M101.618 25.1837V15.948C101.618 13.4676 103.015 11.8579 105.446 11.8579C107.998 11.8579 109.248 13.4324 109.248 16.1591V21.032H102.929V25.3596C102.929 26.9956 103.972 28.0247 105.455 28.0247C106.937 28.0247 107.946 26.9956 107.946 25.6059V25.4563H109.248V25.6059C109.248 27.6377 107.851 29.2386 105.446 29.2386C103.041 29.2386 101.618 27.6641 101.618 25.1837ZM107.937 19.9765V15.948C107.937 14.0393 107.015 13.0717 105.446 13.0717C103.963 13.0717 102.92 14.0745 102.92 15.8249V19.9765H107.937Z"></path>
<path fill="#000" d="M111.653 25.3948H112.955C112.955 27.0572 113.903 28.0599 115.481 28.0599C117.059 28.0599 117.912 26.8461 117.912 25.6674C117.912 24.8494 117.766 24.093 116.843 22.9759L113.162 18.5516C112.214 17.3993 111.851 16.2822 111.851 15.3411C111.851 13.5203 113.041 11.8579 115.326 11.8579C117.757 11.8579 119.067 13.1861 119.067 15.6401H117.817C117.817 13.9425 116.869 13.1245 115.412 13.1245C113.955 13.1245 113.102 14.1272 113.102 15.3323C113.102 16.0272 113.429 16.8804 114.11 17.6896L117.817 22.1667C118.86 23.4421 119.179 24.4976 119.179 25.6762C119.179 27.4354 118.024 29.221 115.472 29.221C112.92 29.221 111.645 27.7345 111.645 25.3772L111.653 25.3948Z"></path>
<path fill="#000" d="M122.395 8.25146C122.809 8.25146 123.222 8.58571 123.222 9.09587C123.222 9.51807 122.809 9.91389 122.395 9.91389C121.921 9.91389 121.507 9.51807 121.507 9.09587C121.507 8.58571 121.921 8.25146 122.395 8.25146ZM121.714 12.0689H123.024V29.0537H121.714V12.0689Z"></path>
<path fill="#000" d="M126.016 31.631H127.266C127.266 32.7833 128.068 33.7508 129.697 33.7508C131.326 33.7508 132.188 32.9064 132.188 31.1736V27.7784C131.74 28.5085 130.792 29.2297 129.369 29.2297C127.171 29.2297 125.869 27.84 125.869 25.2628V15.7896C125.869 13.3092 127.171 11.9106 129.283 11.9106C130.706 11.9106 131.775 12.5176 132.249 13.3356V12.0602H133.499V30.9625C133.499 33.4781 132.309 34.8679 129.697 34.8679C127.085 34.8679 126.016 33.2934 126.016 31.631ZM129.697 28.0247C131.3 28.0247 132.188 27.0571 132.188 25.1484V15.9128C132.188 14.0656 131.3 13.0365 129.697 13.0365C128.093 13.0365 127.171 14.0392 127.171 15.7632V24.9989C127.171 26.9956 128.059 28.0247 129.697 28.0247Z"></path>
<path fill="#000" d="M136.697 12.069H137.913V13.3708C138.387 12.5792 139.369 11.8843 140.818 11.8843C143.016 11.8843 144.318 13.274 144.318 15.7896V29.0538H143.008V15.7633C143.008 14.0393 141.939 13.0365 140.482 13.0365C138.611 13.0365 137.956 14.4615 137.956 16.5813V29.0538H136.68V12.069H136.697Z"></path>
<path fill="#000" d="M147.146 25.1837V15.948C147.146 13.4676 148.543 11.8579 150.974 11.8579C153.405 11.8579 154.776 13.4324 154.776 16.1591V21.032H148.457V25.3596C148.457 26.9956 149.5 28.0247 150.983 28.0247C152.466 28.0247 153.474 26.9956 153.474 25.6059V25.4563H154.785V25.6059C154.785 27.6377 153.388 29.2386 150.983 29.2386C148.578 29.2386 147.155 27.6641 147.155 25.1837H147.146ZM153.466 19.9765V15.948C153.466 14.0393 152.543 13.0717 150.974 13.0717C149.491 13.0717 148.448 14.0745 148.448 15.8249V19.9765H153.466Z"></path>
<path fill="#000" d="M157.716 12.0692H158.931V13.371C159.379 12.6145 160.293 11.7701 162.052 11.8845V13.1863C160.181 13.0631 158.992 14.2506 158.992 16.0889V29.0452H157.716V12.0692Z"></path>
<path fill="#000" d="M27.9238 25.0253H30.6567C30.6567 26.2392 31.3723 26.8725 32.2258 26.8725C33.0793 26.8725 33.6483 26.204 33.6483 25.386C33.6483 24.7791 33.5879 24.3569 32.8206 23.3893L29.467 19.2377C28.2514 17.7248 28.1307 16.6341 28.1307 15.605C28.1307 13.5115 29.5877 11.8491 32.0447 11.8491C34.7173 11.8491 36.2605 13.2125 36.2605 16.0272H33.5621C33.5621 14.8133 32.8465 14.3032 32.1654 14.3032C31.4844 14.3032 30.8292 14.8221 30.8292 15.6313C30.8292 16.1503 31.0102 16.722 31.5447 17.3905L34.9587 21.5686C36.1484 23.0199 36.3812 24.2073 36.3812 25.4739C36.3812 27.5937 34.9587 29.2562 32.2258 29.2562C29.4929 29.2562 27.9238 27.6817 27.9238 25.0165V25.0253Z"></path>
<path fill="#000" d="M38.5793 24.8757V14.5845H37.4844V12.2184C38.9672 12.2184 39.381 11.673 39.381 9.52686H41.3122V12.0689H43.3899V14.5845H41.3122V24.7613C41.3122 26.1862 41.4587 26.8547 43.3899 26.6348V29.1505C40.0362 29.5463 38.5793 28.3324 38.5793 24.8845V24.8757Z"></path>
<path fill="#000" d="M45.2354 24.8756V12.0688H47.9683V25.2715C47.9683 26.3006 48.6493 26.7228 49.4252 26.7228C50.2011 26.7228 50.8477 26.3006 50.8477 25.2715V12.0688H53.5806V24.8756C53.5806 27.5672 51.9771 29.2384 49.4252 29.2384C46.8734 29.2384 45.244 27.576 45.244 24.8756H45.2354Z"></path>
<path fill="#000" d="M55.8223 25.1837V15.9481C55.8223 13.0454 57.1241 11.8932 59.0897 11.8932C60.6329 11.8932 61.3139 12.8959 61.4346 13.1334V6.10547H64.1675V29.0539H61.6157V27.9896C61.4691 28.2359 60.6329 29.2298 59.0897 29.2298C57.1327 29.2298 55.8223 28.0776 55.8223 25.1749V25.1837ZM60.0035 26.6966C60.9518 26.6966 61.426 26.1513 61.426 24.5768V16.5198C61.426 14.9453 60.9518 14.4264 60.0035 14.4264C59.1155 14.4264 58.581 14.9981 58.581 16.5462V24.568C58.581 26.1425 59.0897 26.6878 60.0035 26.6878V26.6966Z"></path>
<path fill="#000" d="M68.1155 7.09961C69.0035 7.09961 69.7794 7.85605 69.7794 8.79721C69.7794 9.73837 69.0121 10.4596 68.1155 10.4596C67.1672 10.4596 66.4258 9.70319 66.4258 8.79721C66.4258 7.89124 67.1672 7.09961 68.1155 7.09961ZM66.7189 12.0693H69.4518V29.0541H66.7189V12.0693Z"></path>
<path fill="#000" d="M71.8223 24.7526V16.335C71.8223 13.6435 73.3396 11.8843 76.0035 11.8843C78.6675 11.8843 80.1589 13.6435 80.1589 16.335V24.7526C80.1589 27.5409 78.6157 29.2649 76.0035 29.2649C73.3913 29.2649 71.8223 27.5409 71.8223 24.7526ZM76.0035 26.7229C76.7449 26.7229 77.426 26.3007 77.426 25.1485V15.9744C77.426 14.8837 76.7708 14.3999 76.0035 14.3999C75.2362 14.3999 74.5466 14.8837 74.5466 15.9744V25.1485C74.5466 26.3007 75.2276 26.7229 76.0035 26.7229Z"></path>
<path fill="#000" d="M13.7596 27.3915H7.08685L4.83673 29.652H3.6815L4.7419 27.3915H4.0091C2.37108 27.3915 1.26758 26.0721 1.05205 24.524L0.000268922 17.2147C-0.0342157 16.9508 0.0778592 16.8189 0.31063 16.8101H4.65569C4.88846 16.8101 5.01778 16.9508 5.06088 17.1795L5.71609 21.7357C5.78506 22.1316 6.00059 22.2811 6.31957 22.2811H14.5441C14.8631 22.2811 15.0787 22.1228 15.1476 21.7357L15.8028 17.1795C15.8459 16.9508 15.9752 16.8189 16.208 16.8101H20.5445C20.7772 16.8189 20.8893 16.9508 20.8548 17.2147L19.803 24.5328C19.5789 26.1161 18.4926 27.4003 16.846 27.4003H16.1132L17.1736 29.6608H16.0184L13.7682 27.4003L13.7596 27.3915Z" clip-rule="evenodd" fill-rule="evenodd"></path>
<path fill="#000" d="M7.27617 20.5308L6.75028 16.8981C6.75028 16.8981 6.75028 16.8717 6.75028 16.8629C6.53475 15.781 5.74161 15.095 4.68983 15.0598H3.81909L4.12945 12.7816C4.15532 12.6233 4.34498 12.0604 5.95714 11.5678C7.14685 11.1984 8.74177 11.0049 10.4401 11.0049C12.1385 11.0049 13.7248 11.2072 14.9145 11.5678C16.518 12.0604 16.7163 12.6233 16.7336 12.7816L17.0439 15.0598H16.1732C15.1214 15.095 14.3283 15.781 14.1127 16.8629C14.1127 16.8717 14.1127 16.8893 14.1127 16.8981L13.5868 20.5308H7.29341H7.27617Z" clip-rule="evenodd" fill-rule="evenodd"></path>
<path fill="#000" d="M86.3322 7.36328H85.3752V30.5228H86.3322V7.36328Z"></path>
</g>
<defs>
<clipPath id="clip0_15429_20378">
<rect transform="translate(0 6)" fill="#000" height="29" width="163"></rect>
</clipPath>
</defs>
</svg>