<?xml version="1.0" encoding="UTF-8"?> <svg xmlns="http://www.w3.org/2000/svg" id="Layer_1" data-name="Layer 1" viewBox="0 0 150 22"><defs><style>.cls-1{fill:#000;fill-rule:evenodd;}</style></defs><title>trowe-logo</title><g id="Symbols"><g id="Logo-bar"><g id="Logo"><path id="Fill-1" class="cls-1" d="M126,20.88a7.33,7.33,0,0,0,4.65-1.66l-.11-1a6.18,6.18,0,0,1-2.89.88c-3.08,0-4.92-2.64-4.92-6,0-2.69.74-5.36,3.06-5.36,1.77,0,2.51,1.23,2.85,3.64h1l.7-4.32A13.63,13.63,0,0,0,126,6.48c-4.21,0-7.14,2.27-7.14,7C118.9,17.31,121.05,20.88,126,20.88ZM135.25,12h5.14c0-1.59-.39-4.24-2.57-4.24S135.25,10.59,135.25,12Zm4.49,7.1a5.64,5.64,0,0,0,2.85-.88l.1,1a6.93,6.93,0,0,1-4.8,1.67c-4.66,0-6.54-3.44-6.54-7.21,0-2.37.72-7.2,6.53-7.2,5.15,0,6,4.56,6.12,6.11l-.79.72h-8C135.18,16.66,136.76,19.13,139.74,19.13ZM76.85,12H82c0-1.59-.39-4.24-2.57-4.24S76.85,10.59,76.85,12Zm4.49,7.1a5.68,5.68,0,0,0,2.85-.88l.1,1a7,7,0,0,1-4.8,1.67c-4.66,0-6.54-3.44-6.54-7.21,0-2.37.71-7.2,6.52-7.2,5.16,0,6,4.56,6.13,6.11l-.79.72h-8C76.78,16.66,78.36,19.13,81.34,19.13ZM106.65,9V6.41l-3,.81a5.39,5.39,0,0,0,.62-2.59c0-2.86-1.7-4.63-5.59-4.63H87.79l.34.92c1.07.2,1.82.22,1.82.89V18.6c0,.66-.75.68-1.82.88l-.34.92h8.42l-.32-.92c-1.09-.2-1.83-.22-1.83-.88V1.89c0-.33.09-.49.45-.49h1.77c3,0,3.72,1.43,3.72,3.77,0,2.73-1.54,4.27-4.18,4.27H95l.76,1.18a12,12,0,0,0,1.42.1,9.31,9.31,0,0,0,5.29-2c.37.08.62.34.62,1v9c0,.66-.76.68-1.83.88l-.33.92h7.89l-.32-.92c-1.08-.2-1.83-.22-1.83-.88V10.43a2.11,2.11,0,0,1,1.72-1.12c.86,0,1.27.76,1.47,2.12h1l.8-4.95A6.1,6.1,0,0,0,106.65,9ZM42.38,20.93a2.4,2.4,0,0,1-2.24-1.4S35.28,11.36,34,10c1.5-.4,4.53-1.47,4.53-5.49,0-2.8-1.77-4.53-5.6-4.53H22l.32.92c1.09.2,1.83.22,1.83.89V18.6c0,.66-.74.68-1.83.88L22,20.4h8.41l-.33-.92c-1.08-.2-1.82-.22-1.82-.88V1.88c0-.34.1-.48.44-.48h1.88c3,0,3.62,1.44,3.62,3.79,0,2.92-1.73,4.25-4.25,4.25h-.77c1.84,2.76,3,5.2,4.76,8.09C36.43,21.45,37.87,22,40.37,22a7.37,7.37,0,0,0,2.12-.28Zm7.94-7.25c0-4-.72-5.89-2.84-5.89-2.49,0-2.84,2.77-2.84,5.89,0,4.23.82,5.9,2.84,5.9S50.32,17.79,50.32,13.68Zm-9.7,0c0-3.91,2.21-7.2,6.86-7.2,4.46,0,6.85,3,6.85,7.2,0,4-2.25,7.21-6.85,7.21S40.62,17.71,40.62,13.68ZM17.54,20.56a1.91,1.91,0,1,0-1.95-1.9A1.92,1.92,0,0,0,17.54,20.56ZM115.08,5.47a1.94,1.94,0,0,0,2-1.92,2,2,0,0,0-3.93,0A1.94,1.94,0,0,0,115.08,5.47ZM58.85,20.4h2.23l2.5-8,2.6,8h2.33l3-11.3c.32-1,1-1.06,1.87-1.21L73.75,7H68.11l.33.92c.76.14,1.14.22,1.14.6a2.87,2.87,0,0,1-.11.68c-.51,2.07-1.39,5.59-1.39,5.59L65.7,7H63.37l-2.45,7.74c-.73-2.87-.78-3.16-1.13-4.63a6.89,6.89,0,0,1-.25-1.3c0-.46.25-.73,1.23-.89L61.1,7H53.52l.33.92c.74.12,1.53.2,1.68.71Zm-46,0-.33-.92c-1.08-.2-1.82-.22-1.82-.88V1.84h3.46c1.5,0,1.6,1.19,2.08,3.42h1L17,0H.23L0,5.26H1C1.49,3,1.59,1.84,3.09,1.84H6.55V18.6c0,.66-.75.68-1.82.88l-.33.92Zm104-1.6c.19.56,1.08.52,1.64.68a3.15,3.15,0,0,1,.4.92h-7.49c.3-.48.28-.57.48-.92.54-.25,1.26-.23,1.38-.91V7.09c1.15-.21,2.39-.33,3.59-.54Z"></path></g></g></g><path id="Fill-2" class="cls-1" d="M147.11,5.72V6.3h.46a.61.61,0,0,0,.34-.06A.3.3,0,0,0,148,6a.29.29,0,0,0-.09-.23.79.79,0,0,0-.34,0Zm-.62-.55h1.18a1.67,1.67,0,0,1,.46,0,.69.69,0,0,1,.36.27.78.78,0,0,1,.13.46.82.82,0,0,1-.11.44,1.56,1.56,0,0,1-.18.17.54.54,0,0,1,.18.19,1.75,1.75,0,0,1,.06.49,3.37,3.37,0,0,0,0,.43.32.32,0,0,0,.15.17H148a1.51,1.51,0,0,1-.08-.45,1.58,1.58,0,0,0,0-.44.2.2,0,0,0-.13-.11l-.22,0h-.44v1h-.62Zm1-.7a2,2,0,0,0-1.43.6,1.92,1.92,0,0,0-.58,1.42,2,2,0,0,0,.59,1.44,2,2,0,0,0,2.84,0,2.12,2.12,0,0,0,.44-.66,2,2,0,0,0,.15-.75,2,2,0,0,0-.58-1.46A2,2,0,0,0,147.5,4.47Zm0-.47a2.41,2.41,0,0,1,1.77.73,2.44,2.44,0,0,1,.73,1.8,2.37,2.37,0,0,1-.37,1.27A2.45,2.45,0,0,1,147.5,9a2.43,2.43,0,0,1-1.31-.37,2.53,2.53,0,0,1-.92-1A2.49,2.49,0,0,1,145,6.49a2.39,2.39,0,0,1,.37-1.3,2.44,2.44,0,0,1,1-.92A2.52,2.52,0,0,1,147.5,4Z"></path></svg> 