<svg xmlns="http://www.w3.org/2000/svg" enable-background="new 0 0 2000 2000" viewBox="0 0 2000 2000" id="growth"><path d="M490.2 1760.2H256c-9.9 0-18-8.1-18-18v-414.7c0-9.9 8.1-18 18-18h234.2c9.9 0 18 8.1 18 18v414.7C508.2 1752.2 500.2 1760.2 490.2 1760.2zM274 1724.2h198.2v-378.7H274V1724.2zM907.7 1760.2H673.5c-9.9 0-18-8.1-18-18v-672.4c0-9.9 8.1-18 18-18h234.2c9.9 0 18 8.1 18 18v672.4C925.7 1752.2 917.6 1760.2 907.7 1760.2zM691.5 1724.2h198.2v-636.4H691.5V1724.2zM1325.2 1760.2h-234.2c-9.9 0-18-8.1-18-18V934.8c0-9.9 8.1-18 18-18h234.2c9.9 0 18 8.1 18 18v807.4C1343.2 1752.2 1335.1 1760.2 1325.2 1760.2zM1108.9 1724.2h198.2V952.8h-198.2V1724.2zM1742.6 1760.2h-234.2c-9.9 0-18-8.1-18-18V699c0-9.9 8.1-18 18-18h234.2c9.9 0 18 8.1 18 18v1043.2C1760.6 1752.2 1752.6 1760.2 1742.6 1760.2zM1526.4 1724.2h198.2V717h-198.2V1724.2zM306.8 1167.7c-1.4 0-2.8-.2-4.1-.5-4.6-1.1-8.7-4-11.2-8l-50.8-81.9c-5.2-8.4-2.6-19.5 5.8-24.8l349.9-217 380.7-489.7c3.5-4.6 9.1-7.2 14.8-6.9 5.8.2 11.1 3.2 14.3 8l189.2 281.6 391.9-324.1c.1-.1.2-.2.3-.3 7.8-6.2 19.1-4.9 25.3 2.9 6.1 7.8 4.9 19-2.8 25.2L1203 668.9c-3.9 3.2-9 4.7-14.1 3.9-5-.7-9.5-3.6-12.4-7.8L990.2 387.6 622.8 860.1c-1.3 1.7-2.9 3.1-4.7 4.2l-337.3 209.2 31.8 51.3 349.2-216.6 309.5-398.1c3.5-4.6 9.1-7.1 14.8-6.9 5.8.2 11.1 3.2 14.3 8l174.3 259.4 473.9-391.9c.1-.1.2-.2.3-.3 7.8-6.2 19.1-4.9 25.3 2.9 6.1 7.8 4.9 19-2.8 25.2L1182.4 811c-3.9 3.2-9 4.7-14.1 3.9s-9.5-3.6-12.4-7.8L984.5 552 688.3 933c-1.3 1.7-2.9 3.1-4.7 4.2L316.3 1165C313.4 1166.8 310.1 1167.7 306.8 1167.7z"></path><path d="M1687.4,443.4c-5.3,0-10.4-2.4-13.9-6.5l-27.2-32.8c-6.3-7.7-5.3-19,2.4-25.3c7.7-6.3,19-5.3,25.3,2.4l6.6,7.9l37-109.5l-114.5,15.7l9.5,11.5c6.3,7.7,5.3,19-2.4,25.3c-7.7,6.3-19,5.3-25.3-2.4l-30.1-36.4c-4.2-5-5.3-11.9-2.9-18c2.4-6.1,7.9-10.4,14.3-11.3l175.3-24.1c6.2-0.9,12.4,1.6,16.3,6.4c4,4.8,5.2,11.3,3.2,17.2l-56.6,167.6c-2.1,6.2-7.4,10.8-13.8,11.9C1689.5,443.3,1688.5,443.4,1687.4,443.4z"></path></svg>