<svg xmlns="http://www.w3.org/2000/svg" fill-rule="evenodd" stroke-linejoin="round" stroke-miterlimit="2" clip-rule="evenodd" viewBox="0 0 32 32" id="maximize"><path fill="#69f0ae" d="M29.323 9.34a6.661 6.661 0 0 0-6.661-6.662H9.339A6.661 6.661 0 0 0 2.68 9.34v13.323a6.661 6.661 0 0 0 6.66 6.661h13.323a6.661 6.661 0 0 0 6.661-6.661V9.339Z"></path><path fill="#455a64" d="M30 9a7 7 0 0 0-7-7H9a7 7 0 0 0-7 7v14a7 7 0 0 0 7 7h14a7 7 0 0 0 7-7V9Zm-2 0a5 5 0 0 0-5-5H9a5 5 0 0 0-5 5v14a5 5 0 0 0 5 5h14a5 5 0 0 0 5-5V9Z"></path><path fill="#455a64" d="M11.414 22H15a1 1 0 0 1 0 2H9a1 1 0 0 1-1-1v-6a1 1 0 0 1 2 0v3.586l3.879-3.879a1 1 0 0 1 1.414 1.414L11.414 22Zm9.172-12H17a1 1 0 0 1 0-2h6a1 1 0 0 1 1 1v6a1 1 0 0 1-2 0v-3.586l-3.879 3.879a1 1 0 0 1-1.414-1.414L20.586 10Z"></path></svg>