<svg xmlns="http://www.w3.org/2000/svg" enable-background="new 0 0 64 64" viewBox="0 0 64 64" id="mobile-contacts"><g><g><g><g><path d="M49.52,64H17.13c-1.66,0-3.01-1.35-3.01-3.01V3.01c0-1.66,1.35-3.01,3.01-3.01h32.39c1.66,0,3.01,1.35,3.01,3.01v57.98
					C52.53,62.65,51.18,64,49.52,64z M17.13,0.98c-1.12,0-2.02,0.91-2.02,2.02v57.98c0,1.12,0.91,2.02,2.02,2.02h32.39
					c1.12,0,2.02-0.91,2.02-2.02V3.01c0-1.12-0.91-2.02-2.02-2.02H17.13z"></path></g><g><path d="M14.62,15.55h-1.93c-0.67,0-1.21-0.54-1.21-1.21V6.89c0-0.67,0.54-1.21,1.21-1.21h1.93c0.27,0,0.49,0.22,0.49,0.49
					s-0.22,0.49-0.49,0.49h-1.93c-0.13,0-0.23,0.1-0.23,0.23v7.46c0,0.13,0.1,0.23,0.23,0.23h1.93c0.27,0,0.49,0.22,0.49,0.49
					S14.89,15.55,14.62,15.55z"></path></g><g><path d="M14.62,25.41h-1.9c-0.68,0-1.24-0.56-1.24-1.24v-4.02c0-0.68,0.56-1.24,1.24-1.24h1.9c0.27,0,0.49,0.22,0.49,0.49
					s-0.22,0.49-0.49,0.49h-1.9c-0.14,0-0.26,0.11-0.26,0.26v4.02c0,0.14,0.11,0.26,0.26,0.26h1.9c0.27,0,0.49,0.22,0.49,0.49
					S14.89,25.41,14.62,25.41z"></path></g><g><path d="M47.38,58.81h-28.1c-0.59,0-1.06-0.48-1.06-1.06V6.25c0-0.59,0.48-1.06,1.06-1.06h28.1c0.59,0,1.06,0.48,1.06,1.06v51.5
					C48.44,58.34,47.96,58.81,47.38,58.81z M19.28,6.17c-0.04,0-0.08,0.03-0.08,0.08v51.5c0,0.04,0.03,0.08,0.08,0.08h28.1
					c0.04,0,0.08-0.03,0.08-0.08V6.25c0-0.04-0.03-0.08-0.08-0.08H19.28z"></path></g></g><g><g><g><path d="M26.68,25.48c-3.32,0-6.02-2.7-6.02-6.02s2.7-6.02,6.02-6.02s6.02,2.7,6.02,6.02S30,25.48,26.68,25.48z M26.68,14.41
						c-2.78,0-5.04,2.26-5.04,5.04s2.26,5.04,5.04,5.04s5.04-2.26,5.04-5.04S29.46,14.41,26.68,14.41z"></path></g><g><path d="M26.65,21.39c-1.18,0-2.14-0.96-2.14-2.14v-0.91c0-1.18,0.96-2.14,2.14-2.14c1.18,0,2.14,0.96,2.14,2.14v0.91
						C28.79,20.43,27.83,21.39,26.65,21.39z M26.65,17.18c-0.64,0-1.16,0.52-1.16,1.16v0.91c0,0.64,0.52,1.16,1.16,1.16
						c0.64,0,1.16-0.52,1.16-1.16v-0.91C27.8,17.7,27.28,17.18,26.65,17.18z"></path></g><g><path d="M22.96,24.03c-0.23,0-0.44-0.16-0.48-0.4c0-0.03-0.01-0.15-0.01-0.18c0-1.68,1-3.19,2.55-3.84
						c0.25-0.1,0.54,0.01,0.65,0.26c0.11,0.25-0.01,0.54-0.26,0.65c-1.18,0.5-1.95,1.65-1.95,2.94c0.05,0.27-0.14,0.53-0.4,0.57
						C23.02,24.03,22.99,24.03,22.96,24.03z"></path></g><g><path d="M30.32,24.1c-0.03,0-0.06,0-0.09-0.01c-0.27-0.05-0.45-0.3-0.4-0.57c0-1.36-0.76-2.51-1.95-3.01
						c-0.25-0.11-0.37-0.39-0.26-0.65c0.11-0.25,0.4-0.37,0.65-0.26c1.55,0.65,2.55,2.16,2.55,3.84c0,0.08,0,0.16-0.02,0.25
						C30.76,23.94,30.56,24.1,30.32,24.1z"></path></g></g><g><g><path d="M26.68,40.96c-3.32,0-6.02-2.7-6.02-6.02c0-3.32,2.7-6.02,6.02-6.02s6.02,2.7,6.02,6.02
						C32.7,38.25,30,40.96,26.68,40.96z M26.68,29.89c-2.78,0-5.04,2.26-5.04,5.04c0,2.78,2.26,5.04,5.04,5.04s5.04-2.26,5.04-5.04
						C31.72,32.15,29.46,29.89,26.68,29.89z"></path></g><g><path d="M26.65,36.87c-1.18,0-2.14-0.96-2.14-2.14v-0.91c0-1.18,0.96-2.14,2.14-2.14c1.18,0,2.14,0.96,2.14,2.14v0.91
						C28.79,35.91,27.83,36.87,26.65,36.87z M26.65,32.66c-0.64,0-1.16,0.52-1.16,1.16v0.91c0,0.64,0.52,1.16,1.16,1.16
						c0.64,0,1.16-0.52,1.16-1.16v-0.91C27.8,33.18,27.28,32.66,26.65,32.66z"></path></g><g><path d="M22.96,39.51c-0.23,0-0.44-0.16-0.48-0.4c0-0.03-0.01-0.15-0.01-0.18c0-1.68,1-3.19,2.55-3.84
						c0.25-0.11,0.54,0.01,0.65,0.26c0.11,0.25-0.01,0.54-0.26,0.65c-1.18,0.5-1.95,1.65-1.95,2.94c0.05,0.27-0.14,0.53-0.4,0.58
						C23.02,39.51,22.99,39.51,22.96,39.51z"></path></g><g><path d="M30.32,39.58c-0.03,0-0.06,0-0.09-0.01c-0.27-0.05-0.45-0.3-0.4-0.57c0-1.36-0.76-2.51-1.95-3.01
						c-0.25-0.11-0.37-0.39-0.26-0.65c0.11-0.25,0.4-0.37,0.65-0.26c1.55,0.65,2.55,2.16,2.55,3.84c0,0.08,0,0.16-0.02,0.25
						C30.76,39.41,30.56,39.58,30.32,39.58z"></path></g></g><g><g><path d="M26.68,56.43c-3.32,0-6.02-2.7-6.02-6.02c0-3.32,2.7-6.02,6.02-6.02s6.02,2.7,6.02,6.02
						C32.7,53.73,30,56.43,26.68,56.43z M26.68,45.37c-2.78,0-5.04,2.26-5.04,5.04s2.26,5.04,5.04,5.04s5.04-2.26,5.04-5.04
						S29.46,45.37,26.68,45.37z"></path></g><g><path d="M26.65,52.35c-1.18,0-2.14-0.96-2.14-2.14V49.3c0-1.18,0.96-2.14,2.14-2.14c1.18,0,2.14,0.96,2.14,2.14v0.91
						C28.79,51.39,27.83,52.35,26.65,52.35z M26.65,48.14c-0.64,0-1.16,0.52-1.16,1.16v0.91c0,0.64,0.52,1.16,1.16,1.16
						c0.64,0,1.16-0.52,1.16-1.16V49.3C27.8,48.66,27.28,48.14,26.65,48.14z"></path></g><g><path d="M22.96,54.99c-0.23,0-0.44-0.16-0.48-0.4c0-0.03-0.01-0.15-0.01-0.18c0-1.68,1-3.19,2.55-3.84
						c0.25-0.1,0.54,0.01,0.65,0.26c0.11,0.25-0.01,0.54-0.26,0.65c-1.18,0.5-1.95,1.65-1.95,2.94c0.05,0.27-0.14,0.53-0.4,0.58
						C23.02,54.99,22.99,54.99,22.96,54.99z"></path></g><g><path d="M30.32,55.06c-0.03,0-0.06,0-0.09-0.01c-0.27-0.05-0.45-0.3-0.4-0.57c0-1.36-0.76-2.51-1.95-3.01
						c-0.25-0.11-0.37-0.39-0.26-0.65c0.11-0.25,0.4-0.37,0.65-0.26c1.55,0.65,2.55,2.16,2.55,3.84c0,0.08,0,0.16-0.02,0.25
						C30.76,54.89,30.56,55.06,30.32,55.06z"></path></g></g></g><g><path d="M45.29,17.18H34.92c-0.27,0-0.49-0.22-0.49-0.49s0.22-0.49,0.49-0.49h10.37c0.27,0,0.49,0.22,0.49,0.49
				S45.56,17.18,45.29,17.18z"></path></g><g><path d="M40.3,20.55h-5.38c-0.27,0-0.49-0.22-0.49-0.49s0.22-0.49,0.49-0.49h5.38c0.27,0,0.49,0.22,0.49,0.49
				S40.57,20.55,40.3,20.55z"></path></g><g><path d="M45.29,33.74H34.92c-0.27,0-0.49-0.22-0.49-0.49c0-0.27,0.22-0.49,0.49-0.49h10.37c0.27,0,0.49,0.22,0.49,0.49
				C45.78,33.52,45.56,33.74,45.29,33.74z"></path></g><g><path d="M40.3,37.11h-5.38c-0.27,0-0.49-0.22-0.49-0.49c0-0.27,0.22-0.49,0.49-0.49h5.38c0.27,0,0.49,0.22,0.49,0.49
				C40.79,36.89,40.57,37.11,40.3,37.11z"></path></g><g><path d="M45.29,49.22H34.92c-0.27,0-0.49-0.22-0.49-0.49c0-0.27,0.22-0.49,0.49-0.49h10.37c0.27,0,0.49,0.22,0.49,0.49
				C45.78,49,45.56,49.22,45.29,49.22z"></path></g><g><path d="M40.3,52.59h-5.38c-0.27,0-0.49-0.22-0.49-0.49c0-0.27,0.22-0.49,0.49-0.49h5.38c0.27,0,0.49,0.22,0.49,0.49
				C40.79,52.37,40.57,52.59,40.3,52.59z"></path></g></g><g><g><path d="M26.65,8.4h-5.13c-0.27,0-0.49-0.22-0.49-0.49c0-0.27,0.22-0.49,0.49-0.49h5.13c0.27,0,0.49,0.22,0.49,0.49
				C27.14,8.18,26.92,8.4,26.65,8.4z"></path></g><g><path d="M26.65,10.25h-5.13c-0.27,0-0.49-0.22-0.49-0.49s0.22-0.49,0.49-0.49h5.13c0.27,0,0.49,0.22,0.49,0.49
				S26.92,10.25,26.65,10.25z"></path></g><g><path d="M26.65,12.09h-5.13c-0.27,0-0.49-0.22-0.49-0.49c0-0.27,0.22-0.49,0.49-0.49h5.13c0.27,0,0.49,0.22,0.49,0.49
				C27.14,11.87,26.92,12.09,26.65,12.09z"></path></g></g><g><g><path d="M37.89,12.38c-0.36,0-0.72-0.07-1.06-0.22c-0.64-0.28-1.14-0.8-1.39-1.45c-0.25-0.65-0.24-1.37,0.04-2.01
				c0.28-0.64,0.8-1.14,1.45-1.39c0.65-0.25,1.37-0.24,2.01,0.04c0.64,0.28,1.14,0.8,1.39,1.45c0.25,0.65,0.24,1.37-0.04,2.01l0,0
				c-0.28,0.64-0.8,1.14-1.45,1.39C38.54,12.32,38.22,12.38,37.89,12.38z M37.9,8.11c-0.2,0-0.4,0.04-0.6,0.11
				c-0.41,0.16-0.73,0.47-0.91,0.87c-0.18,0.4-0.19,0.85-0.03,1.26c0.16,0.41,0.47,0.73,0.87,0.91c0.4,0.18,0.85,0.19,1.26,0.03
				c0.41-0.16,0.73-0.47,0.91-0.87c0,0,0,0,0,0c0.18-0.4,0.19-0.85,0.03-1.26c-0.16-0.41-0.47-0.73-0.87-0.91
				C38.35,8.16,38.12,8.11,37.9,8.11z"></path></g><g><path d="M42.71,12.37c-0.07,0-0.13-0.01-0.2-0.04l-2.86-1.26c-0.25-0.11-0.36-0.4-0.25-0.65c0.11-0.25,0.4-0.36,0.65-0.25
				l2.86,1.26c0.25,0.11,0.36,0.4,0.25,0.65C43.08,12.26,42.9,12.37,42.71,12.37z"></path></g></g></g></svg>