<svg xmlns="http://www.w3.org/2000/svg" enable-background="new 0 0 64 64" viewBox="0 0 64 64" id="personal-computer"><path fill="#90caf9" d="M46,5H18c-1.6542969,0-3,1.3457031-3,3v14c0,1.6542969,1.3457031,3,3,3h28c1.6542969,0,3-1.3457031,3-3V8
		C49,6.3457031,47.6542969,5,46,5z"></path><path fill="#546e7a" d="M34,23h-4c-0.5522461,0-1,0.4477539-1,1v4c0,0.5522461,0.4477539,1,1,1h4c0.5522461,0,1-0.4477539,1-1v-4
		C35,23.4477539,34.5522461,23,34,23z"></path><path fill="#37474f" d="M15 20v2c0 1.6542969 1.3457031 3 3 3h28c1.6542969 0 3-1.3457031 3-3v-2H15zM42 27H22c-.5522461 0-1 .4477539-1 1v3c0 .5522461.4477539 1 1 1h20c.5522461 0 1-.4477539 1-1v-3C43 27.4477539 42.5522461 27 42 27zM51 27h-2c-1.6542969 0-3 1.3457031-3 3v1c0 .5522461.4477539 1 1 1h6c.5522461 0 1-.4477539 1-1v-1C54 28.3457031 52.6542969 27 51 27z"></path><path fill="#1a237e" d="M55 33h-3c-.5522461 0-1 .4472656-1 1v22.5c0 1.3789062 1.121582 2.5 2.5 2.5s2.5-1.1210938 2.5-2.5V34C56 33.4472656 55.5522461 33 55 33zM11 33H8c-.5522461 0-1 .4472656-1 1v22.5C7 57.8789062 8.121582 59 9.5 59s2.5-1.1210938 2.5-2.5V34C12 33.4472656 11.5522461 33 11 33z"></path><path fill="#3949ab" d="M58,30H6c-0.5522461,0-1,0.4477539-1,1v3c0,0.5527344,0.4477539,1,1,1h52c0.5522461,0,1-0.4472656,1-1v-3
		C59,30.4477539,58.5522461,30,58,30z"></path><path fill="#37474f" d="M24,36h-8c-1.6542969,0-3,1.3457031-3,3v19c0,0.5527344,0.4477539,1,1,1h12c0.5522461,0,1-0.4472656,1-1V39
		C27,37.3457031,25.6542969,36,24,36z"></path><path fill="#546e7a" d="M49,38H39c-0.5522461,0-1,0.4472656-1,1v19c0,0.5527344,0.4477539,1,1,1h10c0.5522461,0,1-0.4472656,1-1V39
		C50,38.4472656,49.5522461,38,49,38z"></path><path fill="#bdbdbd" d="M44,47c-1.6542969,0-3-1.3457031-3-3s1.3457031-3,3-3s3,1.3457031,3,3S45.6542969,47,44,47z M44,43
			c-0.5512695,0-1,0.4482422-1,1s0.4487305,1,1,1s1-0.4482422,1-1S44.5512695,43,44,43z"></path><path fill="#ff4081" d="M20,47c-2.2055664,0-4-1.7939453-4-4s1.7944336-4,4-4s4,1.7939453,4,4S22.2055664,47,20,47z M20,41
			c-1.1030273,0-2,0.8974609-2,2s0.8969727,2,2,2s2-0.8974609,2-2S21.1030273,41,20,41z"></path><path fill="#18ffff" d="M20,56c-2.2055664,0-4-1.7939453-4-4s1.7944336-4,4-4s4,1.7939453,4,4S22.2055664,56,20,56z M20,50
			c-1.1030273,0-2,0.8974609-2,2s0.8969727,2,2,2s2-0.8974609,2-2S21.1030273,50,20,50z"></path><path fill="#37474f" d="M38,48v10c0,0.5499878,0.4500122,1,1,1h10c0.5499878,0,1-0.4500122,1-1V48H38z M41,57h-1v-1h1V57z M41,54h-1
		v-1h1V54z M41,51h-1v-1h1V51z M45,57h-2v-1h2V57z M45,54h-2v-1h2V54z M45,51h-2v-1h2V51z M48,57h-1v-1h1V57z M48,54h-1v-1h1V54z
		 M48,51h-1v-1h1V51z"></path><circle cx="20" cy="43" r="1" fill="#ff4081"></circle><g><circle cx="20" cy="52" r="1" fill="#18ffff"></circle></g></svg>