<svg xmlns="http://www.w3.org/2000/svg" enable-background="new 0 0 1600 1600" viewBox="0 0 1600 1600" id="success"><path d="M800,1565c-96.8,0-190.7-19-279.1-56.3c-85.4-36.1-162-87.8-227.9-153.6c-65.8-65.8-117.5-142.5-153.6-227.9C102,1038.7,83,944.8,83,848s19-190.7,56.3-279.1c36.1-85.4,87.8-162,153.6-227.9c65.8-65.8,142.5-117.5,227.9-153.6c88.4-37.4,182.3-56.3,279.1-56.3c11.6,0,21,9.4,21,21s-9.4,21-21,21c-372.2,0-675,302.8-675,675s302.8,675,675,675s675-302.8,675-675c0-287.3-182.2-543.6-453.5-637.8c-11-3.8-16.8-15.8-12.9-26.7c3.8-11,15.8-16.8,26.7-12.9c69.4,24.1,134.5,58.7,193.6,102.8c58.4,43.7,109.7,95.7,152.4,154.8c43.3,59.8,76.9,125.5,99.9,195.4c23.8,72.2,35.8,147.7,35.8,224.4c0,96.8-19,190.7-56.3,279.1c-36.1,85.4-87.8,162-153.6,227.9s-142.5,117.5-227.9,153.6C990.7,1546,896.8,1565,800,1565z"></path><path d="M800,946c-26.5,0-50.5-9.9-69.3-28.7C711.9,898.5,702,874.6,702,848c0-26.5,9.9-50.5,28.7-69.3S773.4,750,800,750c26.5,0,50.5,9.9,69.3,28.7S898,821.4,898,848s-9.9,50.5-28.7,69.3C850.5,936.1,826.5,946,800,946z M800,792.1c-15.4,0-28.7,5.5-39.6,16.4c-10.9,10.9-16.4,24.2-16.4,39.6s5.5,28.7,16.4,39.6s24.2,16.4,39.6,16.4c15.4,0,28.7-5.5,39.6-16.4s16.4-24.2,16.4-39.6s-5.5-28.7-16.4-39.6C828.7,797.6,815.4,792.1,800,792.1z"></path><path d="M800,1265.7c-113.2,0-215.3-42.3-295.3-122.3S382.4,961.2,382.4,848.1c0-113.2,42.3-215.3,122.3-295.3S686.9,430.5,800,430.5s215.3,42.3,295.3,122.3s122.3,182.2,122.3,295.3c0,113.2-42.3,215.3-122.3,295.3C1015.3,1223.4,913.2,1265.7,800,1265.7z M800,472.4c-101.8,0-193.6,38-265.6,110s-110,163.8-110,265.6s38,193.6,110,265.6s163.8,110,265.6,110s193.6-38,265.6-110s110-163.8,110-265.6s-38-193.6-110-265.6S901.8,472.4,800,472.4z"></path><path d="M560.7 869H305.2c-11.6 0-21-9.4-21-21s9.4-21 21-21h255.5c11.6 0 21 9.4 21 21S572.3 869 560.7 869zM1294.8 869h-255.5c-11.6 0-21-9.4-21-21s9.4-21 21-21h255.5c11.6 0 21 9.4 21 21S1306.4 869 1294.8 869zM800 1363.8c-11.6 0-21-9.4-21-21v-255.5c0-11.6 9.4-21 21-21s21 9.4 21 21v255.5C821 1354.4 811.6 1363.8 800 1363.8zM800 869c-11.6 0-21-9.4-21-21V56c0-11.6 9.4-21 21-21s21 9.4 21 21v792C821 859.6 811.6 869 800 869z"></path><path d="M1107.6,330H800c-11.6,0-21-9.4-21-21s9.4-21,21-21h259.6l-65.8-71.1c-7.6-8.2-7.4-20.8,0.3-28.8l64.3-66.8H800c-11.6,0-21-9.4-21-21s9.4-21,21-21h307.6c8.4,0,16,5,19.3,12.8c3.3,7.7,1.7,16.7-4.2,22.8L1038,203l85,91.8c5.7,6.1,7.2,15,3.8,22.7S1116,330,1107.6,330z"></path><g><path d="M800,1165.7c-84.9,0-164.6-33-224.6-93.1c-60-60-93.1-139.8-93.1-224.6c0-84.9,33-164.6,93.1-224.6c60-60,139.8-93.1,224.6-93.1s164.6,33,224.6,93.1c60,60,93.1,139.8,93.1,224.6c0,84.9-33,164.6-93.1,224.6C964.6,1132.7,884.9,1165.7,800,1165.7z M800,572.4c-152,0-275.7,123.7-275.7,275.7S648,1123.8,800,1123.8s275.7-123.7,275.7-275.7C1075.7,696,952,572.4,800,572.4z"></path></g></svg>